<?xml version="1.0" encoding="utf-8"?>
<!-- Generator: Adobe Illustrator 26.0.3, SVG Export Plug-In . SVG Version: 6.00 Build 0)  -->
<svg version="1.0" id="katman_1" xmlns="http://www.w3.org/2000/svg" xmlns:xlink="http://www.w3.org/1999/xlink" x="0px" y="0px"
	 viewBox="0 0 600 450" style="enable-background:new 0 0 600 450;" xml:space="preserve">
<style type="text/css">
	.st0{fill:#39B49E;}
</style>
<path class="st0" d="M493.1,212.6c4-0.3,8.3-0.4,12.5-0.4c9.8,0,15.7,3.8,15.7,14.5v26.8H513l-0.4-4h-0.1c-2.8,3-6.9,4.8-12.2,4.8
	c-7,0-12.5-4.5-12.5-13.4c0-8.3,6.9-16,24.2-12.3v-2.4c0-4.8-2.8-6.1-8.3-6.1c-3.4,0-6.3,0.2-10.6,0.6L493.1,212.6
	C493.1,212.5,493.1,212.6,493.1,212.6z M512.1,234.8c-7.3-1.9-14.7,0.4-14.7,6.1c0,3.8,2.5,6,6.2,5.8c2.9-0.1,6.2-1.4,8.5-3.5V234.8
	L512.1,234.8L512.1,234.8z M481.5,213.3v40.1h-9.2v-40.1C472.3,213.4,481.5,213.3,481.5,213.3z M476.9,207.7
	c-2.9,0.1-5.2-2.2-5.3-5.1c-0.1-2.9,2.2-5.2,5.1-5.3h0.2c2.9,0,5.2,2.3,5.2,5.2C482.1,205.3,479.8,207.7,476.9,207.7L476.9,207.7
	L476.9,207.7z M463.5,197.3v56.2h-9.2v-55.1L463.5,197.3L463.5,197.3z M417.5,212.6c4-0.3,8.3-0.4,12.5-0.4
	c9.8,0,15.7,3.8,15.7,14.5v26.8h-8.2l-0.4-4h-0.1c-2.8,3-6.9,4.8-12.2,4.8c-7,0-12.5-4.5-12.5-13.4c0-8.3,6.9-16,24.2-12.3v-2.4
	c0-4.8-2.8-6.1-8.3-6.1c-3.4,0-6.3,0.2-10.6,0.6L417.5,212.6L417.5,212.6L417.5,212.6z M436.5,234.8c-7.3-1.9-14.7,0.4-14.7,6.1
	c0,3.8,2.5,6,6.2,5.8c2.9-0.1,6.2-1.4,8.4-3.5L436.5,234.8L436.5,234.8L436.5,234.8z M388.1,213.3h7.9l0.7,6.5h0.1
	c2-3,7-6.8,12.7-7.1v8.4c-8.4,1.6-12.2,7.2-12.2,12.2v20.1h-9.2C388.1,253.5,388.1,213.3,388.1,213.3z M344.1,233.6v-0.4
	c0-13.4,6.2-21.1,18.9-21.1c12.7,0,18.8,7.7,18.8,21.1v0.4c0,13.4-6.2,21.1-18.8,21.1C350.3,254.7,344.1,247,344.1,233.6
	L344.1,233.6z M363,219.7c-6.5,0-9.5,4.4-9.5,13.6s3,13.5,9.5,13.5c6.5,0,9.4-4.3,9.4-13.5C372.4,224.1,369.5,219.7,363,219.7
	L363,219.7z M320.9,202.4l9.2-1.1v12h9.4v7.4h-9.4v18.4c0,7,2.2,7.8,5.8,7.8c1.2,0,2.4-0.2,3.6-0.5v7.6c-1.6,0.4-3.8,0.6-5.2,0.6
	c-10.5,0-13.3-5.1-13.3-14.3V202.4L320.9,202.4z M293,233.4c0,8.8,3.8,13.4,11.4,13.4c3.2,0,6.4-0.4,9.4-0.8v7.4
	c-3.5,0.7-7,1-10.5,1c-11.3,0-19.8-6.2-19.8-21.1c0-14.9,8.5-21.1,19.8-21.1c4.1,0,8.1,0.5,10.5,1v7.4c-2.9-0.4-6.2-0.8-9.4-0.8
	C296.9,220,293.1,224.6,293,233.4L293,233.4z M239.9,233.6v-0.4c0-13.4,6.2-21.1,18.9-21.1c12.7,0,18.8,7.7,18.8,21.1v0.4
	c0,13.4-6.2,21.1-18.8,21.1C246.1,254.7,239.9,247,239.9,233.6L239.9,233.6z M258.8,219.8c-6.5,0-9.5,4.4-9.5,13.6s3,13.5,9.5,13.5
	c6.5,0,9.4-4.3,9.4-13.5C268.2,224.1,265.3,219.8,258.8,219.8L258.8,219.8z M191.3,253.5v-56.2h14.1c19.7,0,28.8,5.9,28.8,28.1
	c0,22.2-9.2,28.1-28.8,28.1H191.3z M223.8,225.4c0-12.6-2.6-19-16.1-19h-6.3v38h6.3C221.2,244.4,223.8,238,223.8,225.4z
	 M125.7,250.1c2-5,7.7-11.9,13.6-15.5l12.9,21.3l-13.2,9.6L125.7,250.1L125.7,250.1L125.7,250.1z M106.7,265.5l-18.2-11.7
	c13.8-25.7,39.5-44,69.7-47.4l5.1,15.6C138.3,226.8,117.6,243.3,106.7,265.5L106.7,265.5z M110.7,212.6l2.3-27.3h16.3l2.1,24.7
	c-9.4,3.2-14.9,5.8-21.2,9.7c-4.6,2.8-8.9,6.2-12.7,10L79,221.8l5-15.5L110.7,212.6z"/>
</svg>
