<?xml version="1.0" encoding="UTF-8"?>
<svg id="Layer_2" data-name="Layer 2" xmlns="http://www.w3.org/2000/svg" viewBox="0 0 1200 1200">
  <defs>
    <style>
      .cls-1 {
        fill: #fff;
      }

      .cls-2, .cls-3 {
        fill: #231f20;
      }

      .cls-3 {
        fill-rule: evenodd;
      }
    </style>
  </defs>
  <g>
    <path class="cls-2" d="m334.96,635.72l-18.76-8.26c-.86-.34-2.06-.52-2.92-.34l-14.63,2.58c-1.04-1.55-2.24-2.92-3.62-4.3l10.67-13.43c1.72-2.24,1.9-5.51.17-7.75l-11.01-15.83c2.58-5.51,2.06-12.39-2.06-17.73-3.62-4.82-9.12-7.23-14.45-6.88-1.38,0-2.41,1.55-1.9,2.92l4.13,11.87c.52,1.38-1.04,2.58-2.24,1.72l-10.5-7.06c-1.2-.86-2.92-.34-3.27,1.04-1.55,4.99-.69,11.01,2.92,15.83,4.3,5.51,11.19,7.92,17.21,6.54l7.75,11.19-8.09,10.15c-3.1-1.55-6.37-2.92-9.98-3.96.17-.52.17-.86.17-1.38,0-3.62-2.92-6.54-6.54-6.54-3.27,0-6.02,2.41-6.37,5.68-1.72-.17-3.62-.17-5.34-.17s-3.62.17-5.34.17c-.34-3.1-3.1-5.68-6.37-5.68-3.62,0-6.54,2.92-6.54,6.54,0,.52,0,1.04.17,1.38-3.62,1.04-6.88,2.41-9.98,3.96l-8.09-10.15,7.75-11.19c6.02,1.38,12.91-1.04,17.21-6.54,3.62-4.82,4.48-10.67,2.92-15.83-.52-1.38-2.06-1.9-3.27-1.04l-10.5,7.06c-1.2.86-2.76-.34-2.24-1.72l4.13-11.87c.52-1.38-.52-2.92-1.9-2.92-5.34-.17-10.84,2.24-14.45,6.88-4.13,5.34-4.65,12.39-2.06,17.73l-11.01,15.83c-1.72,2.41-1.55,5.51.17,7.75l10.67,13.43c-1.38,1.38-2.58,2.92-3.62,4.3l-14.45-2.58c-1.04-.17-2.06,0-2.92.34l-18.93,8.26c-2.76,1.2-3.96,4.3-2.76,6.88.86,2.06,2.76,3.1,4.82,3.1.69,0,1.38-.17,2.06-.52l17.39-7.57,10.67,1.9v4.65l-11.36,1.55c-1.2.17-2.24.69-2.92,1.55l-14.11,14.11c-2.06,2.06-2.06,5.34,0,7.4,1.04,1.04,2.41,1.55,3.79,1.55s2.76-.52,3.79-1.55l12.91-12.91,11.01-1.55c.86,1.38,1.72,2.92,2.76,4.13l-8.09,4.82c-.86.52-1.38,1.2-1.9,1.9l-8.26,15.15c-1.38,2.58-.52,5.68,2.06,7.23.86.52,1.72.69,2.58.69,1.9,0,3.62-1.04,4.65-2.76l7.57-13.77,9.64-5.85c8.43,5.68,19.97,9.12,32.53,9.12s24.27-3.44,32.53-9.12l9.64,5.85,7.57,13.77c1.04,1.72,2.76,2.76,4.65,2.76.86,0,1.72-.17,2.58-.69,2.58-1.38,3.44-4.65,2.06-7.23l-8.42-14.8c-.52-.86-1.04-1.55-1.9-1.9l-8.09-4.99c1.04-1.38,1.9-2.76,2.76-4.13l11.01,1.55,12.91,12.91c1.04,1.04,2.41,1.55,3.79,1.55s2.76-.52,3.79-1.55c2.06-2.06,2.06-5.34,0-7.4l-14.11-14.11c-.86-.86-1.9-1.38-2.92-1.55l-11.53-1.72v-1.04c0-1.2-.17-2.41-.34-3.44l10.67-1.9,17.39,7.57c.69.34,1.38.52,2.06.52,2.06,0,3.96-1.2,4.82-3.1,1.37-2.75.17-5.85-2.41-7.05h0Z"/>
    <path class="cls-2" d="m256.06,409.03c-2.28.02-4.33,2.11-4.3,4.39v41.74l-5.84,6.42c.39-9.68.96-19.36,1.49-29.08-.18-3.14-2.55-4.84-5.39-4.48-19.25,4.81-33.44,21.62-41.57,41.65-8.14,20.02-10.41,43.58-5.03,63.54.49,1.82,2.28,3.19,4.17,3.21,8.87-1.06,17.25-4.56,24.95-7.96,7.96-3.89,20.67-9.26,21.42-18.32-.65-11.71-.67-23.46-.41-35.23l10.55-11.62,10.78,11.8c.26,11.72.2,23.39-.45,35.05,1.85,10.2,13.74,14.88,21.42,18.32,8.22,2.83,16.71,7.87,24.95,7.96,1.88-.02,3.68-1.4,4.17-3.21,5.38-19.96,3.11-43.51-5.03-63.54-8.14-20.02-22.33-36.85-41.57-41.65-2.8-.53-5.46,2.33-5.39,4.48.54,9.8,1.11,19.55,1.49,29.3l-6.02-6.65v-41.74c.02-2.3-2.09-4.41-4.39-4.39h0Z"/>
    <g>
      <path class="cls-2" d="m384.96,574.33c5.86-.11,11.03-.92,16.09-2.52,5.33-1.69,10.42-3.98,15.09-6.97,4.69-3,8.65-6.92,11.98-11.41,3.13-4.23,5.55-8.83,7.08-13.89,1.64-5.41,2.27-10.92,2.08-16.59-.18-5.28-.96-10.42-2.58-15.42-1.93-5.98-4.87-11.38-9.23-15.98-3.58-3.78-7.81-6.62-12.63-8.54-3.65-1.46-7.44-2.53-11.36-2.83-4.78-.37-9.27.97-13.51,3.08-3.71,1.85-6.79,4.47-9.13,7.93-.21.31-.72.69-1.01.63-1.19-.25-2.41-.53-3.52-1.01-3.34-1.45-5.46-4.15-6.86-7.37-.65-1.5-1.4-2.46-3.1-2.41-.14,0-.29-.09-.43-.11-3.07-.31-6.08-.17-8.78,1.55-2.57,1.64-3.97,4.11-4.73,6.98-.08.28.05.65.16.94,1.55,3.9,3.83,7.36,6.63,10.45,4.39,4.84,9.69,8.42,15.73,10.92,1.01.42,2.26.76,2.9,1.55,3.07,3.77,5.46,7.94,6.19,12.85.44,2.97.07,5.82-1.56,8.42-1.64,2.62-3.98,4.46-6.67,5.86-3.88,2.02-8.07,3.07-12.33,3.85-1.8.34-3.57.57-5.44.21-2.26-.44-4.58-.72-6.89-.83-3.64-.18-7.26.21-10.75,1.33-5.84,1.88-10.08,5.52-12.32,11.35-1.94,5.06-2.02,10.3-1.7,15.59.02.35.3.78.58,1,2.76,2.21,6.95,2.45,9.99.62,1.13-.68,1.77-1.5,1.83-3.02.16-4.05,1.66-7.64,4.73-10.4.83-.74,1.93-1.34,3.01-1.64,2.56-.73,4.84.29,6.85,1.75,1.64,1.19,3.05,2.69,4.64,3.94,8.65,6.81,18.56,9.99,28.95,10.15h0Z"/>
      <path class="cls-2" d="m384.96,574.33c-10.39-.16-20.3-3.34-28.96-10.14-1.6-1.25-3.01-2.75-4.64-3.94-2.02-1.47-4.29-2.49-6.85-1.75-1.07.31-2.17.9-3.01,1.64-3.07,2.76-4.57,6.34-4.73,10.4-.06,1.52-.7,2.33-1.83,3.02-3.03,1.83-7.23,1.59-9.99-.62-.29-.23-.56-.66-.58-1-.33-5.29-.25-10.53,1.7-15.59,2.24-5.84,6.49-9.48,12.32-11.35,3.49-1.12,7.1-1.51,10.75-1.33,2.3.11,4.62.39,6.89.83,1.87.37,3.63.13,5.44-.21,4.27-.79,8.46-1.84,12.33-3.85,2.7-1.4,5.03-3.24,6.67-5.86,1.63-2.6,2-5.46,1.56-8.42-.73-4.91-3.12-9.08-6.19-12.85-.64-.78-1.88-1.12-2.9-1.55-6.04-2.5-11.34-6.08-15.73-10.92-2.8-3.09-5.08-6.55-6.63-10.45-.12-.3-.24-.66-.16-.94.76-2.87,2.16-5.35,4.73-6.98,2.7-1.72,5.71-1.86,8.78-1.55.15.02.29.11.43.11,1.71-.06,2.45.92,3.1,2.41,1.41,3.22,3.52,5.92,6.86,7.37,1.11.48,2.33.77,3.52,1.01.29.06.8-.32,1.01-.63,2.33-3.46,5.42-6.08,9.13-7.93,4.24-2.11,8.72-3.45,13.51-3.08,3.92.3,7.7,1.38,11.36,2.83,4.83,1.92,9.05,4.75,12.63,8.54,4.35,4.59,7.3,9.99,9.23,15.98,1.62,5.01,2.4,10.14,2.58,15.42.2,5.67-.45,11.18-2.08,16.59-1.53,5.05-3.95,9.66-7.08,13.89-3.33,4.5-7.29,8.41-11.98,11.41-4.68,3-9.77,5.28-15.09,6.97-5.05,1.59-10.22,2.41-16.08,2.51h0Z"/>
    </g>
    <g>
      <path class="cls-2" d="m129.23,633.03c-.22,3.5-3.12,6.28-6.67,6.28s-6.45-2.78-6.65-6.28c-.98-.33-1.95-.73-2.87-1.19-2.61,2.33-6.64,2.24-9.16-.27-2.5-2.52-2.59-6.54-.27-9.16-.47-.93-.87-1.89-1.19-2.87-3.5-.2-6.28-3.11-6.28-6.65s2.78-6.47,6.28-6.67c.02-.06.05-.13.07-.19-4.74-1.66-9.85-2.58-15.16-2.58-25.31,0-45.92,20.6-45.92,45.92s20.61,45.92,45.92,45.92,45.92-20.61,45.92-45.92c0-5.89-1.12-11.5-3.15-16.69-.29.11-.58.24-.87.34h0Zm-41.9,37.73c-11.79,0-21.39-9.6-21.39-21.39s9.6-21.39,21.39-21.39,21.39,9.59,21.39,21.39-9.59,21.39-21.39,21.39Z"/>
      <path class="cls-2" d="m87.33,633.02c-9.02,0-16.36,7.33-16.36,16.36s7.33,16.36,16.36,16.36,16.36-7.33,16.36-16.36-7.33-16.36-16.36-16.36Zm0,25.16c-4.86,0-8.81-3.95-8.81-8.81s3.95-8.81,8.81-8.81,8.81,3.95,8.81,8.81-3.95,8.81-8.81,8.81Z"/>
      <path class="cls-2" d="m91.11,649.37c0,5.03-7.55,5.03-7.55,0s7.55-5.03,7.55,0"/>
    </g>
    <path class="cls-2" d="m181.81,699.28c1.72-.58,3.02-.79,3.89-.79.91,11.52-8.7,24.96-20,35.68-5.83,5.53-12.04,10.35-17.23,13.84-3.62,2.33-6.88,4.58-10.95,5.87-2.2.71-3.68,2.39-4.75,4.16-1.28,2.13-2.19,4.5-2.4,6.29-.11.69.43,1.41,1.12,1.51.69.09,1.4-.48,1.46-1.17.13-1.1.93-3.47,2.02-5.29.51-.9,1.23-1.64,1.88-2.31,2.52,12.05-2.37,20.06-9.21,24.41-7.14,4.54-16.46,4.77-21.49.99-3.04-2.59-6.01-7.04-6.71-10.3-1.14-5.35-2.36-11.78-.75-18.55,3.24-13.55,15.5-28.21,47.75-34.95.11-.02.21-.06.31-.11,5.41-2.65,14.02-8.16,22.09-12.79,4.42-2.39,8.58-4.85,12.98-6.46h0Zm-8.83,11.78c-.25.14-.44.37-.55.63-2.37,5.01-7.31,8.97-13.55,12.57-6.24,3.59-13.74,6.82-21.02,10.47s-14.33,7.74-19.73,13.23c-5.4,5.49-9.1,12.47-9.43,21.51-.01.68.59,1.32,1.27,1.33.68.01,1.32-.59,1.33-1.27.31-8.41,3.63-14.64,8.68-19.78,5.05-5.14,11.87-9.13,19.05-12.73,7.18-3.6,14.7-6.8,21.14-10.51,6.44-3.71,11.87-7.94,14.6-13.72.51-.98-.82-2.26-1.78-1.73h0Z"/>
    <path class="cls-3" d="m118.73,477.33l27.53,45.15c6.81-13.29,14.86-27.03,19.53-41.13,4.26-12.87,3.28-28.97-14.18-21.64-10.69,4.49-22.23,12.16-32.88,17.62m23.85,52.34l-30.16-49.45c-5.92,2.34-11.53,4.01-17.13,7.32-19.17,11.3-29.43,30.44-20.71,52.13,3.61,8.99,10.78,18.15,15,27.8,10.94,24.99,22.96,13.13,33.75-3.37,6.46-9.87,12.97-22.21,19.25-34.42h0Z"/>
    <g>
      <path class="cls-2" d="m387.13,730.32c-1.68-.81-3.36-1.85-4.82-3.24-7.18-6.86-9.88-16.83-9.9-16.93l-6.14,1.62c.13.48,3.2,11.82,11.66,19.91.79.75,1.62,1.43,2.47,2.04.26.18.52.34.78.5.03-.03.06-.07.09-.1,1.75-1.75,3.76-2.97,5.85-3.8h0Z"/>
      <path class="cls-2" d="m359.14,738.05c-16.13,6.3-20.9,24.89-21.22,25.61l5.22,2.3c.07-.15,2.47-11.25,15.48-16.27,1.2-.46,2.57-.79,4.04-1.02-1.03.86-2.03,1.79-2.95,2.84-5.35,6.12-9.32,21.93,4.27,30.96,44.51,29.55,93.54-51.51,54.12-80.61-24.21-17.87-42.05,7.69-35.52,19.91,2.25,4.21,4.71,6.58,6.56,7.9,9.14-2.53,19.34,1.28,19.91,1.5.82.32,1.23,1.24.92,2.06-.32.82-1.24,1.23-2.06.92-.16-.06-16.07-6.05-24.37,2.25-8.3,8.3-3.57,22.99-3.52,23.14.28.84-.18,1.74-1.01,2.02-.17.05-.34.08-.5.08-.67,0-1.29-.42-1.52-1.09-.22-.67-5.23-16.2,3.9-25.95-1.43-.6-2.94-1.26-4.59-2-8.51-3.85-17.53-10.04-17.62-10.1l-3.61,5.24c.31.22,6.49,4.46,13.66,8.22-3.67.48-7.13,1.16-9.59,2.12h0Z"/>
    </g>
    <path class="cls-2" d="m473.14,612.45c0-12.83-9.7-23.27-21.61-23.27-4.57,0-8.81,1.54-12.3,4.16l.03-.03s-.04.03-.05.05c-.46.34-.91.7-1.34,1.08-1.14.65-2.3.63-3.44-.07-.37-.33-.74-.65-1.15-.94-.04-.04-.08-.08-.13-.12l.04.06c-4.43-3.19-10.89-4.19-18.1-4.19s-13.67,1.01-18.1,4.19l.04-.06s-.08.08-.12.12c-.4.29-.78.61-1.16.94-1.14.69-2.29.72-3.43.07-.43-.38-.88-.73-1.34-1.08-.02-.02-.04-.03-.06-.05l.03.03c-3.49-2.62-7.72-4.16-12.29-4.16-11.92,0-21.61,10.44-21.61,23.27,0,5.69,1.91,10.9,5.07,14.95,0,.05,0,.1,0,.15,0,6.91,5.2,10.58,11.61,10.58s11.61-7.53,11.61-14.43c0-.58-.05-1.1-.12-1.59l6.68-7.2c1.9,8.24,6.43,16.76,12.37,21.79-.01.09-.05.17-.05.27,0,.81.46,1.51,1.12,1.81l2.35,32.7c0,4.41,3.31,7.99,7.42,7.99s7.42-3.58,7.42-7.99l2.34-32.7c.65-.3,1.12-.99,1.12-1.81,0-.1-.04-.18-.05-.27,5.96-5.05,10.51-13.64,12.39-21.93l6.68,7.19c-.09.53-.15,1.09-.15,1.73,0,6.91,5.21,14.43,11.61,14.43s11.61-3.68,11.61-10.58c0-.05,0-.1,0-.15,3.17-4.05,5.07-9.26,5.07-14.95h0Zm-89.59,6.28c-2.06-1.81-5.68-1.75-9.82-1.75-2.88,0-5.5.74-7.52,2.18-.94-2.02-1.48-4.29-1.48-6.7,0-8.28,6.26-15.02,13.94-15.02,5.35,0,10.01,3.27,12.34,8.05-.03.48-.07.94-.07,1.45,0,2.13.25,4.39.7,6.68l-8.09,5.1Zm80.44.43c-2.03-1.43-4.65-2.18-7.52-2.18-4.1,0-7.7-.06-9.76,1.7l-8.13-5.13c.44-2.26.68-4.49.68-6.6,0-.51-.05-.97-.07-1.45,2.34-4.78,6.99-8.05,12.34-8.05,7.69,0,13.94,6.73,13.94,15.02,0,2.41-.54,4.68-1.48,6.7h0Z"/>
    <g>
      <path class="cls-2" d="m122.56,636.53c-2.15,0-3.89-1.75-3.89-3.9v-1.51c0-.12-.08-.23-.19-.25-2.03-.46-3.95-1.26-5.73-2.38-.03-.02-.09-.03-.13-.03-.08,0-.16.03-.22.09l-1.04,1.05c-.75.74-1.72,1.15-2.77,1.15s-2.02-.41-2.76-1.14c-1.52-1.52-1.52-4,0-5.52l1.09-1.08c.08-.08.09-.23.02-.33-1.11-1.77-1.92-3.69-2.37-5.69-.03-.13-.13-.21-.25-.21h-1.51c-2.15,0-3.9-1.75-3.9-3.89s1.75-3.9,3.9-3.9h1.51c.12,0,.23-.07.25-.18.46-2.05,1.27-3.97,2.39-5.73.05-.09.04-.23-.04-.32l-1.08-1.08c-1.52-1.52-1.52-3.99,0-5.5.72-.72,1.73-1.13,2.76-1.13s2.03.4,2.75,1.13l1.07,1.07c.07.07.15.08.19.08.05,0,.09-.01.13-.04,1.81-1.12,3.73-1.92,5.71-2.37.11-.03.21-.13.21-.25v-1.52c0-2.15,1.75-3.89,3.89-3.89s3.9,1.75,3.9,3.89v1.52c0,.12.08.23.21.26,2,.45,3.92,1.25,5.69,2.36.05.03.09.04.14.04.04,0,.12-.01.19-.08l1.09-1.08c.69-.71,1.7-1.12,2.74-1.12s2.06.42,2.77,1.15c.71.68,1.12,1.67,1.12,2.74s-.42,2.07-1.18,2.79l-1.04,1.04c-.07.08-.09.22-.03.32,1.12,1.79,1.91,3.7,2.37,5.71.03.11.13.2.25.2h1.52c2.15,0,3.89,1.75,3.89,3.9s-1.75,3.89-3.89,3.89h-1.52c-.12,0-.23.09-.26.22-.45,1.98-1.24,3.9-2.35,5.69-.07.12-.06.26.03.35l1.06,1.05c.74.74,1.14,1.72,1.14,2.77s-.4,2.02-1.14,2.75c-.74.74-1.71,1.14-2.75,1.14s-2.01-.41-2.75-1.14l-1.08-1.08c-.06-.06-.14-.07-.19-.07-.04,0-.1,0-.15.04-1.74,1.11-3.67,1.91-5.69,2.37-.12.03-.2.13-.2.25v1.51c0,2.15-1.75,3.9-3.9,3.9Zm6.43-19.99c-.15,0-.26.12-.26.26,0,2.55-2.08,4.63-4.63,4.63-.15,0-.26.11-.26.26s.12.26.26.26c2.84,0,5.16-2.31,5.16-5.16,0-.15-.11-.26-.26-.26Zm-16.63-5.88c-.14,0-.26.12-.26.26,0,2.84,2.31,5.16,5.16,5.16.13,0,.26-.1.26-.26,0-.14-.12-.26-.26-.26-2.55,0-4.63-2.08-4.63-4.63,0-.14-.12-.26-.26-.26Zm10.77-6.84c-.15,0-.26.11-.26.26s.11.26.26.26c2.55,0,4.62,2.08,4.62,4.63,0,.14.12.26.26.26s.26-.11.26-.26c0-2.84-2.31-5.16-5.14-5.16Z"/>
      <path class="cls-1" d="m122.56,591.5c.9,0,1.65.73,1.65,1.64v1.52c0,1.17.81,2.19,1.95,2.45,1.77.4,3.46,1.11,5.01,2.07.41.26.87.39,1.33.39.65,0,1.3-.25,1.79-.74l1.08-1.07c.31-.31.73-.47,1.16-.47s.85.16,1.16.47c.31.3.48.72.48,1.16s-.16.86-.48,1.16l-1.08,1.08c-.82.83-.97,2.13-.34,3.12.97,1.55,1.67,3.23,2.07,5.01.27,1.15,1.28,1.95,2.45,1.95h1.52c.91,0,1.64.74,1.64,1.65s-.73,1.64-1.64,1.64h-1.52c-1.17,0-2.19.82-2.45,1.96-.4,1.77-1.11,3.45-2.07,5.01-.63.99-.48,2.29.34,3.12l1.08,1.07c.31.31.48.73.48,1.17s-.16.85-.48,1.16c-.32.32-.74.48-1.16.48s-.84-.16-1.16-.48l-1.08-1.08c-.49-.49-1.13-.73-1.78-.73-.46,0-.93.13-1.34.38-1.55.98-3.23,1.69-5.01,2.09-1.15.25-1.95,1.27-1.95,2.45v1.51c0,.9-.74,1.65-1.65,1.65s-1.64-.74-1.64-1.65v-1.51c0-1.18-.82-2.2-1.96-2.45-1.77-.4-3.45-1.11-5.01-2.09-.41-.25-.88-.38-1.33-.38-.66,0-1.3.25-1.79.73l-1.07,1.08c-.32.32-.74.48-1.16.48s-.84-.16-1.16-.48c-.64-.64-.64-1.69,0-2.33l1.08-1.07c.83-.83.97-2.13.35-3.12-.98-1.56-1.69-3.23-2.09-5.01-.25-1.15-1.27-1.96-2.45-1.96h-1.51c-.9,0-1.65-.73-1.65-1.64s.74-1.65,1.65-1.65h1.51c1.18,0,2.2-.81,2.45-1.95.4-1.77,1.11-3.46,2.09-5.01.61-.99.48-2.29-.35-3.12l-1.08-1.08c-.64-.64-.64-1.67,0-2.31.31-.31.74-.47,1.17-.47s.85.15,1.16.47l1.07,1.07c.49.49,1.13.74,1.79.74.46,0,.92-.13,1.33-.39,1.56-.97,3.23-1.67,5.01-2.07,1.15-.27,1.96-1.28,1.96-2.45v-1.52c0-.91.73-1.64,1.64-1.64m5.45,19.99c1.4,0,2.52-1.13,2.52-2.52,0-4.09-3.32-7.41-7.4-7.41-1.4,0-2.52,1.12-2.52,2.52s1.12,2.52,2.52,2.52c1.31,0,2.36,1.07,2.36,2.38,0,1.39,1.13,2.52,2.52,2.52m-10.75,6.84c1.38,0,2.52-1.12,2.52-2.52s-1.13-2.52-2.52-2.52c-1.31,0-2.38-1.07-2.38-2.38,0-1.39-1.13-2.52-2.52-2.52s-2.52,1.13-2.52,2.52c0,4.09,3.32,7.41,7.41,7.41m6.84,5.88c4.09,0,7.41-3.32,7.41-7.41,0-1.4-1.12-2.52-2.52-2.52s-2.52,1.12-2.52,2.52c0,1.31-1.07,2.38-2.38,2.38-1.39,0-2.52,1.12-2.52,2.52s1.13,2.52,2.52,2.52m-1.53-37.22c-3.39,0-6.14,2.75-6.15,6.14-1.18.37-2.34.85-3.47,1.44-1.15-1.15-2.7-1.79-4.35-1.79-1.62,0-3.21.65-4.34,1.77-2.41,2.41-2.41,6.31-.01,8.7h0c-.59,1.11-1.07,2.27-1.44,3.46-3.39,0-6.14,2.77-6.14,6.15s2.75,6.14,6.14,6.14c.37,1.19.86,2.35,1.44,3.46-2.4,2.42-2.4,6.31,0,8.71,1.16,1.16,2.71,1.8,4.35,1.8s3.19-.64,4.35-1.8c1.12.59,2.28,1.07,3.47,1.45,0,3.39,2.76,6.14,6.15,6.14s6.15-2.75,6.16-6.14c1.2-.37,2.36-.86,3.46-1.44h0c1.16,1.16,2.71,1.8,4.35,1.8s3.18-.64,4.35-1.8c1.16-1.16,1.8-2.7,1.8-4.35s-.64-3.2-1.79-4.35c.59-1.13,1.07-2.28,1.44-3.47,3.39,0,6.14-2.76,6.14-6.15s-2.76-6.15-6.14-6.15c-.37-1.19-.85-2.35-1.44-3.47,1.14-1.13,1.79-2.71,1.79-4.34s-.64-3.21-1.81-4.36c-1.13-1.13-2.71-1.78-4.34-1.78s-3.21.65-4.35,1.79c-1.12-.59-2.27-1.07-3.46-1.44,0-3.39-2.76-6.14-6.16-6.14h0Z"/>
    </g>
    <g>
      <path class="cls-2" d="m171.35,592.83c-2.15,0-3.89-1.75-3.89-3.9v-1.51c0-.12-.08-.23-.19-.25-2.03-.46-3.95-1.26-5.73-2.38-.03-.02-.09-.03-.13-.03-.08,0-.16.03-.22.09l-1.04,1.05c-.74.74-1.72,1.15-2.77,1.15s-2.02-.41-2.76-1.14c-1.52-1.52-1.52-4,0-5.52l1.09-1.08c.08-.08.09-.22.02-.33-1.12-1.77-1.92-3.69-2.37-5.69-.03-.13-.13-.21-.25-.21h-1.51c-2.15,0-3.9-1.75-3.9-3.89s1.75-3.9,3.9-3.9h1.51c.12,0,.23-.07.25-.18.46-2.04,1.27-3.97,2.39-5.73.05-.09.04-.23-.04-.32l-1.08-1.08c-1.52-1.52-1.52-3.99,0-5.5.73-.72,1.73-1.13,2.76-1.13s2.03.4,2.75,1.13l1.07,1.07c.07.07.15.08.19.08.05,0,.09-.01.13-.04,1.81-1.12,3.73-1.92,5.72-2.37.11-.03.21-.13.21-.25v-1.52c0-2.15,1.75-3.89,3.89-3.89s3.9,1.75,3.9,3.89v1.52c0,.12.08.23.21.26,2,.45,3.92,1.25,5.69,2.36.05.03.09.04.14.04.04,0,.12-.01.19-.08l1.09-1.08c.69-.71,1.7-1.12,2.74-1.12s2.06.42,2.77,1.15c.71.68,1.12,1.67,1.12,2.74s-.42,2.07-1.18,2.79l-1.04,1.04c-.07.08-.09.22-.03.32,1.12,1.79,1.91,3.7,2.37,5.71.03.11.13.2.25.2h1.52c2.15,0,3.89,1.75,3.89,3.9s-1.75,3.89-3.89,3.89h-1.52c-.12,0-.23.09-.26.22-.45,1.98-1.24,3.9-2.35,5.69-.07.12-.06.26.03.35l1.06,1.05c.74.74,1.14,1.72,1.14,2.77s-.4,2.02-1.14,2.75c-.74.74-1.71,1.14-2.75,1.14s-2.01-.41-2.75-1.14l-1.08-1.08c-.06-.06-.14-.07-.19-.07-.04,0-.1,0-.15.04-1.74,1.11-3.67,1.91-5.69,2.37-.12.03-.2.13-.2.25v1.51c0,2.15-1.75,3.9-3.9,3.9Zm6.43-19.99c-.15,0-.26.12-.26.26,0,2.55-2.08,4.63-4.63,4.63-.15,0-.26.11-.26.26s.12.26.26.26c2.84,0,5.16-2.31,5.16-5.16,0-.15-.11-.26-.26-.26Zm-16.63-5.88c-.14,0-.26.12-.26.26,0,2.84,2.31,5.16,5.16,5.16.13,0,.26-.1.26-.26,0-.14-.12-.26-.26-.26-2.55,0-4.63-2.08-4.63-4.63,0-.14-.12-.26-.26-.26Zm10.77-6.84c-.15,0-.26.11-.26.26s.11.26.26.26c2.55,0,4.62,2.08,4.62,4.63,0,.14.12.26.26.26s.26-.11.26-.26c0-2.84-2.31-5.16-5.14-5.16Z"/>
      <path class="cls-1" d="m171.35,547.8c.9,0,1.65.73,1.65,1.64v1.52c0,1.17.81,2.19,1.95,2.45,1.77.4,3.46,1.11,5.01,2.07.41.26.87.39,1.33.39.65,0,1.3-.25,1.79-.74l1.08-1.07c.31-.31.73-.47,1.16-.47s.85.16,1.16.47c.31.3.48.72.48,1.16s-.16.86-.48,1.16l-1.08,1.08c-.82.83-.97,2.13-.34,3.12.97,1.55,1.67,3.23,2.07,5.01.27,1.15,1.28,1.95,2.45,1.95h1.52c.91,0,1.64.74,1.64,1.65s-.73,1.64-1.64,1.64h-1.52c-1.17,0-2.19.82-2.45,1.96-.4,1.77-1.11,3.45-2.07,5.01-.63.99-.48,2.29.34,3.12l1.08,1.07c.31.31.48.73.48,1.17s-.16.85-.48,1.16c-.32.32-.74.48-1.16.48s-.84-.16-1.16-.48l-1.08-1.08c-.49-.49-1.13-.73-1.78-.73-.46,0-.93.13-1.34.38-1.55.98-3.23,1.69-5.01,2.09-1.15.25-1.95,1.27-1.95,2.45v1.51c0,.9-.74,1.65-1.65,1.65s-1.64-.74-1.64-1.65v-1.51c0-1.18-.82-2.2-1.96-2.45-1.77-.4-3.45-1.11-5.01-2.09-.41-.25-.88-.38-1.33-.38-.66,0-1.3.25-1.79.73l-1.07,1.08c-.32.32-.74.48-1.16.48s-.84-.16-1.16-.48c-.64-.64-.64-1.69,0-2.33l1.08-1.07c.83-.83.97-2.13.35-3.12-.98-1.56-1.69-3.23-2.09-5.01-.25-1.15-1.27-1.96-2.45-1.96h-1.51c-.9,0-1.65-.73-1.65-1.64s.74-1.65,1.65-1.65h1.51c1.18,0,2.2-.81,2.45-1.95.4-1.77,1.11-3.46,2.09-5.01.61-.99.48-2.29-.35-3.12l-1.08-1.08c-.64-.64-.64-1.67,0-2.31.31-.31.74-.47,1.17-.47.42,0,.85.15,1.16.47l1.07,1.07c.49.49,1.13.74,1.79.74.46,0,.92-.13,1.33-.39,1.56-.97,3.23-1.67,5.01-2.07,1.15-.27,1.96-1.28,1.96-2.45v-1.52c0-.91.73-1.64,1.64-1.64m5.45,19.99c1.4,0,2.52-1.13,2.52-2.52,0-4.09-3.32-7.41-7.4-7.41-1.4,0-2.52,1.12-2.52,2.52s1.12,2.52,2.52,2.52c1.31,0,2.36,1.07,2.36,2.38,0,1.39,1.13,2.52,2.52,2.52m-10.75,6.84c1.38,0,2.52-1.12,2.52-2.52s-1.13-2.52-2.52-2.52c-1.31,0-2.38-1.07-2.38-2.38,0-1.39-1.13-2.52-2.52-2.52s-2.52,1.13-2.52,2.52c0,4.09,3.32,7.41,7.41,7.41m6.84,5.88c4.09,0,7.41-3.32,7.41-7.41,0-1.4-1.12-2.52-2.52-2.52s-2.52,1.12-2.52,2.52c0,1.31-1.07,2.38-2.38,2.38-1.39,0-2.52,1.12-2.52,2.52s1.13,2.52,2.52,2.52m-1.53-37.22c-3.39,0-6.14,2.75-6.15,6.14-1.18.37-2.34.85-3.47,1.44-1.15-1.15-2.7-1.79-4.35-1.79-1.62,0-3.21.65-4.34,1.77-2.41,2.41-2.41,6.31-.01,8.7h0c-.59,1.11-1.07,2.27-1.44,3.46-3.39,0-6.14,2.77-6.14,6.16s2.75,6.14,6.14,6.14c.37,1.2.86,2.35,1.44,3.46-2.4,2.42-2.4,6.31,0,8.71,1.16,1.16,2.71,1.8,4.35,1.8s3.19-.64,4.35-1.8c1.12.59,2.28,1.07,3.47,1.45,0,3.39,2.76,6.14,6.15,6.14s6.15-2.75,6.15-6.14c1.2-.38,2.36-.86,3.46-1.44h0c1.16,1.16,2.71,1.8,4.35,1.8s3.18-.64,4.35-1.8c1.16-1.16,1.8-2.7,1.8-4.35s-.64-3.19-1.79-4.35c.59-1.13,1.07-2.28,1.44-3.47,3.39,0,6.14-2.76,6.14-6.14s-2.76-6.15-6.14-6.16c-.37-1.19-.85-2.35-1.44-3.47,1.14-1.13,1.79-2.71,1.79-4.34s-.64-3.21-1.81-4.36c-1.13-1.13-2.71-1.78-4.34-1.78s-3.21.65-4.35,1.79c-1.12-.59-2.27-1.07-3.46-1.44,0-3.39-2.76-6.14-6.15-6.14h0Z"/>
    </g>
    <g>
      <path class="cls-2" d="m256.19,726.03c-2.15,0-3.89-1.75-3.89-3.9v-1.51c0-.12-.08-.23-.19-.25-2.03-.46-3.95-1.26-5.73-2.38-.03-.02-.09-.03-.13-.03-.08,0-.16.03-.22.09l-1.04,1.05c-.75.74-1.73,1.15-2.77,1.15s-2.02-.41-2.76-1.14c-1.52-1.52-1.52-4,0-5.52l1.09-1.08c.08-.08.09-.22.02-.33-1.12-1.77-1.92-3.69-2.37-5.69-.03-.13-.13-.21-.25-.21h-1.51c-2.15,0-3.9-1.75-3.9-3.89s1.75-3.9,3.9-3.9h1.51c.12,0,.23-.07.25-.18.46-2.04,1.27-3.97,2.39-5.73.05-.09.04-.23-.04-.32l-1.08-1.08c-1.52-1.52-1.52-3.99,0-5.5.72-.72,1.73-1.13,2.76-1.13s2.03.4,2.75,1.13l1.07,1.07c.07.07.15.08.19.08.05,0,.09-.01.13-.04,1.81-1.12,3.73-1.92,5.72-2.37.11-.03.21-.13.21-.25v-1.52c0-2.15,1.75-3.89,3.89-3.89s3.9,1.75,3.9,3.89v1.52c0,.12.08.23.21.26,2,.45,3.92,1.25,5.69,2.36.05.03.09.04.14.04.04,0,.12-.01.19-.08l1.09-1.08c.69-.71,1.7-1.12,2.74-1.12s2.06.42,2.77,1.15c.71.68,1.12,1.67,1.12,2.73s-.42,2.07-1.18,2.79l-1.04,1.04c-.07.08-.09.22-.03.32,1.12,1.79,1.91,3.7,2.37,5.71.03.11.13.2.25.2h1.52c2.15,0,3.89,1.75,3.89,3.9s-1.75,3.89-3.89,3.89h-1.52c-.12,0-.23.09-.26.22-.45,1.98-1.24,3.9-2.35,5.69-.07.12-.06.26.03.35l1.06,1.05c.74.74,1.14,1.72,1.14,2.77s-.4,2.02-1.14,2.75c-.74.74-1.71,1.14-2.75,1.14s-2.01-.41-2.75-1.14l-1.08-1.08c-.06-.06-.14-.07-.19-.07-.04,0-.1,0-.15.04-1.74,1.11-3.67,1.91-5.69,2.37-.12.03-.2.13-.2.25v1.51c0,2.15-1.75,3.9-3.9,3.9Zm6.43-19.99c-.15,0-.26.12-.26.26,0,2.55-2.08,4.63-4.63,4.63-.15,0-.26.11-.26.26s.12.26.26.26c2.84,0,5.16-2.31,5.16-5.16,0-.15-.11-.26-.26-.26Zm-16.63-5.88c-.14,0-.26.12-.26.26,0,2.84,2.31,5.16,5.16,5.16.13,0,.26-.1.26-.26,0-.14-.12-.26-.26-.26-2.55,0-4.63-2.08-4.63-4.63,0-.14-.12-.26-.26-.26Zm10.77-6.84c-.15,0-.26.11-.26.26s.11.26.26.26c2.55,0,4.62,2.08,4.62,4.63,0,.14.12.26.26.26s.26-.11.26-.26c0-2.84-2.31-5.16-5.14-5.16Z"/>
      <path class="cls-1" d="m256.19,681c.9,0,1.65.73,1.65,1.64v1.52c0,1.17.81,2.19,1.95,2.45,1.77.4,3.46,1.11,5.01,2.07.41.26.87.39,1.33.39.65,0,1.3-.25,1.79-.74l1.08-1.07c.31-.31.73-.47,1.16-.47s.85.16,1.16.47c.31.3.48.72.48,1.16s-.16.86-.48,1.16l-1.08,1.08c-.82.83-.97,2.13-.34,3.12.97,1.55,1.67,3.23,2.07,5.01.27,1.15,1.28,1.95,2.45,1.95h1.52c.91,0,1.64.74,1.64,1.65s-.73,1.64-1.64,1.64h-1.52c-1.17,0-2.19.82-2.45,1.96-.4,1.77-1.11,3.45-2.07,5.01-.63.99-.48,2.29.34,3.12l1.08,1.07c.31.31.48.73.48,1.17s-.16.85-.48,1.16c-.32.32-.74.48-1.16.48s-.84-.16-1.16-.48l-1.08-1.08c-.49-.49-1.13-.73-1.78-.73-.46,0-.93.13-1.34.38-1.55.98-3.23,1.69-5.01,2.09-1.15.25-1.95,1.27-1.95,2.45v1.51c0,.9-.74,1.65-1.65,1.65s-1.64-.74-1.64-1.65v-1.51c0-1.18-.82-2.2-1.96-2.45-1.77-.4-3.45-1.11-5.01-2.09-.41-.25-.88-.38-1.33-.38-.66,0-1.3.25-1.79.73l-1.07,1.08c-.32.32-.74.48-1.16.48s-.84-.16-1.16-.48c-.64-.64-.64-1.69,0-2.33l1.08-1.07c.83-.83.97-2.13.35-3.12-.98-1.56-1.69-3.23-2.09-5.01-.25-1.15-1.27-1.96-2.45-1.96h-1.51c-.9,0-1.65-.73-1.65-1.64s.74-1.65,1.65-1.65h1.51c1.18,0,2.2-.81,2.45-1.95.4-1.77,1.11-3.46,2.09-5.01.61-.99.48-2.29-.35-3.12l-1.08-1.08c-.64-.64-.64-1.67,0-2.31.31-.31.74-.47,1.17-.47s.85.15,1.16.47l1.07,1.07c.49.49,1.13.74,1.79.74.46,0,.92-.13,1.33-.39,1.56-.97,3.23-1.67,5.01-2.07,1.15-.27,1.96-1.28,1.96-2.45v-1.52c0-.91.73-1.64,1.64-1.64m5.45,19.99c1.4,0,2.52-1.13,2.52-2.52,0-4.09-3.32-7.41-7.4-7.41-1.4,0-2.52,1.12-2.52,2.52s1.12,2.52,2.52,2.52c1.31,0,2.36,1.07,2.36,2.38,0,1.39,1.13,2.52,2.52,2.52m-10.75,6.84c1.38,0,2.52-1.12,2.52-2.52s-1.13-2.52-2.52-2.52c-1.31,0-2.38-1.07-2.38-2.38,0-1.39-1.13-2.52-2.52-2.52s-2.52,1.13-2.52,2.52c0,4.09,3.32,7.41,7.41,7.41m6.84,5.88c4.09,0,7.41-3.32,7.41-7.41,0-1.4-1.12-2.52-2.52-2.52s-2.52,1.12-2.52,2.52c0,1.31-1.07,2.38-2.38,2.38-1.39,0-2.52,1.12-2.52,2.52s1.13,2.52,2.52,2.52m-1.53-37.22c-3.39,0-6.14,2.75-6.15,6.14-1.18.37-2.34.85-3.47,1.44-1.15-1.15-2.7-1.79-4.35-1.79-1.62,0-3.21.65-4.34,1.77-2.41,2.41-2.41,6.31-.01,8.7h0c-.59,1.11-1.07,2.27-1.44,3.46-3.39,0-6.14,2.77-6.14,6.15s2.75,6.14,6.14,6.15c.37,1.2.86,2.35,1.44,3.46-2.4,2.42-2.4,6.31,0,8.71,1.16,1.16,2.71,1.8,4.35,1.8s3.19-.64,4.35-1.8c1.12.59,2.28,1.07,3.47,1.45,0,3.39,2.76,6.14,6.14,6.14s6.15-2.75,6.16-6.14c1.2-.37,2.36-.86,3.46-1.44h0c1.16,1.16,2.71,1.8,4.35,1.8s3.18-.64,4.35-1.8c1.16-1.16,1.8-2.7,1.8-4.35s-.64-3.2-1.79-4.35c.59-1.13,1.07-2.28,1.44-3.47,3.39,0,6.14-2.76,6.14-6.15s-2.76-6.15-6.14-6.15c-.37-1.19-.85-2.35-1.44-3.47,1.14-1.13,1.79-2.71,1.79-4.34s-.64-3.2-1.8-4.35c-1.13-1.14-2.71-1.79-4.34-1.79s-3.21.65-4.35,1.79c-1.12-.59-2.27-1.07-3.46-1.44,0-3.39-2.76-6.14-6.16-6.14h0Z"/>
    </g>
    <g>
      <path class="cls-2" d="m348.09,717.3c-2.15,0-3.89-1.75-3.89-3.9v-1.51c0-.12-.08-.23-.19-.25-2.03-.46-3.95-1.26-5.73-2.38-.03-.02-.09-.03-.13-.03-.08,0-.16.03-.22.09l-1.04,1.05c-.74.74-1.72,1.15-2.77,1.15s-2.02-.41-2.76-1.14c-1.52-1.52-1.52-4,0-5.52l1.09-1.08c.08-.08.09-.22.02-.33-1.12-1.77-1.92-3.69-2.37-5.7-.03-.13-.13-.21-.25-.21h-1.51c-2.15,0-3.9-1.75-3.9-3.89s1.75-3.9,3.9-3.9h1.51c.12,0,.23-.07.25-.18.46-2.04,1.27-3.97,2.39-5.73.05-.09.04-.23-.04-.32l-1.08-1.08c-1.52-1.52-1.52-3.99,0-5.5.73-.72,1.73-1.13,2.76-1.13s2.03.4,2.75,1.13l1.07,1.07c.07.07.15.08.19.08.05,0,.09-.01.13-.04,1.82-1.13,3.73-1.92,5.72-2.37.12-.03.21-.13.21-.25v-1.52c0-2.15,1.75-3.89,3.89-3.89s3.9,1.75,3.9,3.89v1.52c0,.12.08.23.21.26,2,.45,3.92,1.25,5.69,2.36.05.03.09.04.14.04.04,0,.12-.01.19-.08l1.09-1.08c.69-.71,1.7-1.12,2.74-1.12s2.06.42,2.77,1.15c.71.68,1.12,1.67,1.12,2.74s-.42,2.07-1.18,2.79l-1.04,1.04c-.07.08-.09.22-.03.32,1.12,1.78,1.91,3.7,2.37,5.71.03.11.13.2.25.2h1.52c2.15,0,3.89,1.75,3.89,3.9s-1.75,3.89-3.89,3.89h-1.52c-.12,0-.23.09-.26.21-.45,1.98-1.24,3.9-2.36,5.69-.07.12-.06.26.03.35l1.06,1.05c.74.74,1.14,1.72,1.14,2.77s-.4,2.02-1.14,2.75c-.74.74-1.71,1.14-2.75,1.14s-2.01-.41-2.75-1.14l-1.08-1.08c-.06-.06-.14-.07-.19-.07-.04,0-.1,0-.15.04-1.75,1.11-3.67,1.91-5.7,2.37-.12.03-.2.13-.2.25v1.51c0,2.15-1.75,3.9-3.9,3.9Zm6.43-19.99c-.15,0-.26.11-.26.26,0,2.55-2.08,4.63-4.63,4.63-.15,0-.26.12-.26.26s.12.26.26.26c2.84,0,5.16-2.31,5.16-5.16,0-.15-.11-.26-.26-.26Zm-16.63-5.88c-.14,0-.26.12-.26.26,0,2.84,2.31,5.16,5.16,5.16.13,0,.26-.1.26-.26,0-.14-.12-.26-.26-.26-2.55,0-4.63-2.08-4.63-4.63,0-.14-.12-.26-.26-.26Zm10.77-6.84c-.15,0-.26.11-.26.26s.11.26.26.26c2.55,0,4.62,2.08,4.62,4.63,0,.14.12.26.26.26s.26-.12.26-.26c0-2.84-2.31-5.16-5.14-5.16Z"/>
      <path class="cls-1" d="m348.09,672.27c.9,0,1.65.73,1.65,1.64v1.52c0,1.17.81,2.19,1.95,2.45,1.77.4,3.46,1.11,5.01,2.07.41.26.87.39,1.33.39.65,0,1.3-.25,1.79-.74l1.08-1.07c.31-.31.73-.47,1.16-.47s.85.16,1.16.47c.31.3.48.72.48,1.16s-.16.86-.48,1.16l-1.08,1.08c-.82.83-.97,2.13-.34,3.12.97,1.55,1.67,3.23,2.07,5.01.27,1.15,1.28,1.95,2.45,1.95h1.52c.91,0,1.64.74,1.64,1.65s-.73,1.64-1.64,1.64h-1.52c-1.17,0-2.19.82-2.45,1.96-.4,1.77-1.11,3.45-2.07,5.01-.63.99-.48,2.29.34,3.12l1.08,1.07c.31.31.48.73.48,1.17s-.16.85-.48,1.16c-.32.32-.74.48-1.16.48s-.84-.16-1.16-.48l-1.08-1.08c-.49-.49-1.13-.73-1.78-.73-.46,0-.93.13-1.34.38-1.55.98-3.23,1.69-5.01,2.09-1.15.25-1.95,1.27-1.95,2.45v1.51c0,.9-.74,1.65-1.65,1.65s-1.64-.74-1.64-1.65v-1.51c0-1.18-.82-2.2-1.96-2.45-1.77-.4-3.45-1.11-5.01-2.09-.41-.25-.88-.38-1.33-.38-.66,0-1.3.25-1.79.73l-1.07,1.08c-.32.32-.74.48-1.16.48s-.84-.16-1.16-.48c-.64-.64-.64-1.69,0-2.33l1.08-1.07c.83-.83.97-2.13.35-3.12-.98-1.56-1.69-3.23-2.09-5.01-.25-1.15-1.27-1.96-2.45-1.96h-1.51c-.9,0-1.65-.73-1.65-1.64s.74-1.65,1.65-1.65h1.51c1.18,0,2.2-.81,2.45-1.95.4-1.77,1.11-3.46,2.09-5.01.61-.99.48-2.29-.35-3.12l-1.08-1.08c-.64-.64-.64-1.67,0-2.31.31-.31.74-.47,1.17-.47s.85.15,1.16.47l1.07,1.07c.49.49,1.13.74,1.79.74.46,0,.92-.13,1.33-.39,1.56-.97,3.23-1.67,5.01-2.07,1.15-.27,1.96-1.28,1.96-2.45v-1.52c0-.91.73-1.64,1.64-1.64m5.45,19.99c1.4,0,2.52-1.13,2.52-2.52,0-4.09-3.32-7.41-7.4-7.41-1.4,0-2.52,1.12-2.52,2.52s1.12,2.52,2.52,2.52c1.31,0,2.36,1.07,2.36,2.38,0,1.39,1.13,2.52,2.52,2.52m-10.75,6.84c1.38,0,2.52-1.12,2.52-2.52s-1.13-2.52-2.52-2.52c-1.31,0-2.38-1.07-2.38-2.38,0-1.39-1.13-2.52-2.52-2.52s-2.52,1.13-2.52,2.52c0,4.09,3.32,7.41,7.41,7.41m6.84,5.88c4.09,0,7.41-3.32,7.41-7.41,0-1.4-1.12-2.52-2.52-2.52s-2.52,1.12-2.52,2.52c0,1.31-1.07,2.38-2.38,2.38-1.39,0-2.52,1.12-2.52,2.52s1.13,2.52,2.52,2.52m-1.53-37.22c-3.39,0-6.14,2.75-6.15,6.14-1.18.37-2.34.85-3.47,1.44-1.15-1.15-2.7-1.79-4.35-1.79-1.62,0-3.21.65-4.34,1.77-2.41,2.41-2.41,6.31-.01,8.7h0c-.59,1.11-1.07,2.27-1.44,3.46-3.39,0-6.14,2.77-6.14,6.15s2.75,6.14,6.14,6.14c.37,1.19.86,2.35,1.44,3.46-2.4,2.42-2.4,6.31,0,8.71,1.16,1.16,2.71,1.8,4.35,1.8s3.19-.64,4.35-1.8c1.12.59,2.28,1.07,3.47,1.45,0,3.39,2.76,6.14,6.15,6.14s6.15-2.75,6.15-6.14c1.2-.38,2.36-.86,3.46-1.44h0c1.16,1.16,2.71,1.8,4.35,1.8s3.18-.64,4.35-1.8c1.16-1.16,1.8-2.7,1.8-4.35s-.64-3.19-1.79-4.35c.59-1.13,1.07-2.28,1.44-3.47,3.39,0,6.14-2.76,6.14-6.15s-2.76-6.15-6.14-6.15c-.37-1.19-.85-2.35-1.44-3.47,1.14-1.13,1.79-2.71,1.79-4.34s-.64-3.21-1.81-4.36c-1.13-1.13-2.71-1.78-4.34-1.78s-3.21.65-4.35,1.79c-1.12-.59-2.27-1.07-3.46-1.44,0-3.39-2.76-6.14-6.15-6.14h0Z"/>
    </g>
    <g>
      <path class="cls-2" d="m434.78,709.25c-1.96,0-3.56-1.6-3.56-3.57v-1.72c0-.55-.38-1.03-.91-1.15-2.21-.5-4.31-1.38-6.26-2.61-.17-.1-.4-.17-.62-.17-.32,0-.63.13-.87.35l-1.2,1.21c-.68.68-1.58,1.05-2.53,1.05s-1.85-.37-2.53-1.05c-.67-.67-1.05-1.57-1.05-2.52s.37-1.85,1.05-2.52l1.24-1.23c.38-.38.45-1,.16-1.47-1.22-1.94-2.1-4.04-2.6-6.23-.12-.55-.59-.92-1.15-.92h-1.72c-1.97,0-3.57-1.6-3.57-3.56s1.6-3.57,3.57-3.57h1.72c.56,0,1.03-.37,1.15-.9.51-2.23,1.38-4.33,2.61-6.26.28-.45.21-1.08-.17-1.46l-1.23-1.23c-1.39-1.39-1.39-3.65,0-5.03.66-.65,1.58-1.03,2.53-1.03h0c.96,0,1.86.37,2.52,1.03l1.22,1.22c.23.23.53.35.84.35.22,0,.43-.06.62-.18,1.98-1.23,4.08-2.1,6.25-2.59.53-.12.92-.61.92-1.15v-1.74c0-1.96,1.6-3.56,3.56-3.56s3.57,1.6,3.57,3.56v1.74c0,.55.38,1.03.92,1.15,2.19.5,4.29,1.37,6.23,2.58.19.12.41.18.63.18.32,0,.62-.12.84-.35l1.24-1.23c.63-.65,1.55-1.03,2.51-1.03s1.88.38,2.53,1.05c.65.63,1.02,1.53,1.02,2.51s-.38,1.89-1.07,2.55l-1.21,1.21c-.38.38-.45,1-.15,1.46,1.22,1.95,2.09,4.05,2.59,6.25.12.53.6.91,1.15.91h1.74c1.96,0,3.56,1.6,3.56,3.57s-1.6,3.56-3.56,3.56h-1.74c-.54,0-1.03.39-1.15.93-.49,2.17-1.36,4.27-2.58,6.23-.3.47-.23,1.09.16,1.49l1.22,1.21c.68.68,1.04,1.57,1.04,2.54s-.37,1.85-1.04,2.52-1.57,1.05-2.52,1.05-1.84-.37-2.52-1.05l-1.23-1.23c-.22-.22-.52-.34-.84-.34-.23,0-.45.06-.64.18-1.91,1.22-4.02,2.09-6.23,2.6-.54.12-.91.59-.91,1.15v1.72c0,1.97-1.6,3.57-3.57,3.57Zm7.34-22.82c-.65,0-1.18.53-1.18,1.18,0,2.43-1.98,4.41-4.41,4.41-.65,0-1.18.53-1.18,1.18s.53,1.18,1.18,1.18c3.73,0,6.77-3.04,6.77-6.77,0-.66-.52-1.18-1.18-1.18Zm-18.99-6.71c-.65,0-1.18.53-1.18,1.18,0,3.73,3.04,6.77,6.77,6.77.65,0,1.18-.53,1.18-1.18s-.53-1.18-1.18-1.18c-2.43,0-4.41-1.98-4.41-4.41,0-.65-.53-1.18-1.18-1.18Zm12.29-7.81c-.66,0-1.18.52-1.18,1.18s.53,1.18,1.18,1.18c2.42,0,4.39,1.98,4.39,4.41,0,.65.53,1.18,1.18,1.18s1.18-.53,1.18-1.18c0-3.73-3.03-6.77-6.75-6.77Z"/>
      <path class="cls-1" d="m434.78,658.72c1.03,0,1.88.84,1.88,1.87v1.74c0,1.34.92,2.5,2.23,2.8,2.03.46,3.95,1.26,5.72,2.37.47.3,1,.44,1.52.44.74,0,1.48-.29,2.04-.85l1.23-1.22c.35-.36.84-.54,1.32-.54s.97.18,1.32.54c.36.35.54.82.54,1.32s-.19.98-.54,1.32l-1.23,1.23c-.93.95-1.11,2.43-.39,3.56,1.11,1.77,1.91,3.69,2.37,5.72.3,1.31,1.46,2.23,2.8,2.23h1.74c1.04,0,1.87.85,1.87,1.88s-.84,1.87-1.87,1.87h-1.74c-1.34,0-2.5.93-2.8,2.24-.46,2.03-1.26,3.94-2.37,5.72-.72,1.13-.54,2.61.39,3.56l1.23,1.22c.36.36.54.83.54,1.34s-.19.97-.54,1.32c-.37.37-.84.55-1.32.55s-.95-.18-1.32-.55l-1.23-1.23c-.55-.55-1.29-.84-2.03-.84-.53,0-1.06.14-1.53.43-1.77,1.12-3.69,1.92-5.72,2.38-1.31.29-2.23,1.45-2.23,2.8v1.72c0,1.03-.85,1.88-1.88,1.88s-1.87-.85-1.87-1.88v-1.72c0-1.35-.93-2.51-2.24-2.8-2.03-.46-3.94-1.26-5.72-2.38-.47-.29-1-.43-1.52-.43-.75,0-1.48.29-2.04.83l-1.22,1.23c-.37.37-.85.55-1.33.55s-.96-.18-1.33-.55c-.74-.74-.74-1.92,0-2.66l1.23-1.22c.95-.95,1.11-2.43.4-3.56-1.12-1.78-1.92-3.69-2.38-5.72-.29-1.31-1.45-2.24-2.8-2.24h-1.72c-1.03,0-1.88-.84-1.88-1.87s.85-1.88,1.88-1.88h1.72c1.35,0,2.51-.92,2.8-2.23.46-2.03,1.26-3.95,2.38-5.72.7-1.13.54-2.61-.4-3.56l-1.23-1.23c-.74-.73-.74-1.91,0-2.64.36-.35.84-.53,1.33-.53.48,0,.97.18,1.33.53l1.22,1.22c.56.56,1.29.85,2.04.85.53,0,1.05-.14,1.52-.44,1.78-1.11,3.69-1.91,5.72-2.37,1.31-.3,2.24-1.46,2.24-2.8v-1.74c0-1.04.84-1.87,1.87-1.87m6.22,22.82c1.59,0,2.87-1.29,2.87-2.87,0-4.67-3.79-8.46-8.44-8.46-1.59,0-2.87,1.28-2.87,2.87s1.28,2.87,2.87,2.87c1.49,0,2.7,1.22,2.7,2.72,0,1.58,1.29,2.87,2.87,2.87m-12.28,7.81c1.58,0,2.87-1.27,2.87-2.87s-1.29-2.87-2.87-2.87c-1.49,0-2.72-1.22-2.72-2.72,0-1.58-1.29-2.87-2.87-2.87s-2.87,1.29-2.87,2.87c0,4.67,3.79,8.46,8.46,8.46m7.81,6.71c4.67,0,8.46-3.79,8.46-8.46,0-1.59-1.28-2.87-2.87-2.87s-2.87,1.28-2.87,2.87c0,1.49-1.22,2.72-2.72,2.72-1.58,0-2.87,1.28-2.87,2.87s1.29,2.87,2.87,2.87m-1.75-40.73c-2.89,0-5.25,2.35-5.25,5.25v1.33c-2.08.51-4.11,1.35-6.03,2.5l-.94-.94c-.98-.98-2.3-1.52-3.72-1.52-1.39,0-2.75.55-3.72,1.51-1,1-1.55,2.32-1.55,3.72s.55,2.72,1.54,3.71l.95.95c-1.13,1.86-1.98,3.89-2.51,6.02h-1.32c-2.9,0-5.26,2.36-5.26,5.26s2.36,5.25,5.26,5.25h1.32c.52,2.12,1.37,4.13,2.51,6.03l-.94.93c-1,1-1.55,2.33-1.55,3.73s.55,2.73,1.54,3.72c.99.99,2.32,1.54,3.72,1.54s2.73-.55,3.72-1.54l.94-.95c1.89,1.15,3.92,1.99,6.03,2.51v1.32c0,2.9,2.35,5.26,5.25,5.26s5.26-2.36,5.26-5.26v-1.32c2.13-.53,4.15-1.37,6.02-2.51l.95.95c.99.99,2.31,1.54,3.71,1.54s2.72-.55,3.71-1.54c.99-.99,1.53-2.31,1.53-3.72s-.54-2.74-1.53-3.73l-.94-.94c1.15-1.92,1.98-3.94,2.5-6.03h1.33c2.89,0,5.25-2.35,5.25-5.25s-2.35-5.26-5.25-5.26h-1.34c-.52-2.11-1.36-4.13-2.5-6.03l.92-.92c1-.98,1.56-2.3,1.56-3.74s-.55-2.74-1.54-3.72c-.96-.97-2.31-1.52-3.71-1.52s-2.75.56-3.72,1.53l-.95.94c-1.9-1.14-3.91-1.97-6.02-2.49v-1.34c0-2.89-2.36-5.25-5.26-5.25h0Z"/>
    </g>
    <g>
      <path class="cls-2" d="m438.03,594.38c-1.82,0-3.29-1.48-3.29-3.3v-1.48c0-.36-.25-.67-.59-.75-1.92-.44-3.75-1.2-5.44-2.27-.11-.07-.26-.11-.4-.11-.22,0-.42.08-.57.24l-1.03,1.04c-.63.63-1.46.97-2.34.97s-1.71-.34-2.34-.97c-1.29-1.29-1.29-3.38,0-4.67l1.06-1.06c.25-.25.29-.65.1-.96-1.06-1.69-1.82-3.52-2.26-5.42-.08-.36-.39-.6-.75-.6h-1.48c-1.82,0-3.3-1.48-3.3-3.29s1.48-3.3,3.3-3.3h1.48c.37,0,.67-.24.75-.58.44-1.94,1.2-3.77,2.27-5.45.18-.29.14-.7-.11-.95l-1.06-1.06c-.62-.62-.97-1.45-.97-2.33s.34-1.7.97-2.33c.61-.61,1.46-.95,2.34-.95s1.72.34,2.33.95l1.05,1.05c.15.15.34.23.55.23.14,0,.28-.04.4-.12,1.72-1.07,3.55-1.82,5.43-2.25.35-.08.6-.4.6-.75v-1.49c0-1.82,1.48-3.29,3.29-3.29s3.3,1.48,3.3,3.29v1.49c0,.36.25.67.6.75,1.9.43,3.73,1.19,5.42,2.24.13.08.27.12.41.12.21,0,.41-.08.55-.23l1.06-1.05c.58-.6,1.44-.95,2.32-.95s1.74.35,2.34.97c.6.58.95,1.41.95,2.32s-.35,1.75-.99,2.36l-1.03,1.03c-.24.25-.29.65-.1.96,1.06,1.7,1.82,3.52,2.25,5.43.08.35.39.59.75.59h1.49c1.82,0,3.29,1.48,3.29,3.3s-1.48,3.29-3.29,3.29h-1.49c-.35,0-.67.26-.75.61-.43,1.89-1.18,3.71-2.24,5.41-.2.31-.15.72.1.98l1.04,1.03c.63.62.97,1.46.97,2.35s-.34,1.71-.96,2.33c-.62.62-1.45.97-2.33.97s-1.7-.34-2.33-.97l-1.06-1.06c-.14-.14-.34-.22-.55-.22-.15,0-.29.04-.42.12-1.66,1.06-3.49,1.82-5.42,2.26-.35.08-.59.39-.59.75v1.48c0,1.82-1.48,3.3-3.3,3.3Zm6.29-19.57c-.43,0-.77.35-.77.77,0,2.22-1.8,4.02-4.02,4.02-.43,0-.77.35-.77.77s.35.77.77.77c3.07,0,5.56-2.5,5.56-5.56,0-.43-.34-.77-.77-.77Zm-16.28-5.75c-.43,0-.77.35-.77.77,0,3.07,2.5,5.56,5.56,5.56.43,0,.77-.35.77-.77s-.35-.77-.77-.77c-2.22,0-4.02-1.8-4.02-4.02,0-.43-.35-.77-.77-.77Zm10.54-6.7c-.43,0-.77.34-.77.77s.35.77.77.77c2.21,0,4,1.8,4,4.02,0,.43.35.77.77.77s.77-.35.77-.77c0-3.07-2.49-5.56-5.55-5.56Z"/>
      <path class="cls-1" d="m438.03,550.81c.89,0,1.61.72,1.61,1.6v1.49c0,1.15.79,2.14,1.91,2.4,1.74.39,3.39,1.08,4.9,2.03.4.25.86.38,1.31.38.64,0,1.27-.25,1.75-.73l1.06-1.05c.3-.31.72-.46,1.13-.46s.83.15,1.13.46c.31.3.47.7.47,1.14s-.16.84-.47,1.14l-1.06,1.06c-.8.81-.95,2.08-.33,3.06.95,1.52,1.64,3.17,2.03,4.9.26,1.12,1.26,1.91,2.4,1.91h1.49c.89,0,1.6.73,1.6,1.61s-.72,1.6-1.6,1.6h-1.49c-1.15,0-2.14.8-2.4,1.92-.39,1.74-1.08,3.38-2.03,4.9-.62.97-.47,2.24.33,3.06l1.06,1.05c.31.31.47.71.47,1.15s-.16.83-.47,1.14-.72.47-1.13.47-.82-.16-1.13-.47l-1.06-1.06c-.48-.48-1.11-.72-1.74-.72-.45,0-.91.12-1.31.37-1.52.96-3.17,1.65-4.9,2.04-1.12.25-1.91,1.24-1.91,2.4v1.48c0,.89-.73,1.61-1.61,1.61s-1.6-.73-1.6-1.61v-1.48c0-1.15-.8-2.16-1.92-2.4-1.74-.39-3.38-1.08-4.9-2.04-.4-.25-.86-.37-1.3-.37-.64,0-1.27.25-1.75.71l-1.05,1.06c-.32.32-.73.47-1.14.47s-.83-.16-1.14-.47c-.63-.63-.63-1.65,0-2.28l1.06-1.05c.81-.81.95-2.08.35-3.06-.96-1.53-1.65-3.17-2.04-4.9-.25-1.12-1.24-1.92-2.4-1.92h-1.48c-.89,0-1.61-.72-1.61-1.6s.73-1.61,1.61-1.61h1.48c1.15,0,2.16-.79,2.4-1.91.39-1.74,1.08-3.39,2.04-4.9.6-.97.47-2.24-.35-3.06l-1.06-1.06c-.63-.63-.63-1.64,0-2.27.3-.3.72-.46,1.14-.46.41,0,.83.15,1.14.46l1.05,1.05c.48.48,1.11.73,1.75.73.45,0,.9-.12,1.31-.38,1.53-.95,3.17-1.64,4.9-2.03,1.12-.26,1.92-1.26,1.92-2.4v-1.49c0-.89.72-1.6,1.6-1.6m5.33,19.57c1.37,0,2.46-1.11,2.46-2.46,0-4-3.25-7.26-7.24-7.26-1.37,0-2.46,1.1-2.46,2.46s1.1,2.46,2.46,2.46c1.28,0,2.31,1.05,2.31,2.33,0,1.36,1.11,2.46,2.46,2.46m-10.53,6.7c1.35,0,2.46-1.09,2.46-2.46s-1.11-2.46-2.46-2.46c-1.28,0-2.33-1.05-2.33-2.33,0-1.36-1.11-2.46-2.46-2.46s-2.46,1.11-2.46,2.46c0,4,3.25,7.26,7.26,7.26m6.7,5.75c4,0,7.26-3.25,7.26-7.26,0-1.37-1.1-2.46-2.46-2.46s-2.46,1.1-2.46,2.46c0,1.28-1.05,2.33-2.33,2.33-1.36,0-2.46,1.1-2.46,2.46s1.11,2.46,2.46,2.46m-1.5-35.4c-2.75,0-4.98,2.24-4.98,4.98v.77c-1.59.43-3.13,1.07-4.61,1.91l-.55-.55c-.93-.93-2.19-1.45-3.53-1.45-1.32,0-2.6.52-3.53,1.44-1.95,1.95-1.95,5.11,0,7.06l.55.55c-.84,1.44-1.48,2.98-1.92,4.6h-.76c-2.75,0-4.99,2.24-4.99,4.99s2.24,4.98,4.99,4.98h.76c.43,1.61,1.08,3.15,1.92,4.61l-.54.54c-.95.95-1.47,2.21-1.47,3.54s.52,2.59,1.46,3.53c.94.94,2.2,1.46,3.53,1.46s2.59-.52,3.53-1.46l.54-.55c1.46.85,3.01,1.49,4.61,1.92v.76c0,2.75,2.24,4.99,4.98,4.99s4.99-2.24,4.99-4.99v-.76c1.62-.44,3.16-1.08,4.6-1.92l.55.55c.94.94,2.2,1.46,3.52,1.46s2.58-.52,3.52-1.46c.94-.94,1.46-2.19,1.46-3.53s-.52-2.6-1.46-3.54l-.54-.54c.85-1.48,1.49-3.02,1.91-4.61h.77c2.75,0,4.98-2.24,4.98-4.98s-2.24-4.99-4.98-4.99h-.77c-.43-1.6-1.07-3.15-1.91-4.61l.52-.52c.95-.93,1.48-2.19,1.48-3.55s-.52-2.6-1.46-3.53c-.92-.92-2.2-1.45-3.52-1.45s-2.61.53-3.53,1.45l-.55.54c-1.46-.84-3-1.48-4.6-1.91v-.77c0-2.75-2.24-4.98-4.99-4.98h0Z"/>
    </g>
    <g>
      <path class="cls-2" d="m190.14,474.97c-1.98,0-3.58-1.61-3.58-3.6v-1.75c0-.57-.4-1.07-.94-1.19-2.24-.51-4.37-1.4-6.34-2.64-.18-.11-.42-.18-.64-.18-.33,0-.65.13-.89.36l-1.22,1.23c-.69.69-1.59,1.06-2.55,1.06s-1.86-.37-2.54-1.05c-.68-.68-1.05-1.58-1.05-2.54s.37-1.86,1.05-2.54l1.26-1.25c.39-.39.46-1.04.16-1.52-1.24-1.97-2.13-4.1-2.63-6.31-.12-.57-.61-.95-1.19-.95h-1.75c-1.98,0-3.6-1.61-3.6-3.58s1.61-3.6,3.6-3.6h1.75c.58,0,1.07-.38,1.19-.93.51-2.26,1.4-4.39,2.64-6.34.29-.47.22-1.11-.18-1.51l-1.25-1.25c-.68-.68-1.05-1.58-1.05-2.54s.37-1.86,1.05-2.54c.66-.66,1.59-1.04,2.55-1.04s1.87.37,2.54,1.03l1.24,1.24c.23.23.54.36.87.36.23,0,.45-.06.64-.19,2.01-1.24,4.13-2.12,6.33-2.62.55-.13.95-.63.95-1.19v-1.76c0-1.98,1.61-3.58,3.58-3.58s3.6,1.61,3.6,3.58v1.76c0,.57.39,1.06.95,1.19,2.22.5,4.35,1.38,6.31,2.61.2.13.42.19.65.19.33,0,.64-.13.87-.36l1.26-1.25c.64-.65,1.56-1.04,2.53-1.04s1.89.38,2.55,1.06c.65.63,1.03,1.54,1.03,2.52s-.38,1.91-1.08,2.57l-1.22,1.22c-.39.4-.46,1.04-.16,1.51,1.23,1.98,2.12,4.1,2.62,6.33.13.55.62.94,1.19.94h1.76c1.98,0,3.58,1.61,3.58,3.6s-1.61,3.59-3.58,3.59h-1.76c-.56,0-1.06.4-1.19.96-.5,2.2-1.38,4.32-2.61,6.31-.31.49-.24,1.13.16,1.54l1.24,1.22c.68.68,1.05,1.58,1.05,2.55s-.37,1.86-1.05,2.54c-.68.68-1.58,1.05-2.54,1.05s-1.85-.37-2.54-1.05l-1.25-1.25c-.23-.23-.54-.35-.87-.35-.23,0-.46.06-.66.19-1.94,1.23-4.07,2.12-6.31,2.63-.56.12-.94.61-.94,1.19v1.75c0,1.98-1.61,3.6-3.6,3.6Zm7.44-23.14c-.67,0-1.22.55-1.22,1.22,0,2.45-1.99,4.44-4.44,4.44-.67,0-1.22.55-1.22,1.22s.55,1.22,1.22,1.22c3.8,0,6.89-3.09,6.89-6.89,0-.69-.54-1.22-1.22-1.22Zm-19.25-6.8c-.67,0-1.22.55-1.22,1.22,0,3.8,3.09,6.89,6.89,6.89.67,0,1.22-.55,1.22-1.22s-.55-1.22-1.22-1.22c-2.45,0-4.44-1.99-4.44-4.44,0-.67-.55-1.22-1.22-1.22Zm12.47-7.92c-.69,0-1.22.54-1.22,1.22s.55,1.22,1.22,1.22c2.44,0,4.43,1.99,4.43,4.44,0,.67.55,1.22,1.22,1.22s1.22-.55,1.22-1.22c0-3.8-3.08-6.89-6.87-6.89Z"/>
      <path class="cls-1" d="m190.14,423.76c1.05,0,1.91.85,1.91,1.89v1.76c0,1.35.93,2.53,2.26,2.84,2.05.47,4.01,1.28,5.8,2.4.48.3,1.01.45,1.54.45.76,0,1.5-.29,2.07-.86l1.25-1.24c.36-.36.85-.55,1.34-.55s.98.18,1.34.55c.36.35.55.83.55,1.34s-.19,1-.55,1.34l-1.25,1.25c-.94.96-1.12,2.46-.39,3.61,1.12,1.79,1.93,3.74,2.4,5.8.31,1.33,1.48,2.26,2.84,2.26h1.76c1.05,0,1.89.86,1.89,1.91s-.85,1.89-1.89,1.89h-1.76c-1.35,0-2.53.94-2.84,2.27-.47,2.05-1.28,3.99-2.4,5.8-.73,1.15-.55,2.65.39,3.61l1.25,1.24c.36.36.55.84.55,1.35s-.19.98-.55,1.34c-.37.37-.86.56-1.34.56s-.97-.19-1.34-.56l-1.25-1.25c-.56-.56-1.31-.85-2.06-.85-.53,0-1.07.15-1.55.44-1.79,1.14-3.74,1.95-5.8,2.42-1.33.29-2.26,1.47-2.26,2.84v1.75c0,1.05-.86,1.91-1.91,1.91s-1.89-.86-1.89-1.91v-1.75c0-1.37-.94-2.55-2.27-2.84-2.05-.47-3.99-1.28-5.8-2.42-.48-.29-1.02-.44-1.54-.44-.76,0-1.5.29-2.07.84l-1.24,1.25c-.37.37-.86.56-1.35.56s-.98-.19-1.35-.56c-.75-.75-.75-1.95,0-2.7l1.25-1.24c.96-.96,1.12-2.46.41-3.61-1.14-1.81-1.95-3.74-2.42-5.8-.29-1.33-1.47-2.27-2.84-2.27h-1.75c-1.05,0-1.91-.85-1.91-1.89s.86-1.91,1.91-1.91h1.75c1.37,0,2.55-.93,2.84-2.26.47-2.05,1.28-4.01,2.42-5.8.71-1.15.55-2.65-.41-3.61l-1.25-1.25c-.75-.75-.75-1.93,0-2.68.36-.36.86-.54,1.35-.54s.98.18,1.34.54l1.24,1.24c.56.56,1.31.86,2.07.86.53,0,1.07-.15,1.54-.45,1.81-1.12,3.74-1.93,5.8-2.4,1.33-.31,2.27-1.48,2.27-2.84v-1.76c0-1.05.85-1.89,1.89-1.89m6.3,23.15c1.62,0,2.91-1.31,2.91-2.91,0-4.73-3.85-8.58-8.56-8.58-1.62,0-2.91,1.3-2.91,2.91s1.3,2.91,2.91,2.91c1.51,0,2.74,1.24,2.74,2.75,0,1.6,1.31,2.91,2.91,2.91m-12.45,7.92c1.6,0,2.91-1.29,2.91-2.91s-1.31-2.91-2.91-2.91c-1.51,0-2.75-1.24-2.75-2.75,0-1.6-1.31-2.91-2.91-2.91s-2.91,1.31-2.91,2.91c0,4.73,3.85,8.58,8.58,8.58m7.92,6.8c4.73,0,8.58-3.85,8.58-8.58,0-1.62-1.3-2.91-2.91-2.91s-2.91,1.3-2.91,2.91c0,1.51-1.24,2.75-2.75,2.75-1.6,0-2.91,1.3-2.91,2.91s1.31,2.91,2.91,2.91m-1.77-41.25c-2.91,0-5.28,2.37-5.28,5.28v1.39c-2.13.52-4.21,1.38-6.17,2.55l-.98-.98c-.99-.99-2.31-1.53-3.73-1.53s-2.76.55-3.73,1.52c-1.01,1.01-1.56,2.33-1.56,3.74s.55,2.73,1.55,3.73l.99.99c-1.16,1.9-2.03,3.97-2.57,6.16h-1.38c-2.92,0-5.29,2.37-5.29,5.29s2.37,5.28,5.29,5.28h1.37c.53,2.17,1.4,4.23,2.57,6.17l-.98.97c-1.01,1.01-1.56,2.34-1.56,3.75s.55,2.74,1.55,3.74c1,1,2.33,1.55,3.74,1.55s2.74-.55,3.74-1.55l.98-.99c1.94,1.18,4.01,2.04,6.17,2.57v1.37c0,2.92,2.37,5.29,5.28,5.29s5.29-2.37,5.29-5.29v-1.38c2.18-.54,4.24-1.4,6.16-2.57l.99.99c1,1,2.32,1.55,3.73,1.55s2.73-.55,3.73-1.55c.99-.99,1.54-2.32,1.54-3.73s-.55-2.75-1.54-3.75l-.98-.97c1.18-1.96,2.03-4.03,2.56-6.17h1.39c2.91,0,5.28-2.37,5.28-5.28s-2.37-5.29-5.28-5.29h-1.39c-.53-2.16-1.39-4.23-2.56-6.17l.96-.96c1.01-.98,1.56-2.31,1.56-3.75s-.55-2.76-1.55-3.74c-.97-.97-2.32-1.53-3.73-1.53s-2.76.56-3.73,1.54l-.99.98c-1.94-1.17-4-2.02-6.16-2.55v-1.39c0-2.91-2.37-5.28-5.29-5.28h0Z"/>
    </g>
    <g>
      <path class="cls-2" d="m82.07,738.27c-1.79,0-3.27-1.35-3.44-3.14l-.08-.79c-1.36-.21-2.68-.62-3.94-1.22l-.5.61c-.67.81-1.64,1.27-2.68,1.27-.8,0-1.59-.28-2.21-.79-.71-.59-1.16-1.42-1.24-2.34-.09-.92.19-1.82.78-2.54l.52-.62c-.83-1.12-1.48-2.34-1.94-3.63l-.79.08c-.11.01-.22.02-.33.02-1.79,0-3.28-1.35-3.45-3.13-.18-1.9,1.22-3.6,3.12-3.78l.79-.08c.21-1.37.62-2.68,1.21-3.93l-.62-.52c-1.47-1.21-1.68-3.4-.47-4.87.66-.8,1.64-1.25,2.69-1.25.81,0,1.58.28,2.2.78l.62.51c1.14-.83,2.36-1.48,3.63-1.93l-.08-.8c-.18-1.9,1.22-3.59,3.11-3.77.11-.01.22-.02.33-.02,1.79,0,3.28,1.35,3.45,3.13l.08.8c1.35.21,2.67.61,3.93,1.21l.52-.63c.63-.78,1.61-1.24,2.67-1.24.82,0,1.6.28,2.22.8.68.54,1.13,1.38,1.22,2.33.09.95-.2,1.86-.81,2.57l-.48.58c.83,1.13,1.47,2.34,1.93,3.63l.8-.08c.11-.01.22-.02.33-.02,1.79,0,3.27,1.35,3.44,3.14.18,1.9-1.22,3.59-3.11,3.77l-.8.08c-.2,1.34-.61,2.67-1.21,3.94l.61.5c.72.59,1.16,1.43,1.25,2.36.09.92-.19,1.82-.77,2.53-.66.8-1.63,1.26-2.67,1.26-.8,0-1.58-.28-2.2-.79l-.62-.52c-1.1.82-2.32,1.47-3.63,1.94l.08.79c.09.92-.19,1.82-.78,2.53-.59.72-1.42,1.16-2.34,1.25-.11.01-.22.02-.33.02Z"/>
      <path class="cls-1" d="m79.31,704.65c.61,0,1.15.47,1.2,1.09l.11,1.12c.08.86.74,1.55,1.6,1.66,1.33.17,2.61.57,3.82,1.17.26.13.55.2.83.2.54,0,1.07-.24,1.43-.68l.72-.86c.23-.28.58-.43.94-.43.27,0,.55.09.76.27.25.2.4.49.43.82.03.32-.06.64-.27.88l-.72.87c-.54.67-.56,1.63-.03,2.31.82,1.07,1.45,2.25,1.87,3.52.26.76.97,1.27,1.76,1.27.06,0,.12,0,.18,0l1.12-.11s.08,0,.12,0c.62,0,1.14.47,1.2,1.1.06.67-.42,1.25-1.08,1.31l-1.12.11c-.86.08-1.55.75-1.66,1.61-.17,1.33-.57,2.61-1.17,3.82-.39.77-.19,1.71.47,2.26l.87.71c.25.21.4.5.43.82.03.32-.06.63-.27.88-.24.29-.58.44-.93.44-.27,0-.54-.09-.77-.28l-.87-.72c-.34-.28-.76-.42-1.18-.42s-.8.13-1.13.38c-1.07.83-2.25,1.46-3.52,1.88-.82.26-1.34,1.07-1.26,1.93l.11,1.11c.06.66-.43,1.26-1.09,1.32-.04,0-.08,0-.12,0-.62,0-1.14-.47-1.2-1.1l-.11-1.11c-.08-.86-.75-1.56-1.61-1.66-1.33-.17-2.61-.57-3.82-1.18-.27-.13-.55-.19-.83-.19-.06,0-.11,0-.17,0-.48.05-.93.27-1.26.66l-.71.87c-.24.29-.59.44-.94.44-.27,0-.55-.09-.77-.28-.52-.43-.59-1.19-.16-1.71l.72-.86c.55-.67.56-1.63.04-2.31-.83-1.08-1.46-2.25-1.88-3.52-.25-.76-.96-1.27-1.75-1.27-.06,0-.12,0-.18,0l-1.11.11s-.08,0-.12,0c-.61,0-1.15-.47-1.21-1.09-.06-.66.43-1.26,1.09-1.32l1.11-.11c.86-.08,1.56-.74,1.66-1.6.17-1.33.57-2.61,1.18-3.82.38-.77.19-1.71-.48-2.26l-.87-.72c-.52-.43-.59-1.18-.16-1.7.23-.28.59-.43.95-.43.27,0,.54.09.76.27l.86.71c.34.28.76.43,1.18.43.4,0,.79-.13,1.13-.39,1.08-.82,2.25-1.45,3.53-1.87.82-.27,1.35-1.08,1.27-1.93l-.11-1.12c-.06-.67.42-1.25,1.08-1.31.04,0,.08,0,.12,0m1.18,11.04c.06,0,.12,0,.18,0,.06,0,.11,0,.17,0,.89,0,1.65.68,1.73,1.59.09.96.9,1.68,1.84,1.68.06,0,.12,0,.18,0,1.02-.1,1.77-1,1.67-2.02-.27-2.82-2.65-4.94-5.42-4.94-.17,0-.35,0-.52.02-1.02.1-1.77,1-1.67,2.02.09.96.89,1.68,1.84,1.68m-3.83,9.03c.17,0,.35,0,.52-.03,1.01-.1,1.77-.99,1.67-2.02-.09-.96-.9-1.68-1.84-1.68-.06,0-.12,0-.18,0-.06,0-.11,0-.17,0-.89,0-1.66-.68-1.74-1.58-.09-.96-.9-1.68-1.84-1.68-.06,0-.12,0-.18,0-1.02.1-1.77,1-1.67,2.02.27,2.82,2.65,4.94,5.43,4.94m5.77,3.81c.06,0,.12,0,.18,0,3-.29,5.2-2.95,4.91-5.95-.09-.96-.89-1.68-1.84-1.68-.06,0-.12,0-.18,0-1.02.1-1.77,1-1.67,2.02.09.96-.62,1.82-1.58,1.91-1.02.1-1.77,1-1.67,2.02.09.96.9,1.68,1.84,1.68m-3.12-28.39h0c-.18,0-.36,0-.55.03-1.52.14-2.89.87-3.86,2.04-.78.95-1.23,2.1-1.3,3.31-.41.2-.81.41-1.2.64-.87-.52-1.88-.79-2.91-.79-1.72,0-3.32.75-4.41,2.05-.98,1.19-1.44,2.68-1.3,4.2.12,1.22.61,2.35,1.42,3.25-.15.43-.29.86-.4,1.3-2.68.69-4.55,3.25-4.27,6.09.27,2.83,2.54,5,5.35,5.16.2.41.41.81.64,1.2-1.42,2.39-.92,5.52,1.27,7.33,1.02.84,2.32,1.31,3.64,1.31,1.42,0,2.76-.52,3.8-1.44.43.15.86.29,1.3.4.63,2.5,2.88,4.3,5.54,4.3.18,0,.36,0,.54-.03,1.52-.15,2.89-.87,3.87-2.05.78-.95,1.23-2.09,1.3-3.3.41-.2.81-.41,1.2-.64.88.52,1.89.8,2.92.8,1.71,0,3.31-.76,4.41-2.08.97-1.18,1.42-2.66,1.28-4.18-.12-1.23-.61-2.36-1.41-3.26.15-.43.29-.86.4-1.3,1.17-.29,2.21-.95,2.99-1.9.97-1.18,1.43-2.66,1.28-4.19-.27-2.84-2.54-5.01-5.35-5.17-.2-.41-.41-.81-.64-1.2.61-1.03.89-2.24.77-3.46-.15-1.54-.88-2.91-2.06-3.87-1.01-.84-2.3-1.29-3.62-1.3-1.43,0-2.77.52-3.81,1.44-.43-.15-.86-.28-1.29-.4-.63-2.51-2.88-4.3-5.54-4.3h0Z"/>
    </g>
    <g>
      <path class="cls-2" d="m71.45,597.47c-1.95,0-3.54-1.59-3.54-3.55v-1.7c0-.54-.37-1-.89-1.12-2.19-.5-4.27-1.36-6.19-2.58-.17-.1-.39-.17-.6-.17-.31,0-.61.12-.84.34l-1.19,1.2c-.68.68-1.57,1.05-2.52,1.05s-1.84-.37-2.51-1.04c-1.38-1.38-1.38-3.64,0-5.02l1.23-1.22c.37-.37.44-.97.15-1.43-1.21-1.93-2.08-4.01-2.57-6.17-.12-.53-.58-.9-1.12-.9h-1.7c-1.96,0-3.55-1.59-3.55-3.54s1.59-3.55,3.55-3.55h1.7c.54,0,1-.36,1.12-.87.5-2.21,1.37-4.29,2.58-6.2.27-.44.21-1.05-.17-1.42l-1.22-1.22c-1.38-1.38-1.38-3.62,0-5,.66-.65,1.57-1.02,2.52-1.02s1.85.36,2.51,1.02l1.21,1.21c.22.22.51.34.82.34.21,0,.42-.06.6-.17,1.96-1.22,4.04-2.07,6.18-2.56.52-.12.9-.59.9-1.12v-1.72c0-1.95,1.59-3.54,3.54-3.54s3.55,1.59,3.55,3.54v1.72c0,.54.37,1,.89,1.12,2.17.49,4.25,1.35,6.17,2.55.19.12.4.18.61.18.31,0,.6-.12.82-.34l1.23-1.22c.63-.64,1.54-1.02,2.5-1.02s1.87.38,2.52,1.04c.65.63,1.02,1.52,1.02,2.49s-.38,1.88-1.06,2.53l-1.19,1.19c-.37.37-.43.98-.15,1.42,1.21,1.93,2.07,4.01,2.56,6.19.12.52.58.89,1.12.89h1.72c1.95,0,3.54,1.59,3.54,3.55s-1.59,3.54-3.54,3.54h-1.72c-.53,0-1,.38-1.12.9-.49,2.15-1.35,4.23-2.55,6.16-.29.46-.22,1.06.15,1.45l1.21,1.19c.67.67,1.04,1.57,1.04,2.52s-.37,1.84-1.03,2.5c-.67.67-1.56,1.04-2.5,1.04s-1.83-.37-2.5-1.04l-1.22-1.22c-.22-.22-.51-.33-.82-.33-.22,0-.44.06-.62.18-1.9,1.2-3.98,2.07-6.17,2.57-.53.12-.89.58-.89,1.12v1.7c0,1.96-1.59,3.55-3.55,3.55Zm7.26-22.57c-.63,0-1.15.52-1.15,1.15,0,2.41-1.96,4.38-4.38,4.38-.63,0-1.15.52-1.15,1.15s.52,1.15,1.15,1.15c3.68,0,6.68-3,6.68-6.68,0-.65-.5-1.15-1.15-1.15Zm-18.78-6.64c-.63,0-1.15.52-1.15,1.15,0,3.68,2.99,6.68,6.68,6.68.63,0,1.15-.52,1.15-1.15s-.52-1.15-1.15-1.15c-2.41,0-4.38-1.96-4.38-4.38,0-.63-.52-1.15-1.15-1.15Zm12.16-7.72c-.65,0-1.15.51-1.15,1.15s.52,1.15,1.15,1.15c2.4,0,4.36,1.96,4.36,4.38,0,.63.52,1.15,1.15,1.15s1.15-.52,1.15-1.15c0-3.68-2.99-6.68-6.66-6.68Z"/>
      <path class="cls-1" d="m71.45,547.49c1.02,0,1.86.83,1.86,1.85v1.72c0,1.32.91,2.47,2.2,2.77,2,.46,3.91,1.25,5.65,2.34.46.29.99.44,1.51.44.74,0,1.47-.29,2.02-.84l1.22-1.21c.35-.35.83-.53,1.31-.53s.96.18,1.31.53c.36.34.54.81.54,1.31s-.18.97-.54,1.31l-1.22,1.22c-.92.94-1.09,2.4-.38,3.52,1.09,1.75,1.89,3.65,2.34,5.65.3,1.29,1.45,2.2,2.77,2.2h1.72c1.03,0,1.85.84,1.85,1.86s-.83,1.85-1.85,1.85h-1.72c-1.32,0-2.47.92-2.77,2.21-.46,2-1.25,3.9-2.34,5.65-.71,1.12-.54,2.59.38,3.52l1.22,1.21c.36.36.54.82.54,1.32s-.18.95-.54,1.31c-.36.36-.83.55-1.31.55s-.94-.18-1.31-.55l-1.22-1.22c-.55-.55-1.28-.83-2.01-.83-.52,0-1.05.14-1.51.43-1.75,1.11-3.65,1.9-5.65,2.36-1.29.28-2.2,1.43-2.2,2.77v1.7c0,1.02-.84,1.86-1.86,1.86s-1.85-.84-1.85-1.86v-1.7c0-1.33-.92-2.49-2.21-2.77-2-.46-3.9-1.25-5.65-2.36-.47-.28-.99-.43-1.5-.43-.74,0-1.46.28-2.02.82l-1.21,1.22c-.36.36-.84.55-1.31.55s-.95-.18-1.31-.55c-.73-.73-.73-1.9,0-2.63l1.22-1.21c.94-.94,1.09-2.4.4-3.52-1.11-1.76-1.9-3.65-2.36-5.65-.28-1.29-1.43-2.21-2.77-2.21h-1.7c-1.02,0-1.86-.83-1.86-1.85s.84-1.86,1.86-1.86h1.7c1.33,0,2.49-.91,2.77-2.2.46-2,1.25-3.91,2.36-5.65.69-1.12.54-2.59-.4-3.52l-1.22-1.22c-.73-.73-.73-1.89,0-2.61.35-.35.83-.53,1.32-.53s.96.17,1.31.53l1.21,1.21c.55.55,1.28.84,2.02.84.52,0,1.04-.14,1.51-.44,1.76-1.09,3.65-1.89,5.65-2.34,1.29-.3,2.21-1.45,2.21-2.77v-1.72c0-1.03.83-1.85,1.85-1.85m6.15,22.57c1.58,0,2.84-1.28,2.84-2.84,0-4.62-3.75-8.37-8.35-8.37-1.58,0-2.84,1.26-2.84,2.84s1.26,2.84,2.84,2.84c1.48,0,2.67,1.21,2.67,2.69,0,1.56,1.28,2.84,2.84,2.84m-12.14,7.72c1.56,0,2.84-1.26,2.84-2.84s-1.28-2.84-2.84-2.84c-1.48,0-2.69-1.21-2.69-2.69,0-1.56-1.28-2.84-2.84-2.84s-2.84,1.28-2.84,2.84c0,4.62,3.75,8.37,8.37,8.37m7.72,6.64c4.62,0,8.37-3.75,8.37-8.37,0-1.58-1.27-2.84-2.84-2.84s-2.84,1.27-2.84,2.84c0,1.48-1.21,2.69-2.69,2.69-1.56,0-2.84,1.27-2.84,2.84s1.28,2.84,2.84,2.84m-1.73-40.31c-2.88,0-5.23,2.35-5.23,5.23v1.29c-2.05.51-4.03,1.33-5.92,2.45l-.91-.91c-.98-.98-2.29-1.52-3.7-1.52-1.39,0-2.74.55-3.7,1.51-2.05,2.05-2.05,5.37,0,7.4l.92.92c-1.11,1.83-1.94,3.82-2.46,5.91h-1.28c-2.89,0-5.24,2.35-5.24,5.24s2.35,5.23,5.24,5.23h1.27c.52,2.08,1.34,4.06,2.47,5.92l-.91.9c-2.05,2.05-2.05,5.38-.01,7.42.99.99,2.31,1.54,3.71,1.54s2.72-.55,3.71-1.54l.91-.92c1.86,1.12,3.85,1.95,5.92,2.47v1.27c0,2.89,2.35,5.24,5.23,5.24s5.24-2.35,5.24-5.24v-1.28c2.09-.52,4.07-1.35,5.91-2.46l.92.92c.99.99,2.3,1.54,3.7,1.54s2.71-.55,3.7-1.54c.99-.99,1.53-2.3,1.53-3.7s-.54-2.73-1.53-3.71l-.91-.9c1.12-1.89,1.95-3.87,2.46-5.92h1.29c2.88,0,5.23-2.35,5.23-5.23s-2.35-5.24-5.23-5.24h-1.29c-.51-2.07-1.34-4.06-2.45-5.92l.89-.89c1-.97,1.55-2.29,1.55-3.72s-.54-2.73-1.53-3.71c-.96-.96-2.3-1.52-3.69-1.52s-2.74.56-3.7,1.53l-.92.91c-1.86-1.12-3.84-1.94-5.91-2.45v-1.29c0-2.88-2.35-5.23-5.24-5.23h0Z"/>
    </g>
    <g>
      <path class="cls-2" d="m254.24,554.85c-1.96,0-3.56-1.6-3.56-3.57v-1.73c0-.55-.38-1.04-.91-1.15-2.21-.5-4.32-1.38-6.27-2.61-.17-.11-.4-.17-.62-.17-.32,0-.63.13-.87.35l-1.2,1.21c-.68.68-1.58,1.05-2.53,1.05s-1.85-.37-2.53-1.05c-1.39-1.39-1.39-3.66,0-5.06l1.24-1.23c.38-.38.45-1.01.16-1.48-1.23-1.95-2.1-4.05-2.6-6.24-.12-.55-.6-.93-1.16-.93h-1.73c-1.97,0-3.57-1.6-3.57-3.56s1.6-3.57,3.57-3.57h1.73c.56,0,1.04-.37,1.15-.9.51-2.23,1.39-4.34,2.61-6.27.28-.46.21-1.08-.17-1.47l-1.24-1.24c-.68-.68-1.05-1.57-1.05-2.52s.37-1.84,1.05-2.52c.66-.66,1.58-1.03,2.53-1.03s1.86.37,2.52,1.03l1.23,1.23c.23.23.53.35.85.35.22,0,.44-.06.62-.18,1.99-1.23,4.09-2.1,6.26-2.59.53-.12.93-.61.93-1.16v-1.74c0-1.96,1.6-3.56,3.56-3.56s3.57,1.6,3.57,3.56v1.74c0,.56.38,1.03.92,1.16,2.19.5,4.3,1.37,6.24,2.59.19.12.41.19.63.19.32,0,.62-.12.85-.35l1.24-1.23c.63-.65,1.55-1.03,2.51-1.03s1.88.38,2.53,1.05c.65.63,1.03,1.53,1.03,2.51s-.38,1.89-1.07,2.55l-1.21,1.21c-.38.39-.45,1.01-.16,1.47,1.22,1.96,2.09,4.06,2.59,6.26.12.54.6.92,1.16.92h1.74c1.96,0,3.56,1.6,3.56,3.57s-1.6,3.56-3.56,3.56h-1.74c-.55,0-1.03.39-1.16.93-.49,2.18-1.36,4.28-2.58,6.24-.3.47-.23,1.1.16,1.49l1.22,1.21c.68.67,1.05,1.58,1.05,2.54s-.37,1.85-1.04,2.52c-.67.67-1.57,1.05-2.52,1.05s-1.84-.37-2.52-1.05l-1.24-1.24c-.22-.22-.52-.35-.84-.35-.23,0-.45.06-.64.18-1.92,1.22-4.02,2.1-6.24,2.6-.54.12-.92.59-.92,1.16v1.73c0,1.97-1.6,3.57-3.57,3.57Zm7.35-22.87c-.65,0-1.19.53-1.19,1.19,0,2.43-1.98,4.41-4.41,4.41-.65,0-1.19.53-1.19,1.19s.53,1.19,1.19,1.19c3.74,0,6.79-3.04,6.79-6.79,0-.67-.52-1.19-1.19-1.19Zm-19.02-6.72c-.65,0-1.19.53-1.19,1.19,0,3.74,3.04,6.79,6.79,6.79.65,0,1.19-.53,1.19-1.19s-.53-1.19-1.19-1.19c-2.43,0-4.41-1.98-4.41-4.41,0-.65-.53-1.19-1.19-1.19Zm12.32-7.82c-.67,0-1.19.52-1.19,1.19s.53,1.19,1.19,1.19c2.42,0,4.39,1.98,4.39,4.41,0,.65.53,1.19,1.19,1.19s1.19-.53,1.19-1.19c0-3.74-3.04-6.79-6.77-6.79Z"/>
      <path class="cls-1" d="m254.24,504.23c1.03,0,1.88.84,1.88,1.87v1.74c0,1.34.92,2.5,2.23,2.8,2.03.46,3.96,1.26,5.73,2.37.47.3,1,.44,1.53.44.75,0,1.49-.29,2.04-.85l1.24-1.23c.35-.36.84-.54,1.32-.54s.97.18,1.32.54c.36.35.55.82.55,1.33s-.19.98-.55,1.33l-1.24,1.24c-.93.95-1.11,2.43-.39,3.57,1.11,1.77,1.91,3.7,2.37,5.73.3,1.31,1.47,2.23,2.8,2.23h1.74c1.04,0,1.87.85,1.87,1.88s-.84,1.87-1.87,1.87h-1.74c-1.34,0-2.5.93-2.8,2.24-.46,2.03-1.26,3.95-2.37,5.73-.72,1.14-.55,2.62.39,3.57l1.24,1.23c.36.36.55.83.55,1.34s-.19.97-.55,1.33c-.37.37-.85.55-1.32.55s-.96-.18-1.32-.55l-1.24-1.24c-.56-.56-1.29-.84-2.04-.84-.53,0-1.06.14-1.53.44-1.77,1.12-3.7,1.93-5.73,2.39-1.31.29-2.23,1.45-2.23,2.8v1.73c0,1.03-.85,1.88-1.88,1.88s-1.87-.85-1.87-1.88v-1.73c0-1.35-.93-2.52-2.24-2.8-2.03-.46-3.95-1.26-5.73-2.39-.47-.29-1.01-.43-1.52-.43-.75,0-1.48.29-2.05.83l-1.23,1.24c-.37.37-.85.55-1.33.55s-.96-.18-1.33-.55c-.74-.74-.74-1.93,0-2.66l1.24-1.23c.95-.95,1.11-2.43.4-3.57-1.12-1.79-1.93-3.7-2.39-5.73-.29-1.31-1.45-2.24-2.8-2.24h-1.73c-1.03,0-1.88-.84-1.88-1.87s.85-1.88,1.88-1.88h1.73c1.35,0,2.52-.92,2.8-2.23.46-2.03,1.26-3.96,2.39-5.73.7-1.14.55-2.62-.4-3.57l-1.24-1.24c-.74-.74-.74-1.91,0-2.65.36-.35.85-.53,1.34-.53.48,0,.97.18,1.33.53l1.23,1.23c.56.56,1.3.85,2.04.85.53,0,1.06-.14,1.53-.44,1.79-1.11,3.7-1.91,5.73-2.37,1.31-.3,2.24-1.47,2.24-2.8v-1.74c0-1.04.84-1.87,1.87-1.87m6.23,22.87c1.6,0,2.88-1.29,2.88-2.88,0-4.68-3.8-8.48-8.46-8.48-1.6,0-2.88,1.28-2.88,2.88s1.28,2.88,2.88,2.88c1.5,0,2.7,1.23,2.7,2.72,0,1.59,1.29,2.88,2.88,2.88m-12.3,7.82c1.58,0,2.88-1.28,2.88-2.88s-1.29-2.88-2.88-2.88c-1.5,0-2.72-1.23-2.72-2.72,0-1.59-1.29-2.88-2.88-2.88s-2.88,1.29-2.88,2.88c0,4.68,3.8,8.48,8.48,8.48m7.82,6.72c4.68,0,8.48-3.8,8.48-8.48,0-1.6-1.28-2.88-2.88-2.88s-2.88,1.28-2.88,2.88c0,1.5-1.23,2.72-2.72,2.72-1.59,0-2.88,1.28-2.88,2.88s1.29,2.88,2.88,2.88m-1.75-40.8c-2.9,0-5.25,2.36-5.25,5.25v1.34c-2.09.52-4.12,1.36-6.05,2.5l-.95-.95c-.98-.98-2.3-1.52-3.72-1.52-1.39,0-2.75.55-3.72,1.51-2.06,2.06-2.06,5.39-.01,7.44l.96.96c-1.14,1.86-1.99,3.9-2.52,6.04h-1.33c-2.9,0-5.26,2.36-5.26,5.26s2.36,5.25,5.26,5.25h1.33c.53,2.12,1.37,4.15,2.52,6.04l-.95.94c-2.06,2.06-2.06,5.4-.01,7.46,1,1,2.32,1.54,3.72,1.54s2.73-.55,3.72-1.54l.95-.95c1.9,1.15,3.93,2,6.05,2.52v1.33c0,2.9,2.36,5.26,5.25,5.26s5.26-2.36,5.26-5.26v-1.33c2.14-.53,4.16-1.37,6.04-2.52l.96.96c1,1,2.31,1.54,3.72,1.54s2.72-.55,3.71-1.54c.99-.99,1.54-2.31,1.54-3.72s-.55-2.74-1.53-3.73l-.95-.94c1.15-1.93,1.99-3.95,2.51-6.05h1.34c2.9,0,5.25-2.36,5.25-5.25s-2.36-5.26-5.25-5.26h-1.34c-.52-2.11-1.36-4.15-2.51-6.05l.93-.93c1-.98,1.56-2.3,1.56-3.74s-.55-2.74-1.54-3.72c-.97-.97-2.31-1.52-3.71-1.52s-2.75.56-3.72,1.53l-.95.95c-1.9-1.14-3.93-1.98-6.04-2.5v-1.35c0-2.9-2.36-5.25-5.26-5.25h0Z"/>
    </g>
    <g>
      <path class="cls-2" d="m147.16,721.73c-1.91,0-3.46-1.56-3.46-3.47v-.79c-1.34-.34-2.61-.87-3.8-1.58l-.56.56c-.66.66-1.53,1.02-2.46,1.02s-1.8-.36-2.45-1.02c-.65-.65-1.02-1.52-1.02-2.45s.36-1.8,1.02-2.45l.57-.57c-.72-1.19-1.25-2.47-1.58-3.8h-.79c-1.91,0-3.47-1.55-3.47-3.46s1.56-3.47,3.47-3.47h.79c.34-1.34.87-2.61,1.58-3.79l-.57-.57c-.66-.65-1.02-1.52-1.02-2.45s.36-1.79,1.02-2.45c.64-.64,1.54-1,2.45-1s1.8.36,2.45,1l.57.57c1.22-.72,2.49-1.25,3.8-1.58v-.8c0-1.91,1.55-3.46,3.46-3.46s3.47,1.55,3.47,3.46v.81c1.32.33,2.6.86,3.79,1.57l.58-.58c.61-.62,1.51-1,2.44-1s1.83.37,2.46,1.03c.62.6.99,1.48.99,2.43s-.37,1.84-1.05,2.49l-.53.53c.71,1.2,1.24,2.47,1.58,3.8h.8c1.91,0,3.46,1.56,3.46,3.47s-1.55,3.46-3.46,3.46h-.8c-.33,1.32-.86,2.6-1.58,3.81l.56.56c.66.66,1.02,1.53,1.02,2.46s-.36,1.8-1.01,2.45c-.65.66-1.52,1.02-2.45,1.02s-1.79-.36-2.45-1.02l-.57-.57c-1.17.71-2.45,1.24-3.8,1.58v.79c0,1.91-1.56,3.47-3.47,3.47Z"/>
      <path class="cls-1" d="m147.16,687.99c.67,0,1.21.54,1.21,1.2v1.12c0,.86.59,1.61,1.44,1.81,1.31.3,2.55.81,3.69,1.53.3.19.64.28.98.28.48,0,.96-.19,1.32-.55l.8-.79c.23-.23.54-.35.85-.35s.63.12.85.35c.23.22.35.53.35.85s-.12.63-.35.85l-.8.8c-.6.61-.71,1.57-.25,2.3.71,1.14,1.23,2.38,1.53,3.69.2.84.94,1.44,1.81,1.44h1.12c.67,0,1.2.55,1.2,1.21s-.54,1.2-1.2,1.2h-1.12c-.86,0-1.61.6-1.81,1.44-.3,1.31-.81,2.54-1.53,3.69-.46.73-.35,1.69.25,2.3l.8.79c.23.23.35.54.35.86s-.12.62-.35.85c-.24.24-.54.36-.85.36s-.61-.12-.85-.36l-.8-.8c-.36-.36-.83-.54-1.31-.54-.34,0-.68.09-.99.28-1.14.72-2.38,1.24-3.69,1.54-.84.18-1.44.93-1.44,1.81v1.11c0,.67-.55,1.21-1.21,1.21s-1.2-.55-1.2-1.21v-1.11c0-.87-.6-1.62-1.44-1.81-1.31-.3-2.54-.81-3.69-1.54-.3-.18-.65-.28-.98-.28-.48,0-.96.18-1.32.54l-.79.8c-.24.24-.55.36-.86.36s-.62-.12-.86-.36c-.47-.47-.47-1.24,0-1.72l.8-.79c.61-.61.71-1.57.26-2.3-.72-1.15-1.24-2.38-1.54-3.69-.18-.84-.93-1.44-1.81-1.44h-1.11c-.67,0-1.21-.54-1.21-1.2s.55-1.21,1.21-1.21h1.11c.87,0,1.62-.59,1.81-1.44.3-1.31.81-2.55,1.54-3.69.45-.73.35-1.69-.26-2.3l-.8-.8c-.47-.47-.47-1.23,0-1.7.23-.23.54-.34.86-.34s.62.11.85.34l.79.79c.36.36.83.55,1.32.55.34,0,.68-.09.98-.28,1.15-.71,2.38-1.23,3.69-1.53.84-.2,1.44-.94,1.44-1.81v-1.12c0-.67.54-1.2,1.2-1.2m4.01,14.72c1.03,0,1.85-.83,1.85-1.85,0-3.01-2.45-5.46-5.45-5.46-1.03,0-1.85.82-1.85,1.85s.82,1.85,1.85,1.85c.96,0,1.74.79,1.74,1.75,0,1.02.83,1.85,1.85,1.85m-7.92,5.04c1.02,0,1.85-.82,1.85-1.85s-.83-1.85-1.85-1.85c-.96,0-1.75-.79-1.75-1.75,0-1.02-.83-1.85-1.85-1.85s-1.85.83-1.85,1.85c0,3.01,2.45,5.46,5.46,5.46m5.04,4.33c3.01,0,5.46-2.45,5.46-5.46,0-1.03-.82-1.85-1.85-1.85s-1.85.82-1.85,1.85c0,.96-.79,1.75-1.75,1.75-1.02,0-1.85.82-1.85,1.85s.83,1.85,1.85,1.85m-1.13-28.59c-2.85,0-5.22,2.1-5.65,4.84-.42.16-.84.33-1.26.52-.97-.71-2.14-1.09-3.37-1.09-1.53,0-2.96.59-4.04,1.65-1.09,1.09-1.69,2.53-1.69,4.05,0,1.23.39,2.4,1.1,3.37-.19.41-.37.83-.52,1.26-2.73.43-4.83,2.8-4.83,5.65s2.1,5.22,4.83,5.64c.16.43.33.85.52,1.26-.72.98-1.1,2.15-1.1,3.38,0,1.53.6,2.96,1.68,4.05,1.08,1.08,2.52,1.68,4.05,1.68,1.23,0,2.4-.39,3.37-1.1.41.19.83.37,1.26.53.43,2.73,2.8,4.83,5.64,4.83s5.23-2.1,5.65-4.84c.43-.16.84-.33,1.25-.52.97.72,2.15,1.1,3.37,1.1,1.52,0,2.96-.6,4.04-1.68,1.08-1.08,1.67-2.51,1.67-4.04,0-1.23-.38-2.41-1.1-3.38.19-.41.37-.83.52-1.26,2.74-.42,4.84-2.79,4.84-5.65s-2.1-5.23-4.84-5.65c-.16-.42-.33-.84-.52-1.26.71-.97,1.1-2.15,1.1-3.37,0-1.54-.6-2.98-1.68-4.05-1.06-1.05-2.52-1.66-4.03-1.66-1.22,0-2.41.39-3.37,1.1-.41-.19-.83-.37-1.25-.52-.42-2.74-2.8-4.84-5.65-4.84h0Z"/>
    </g>
    <g>
      <path class="cls-2" d="m340.76,617.02c-1.88,0-3.42-1.54-3.42-3.43v-1.59c0-.45-.31-.84-.74-.93-2.06-.47-4.01-1.28-5.82-2.42-.14-.08-.33-.14-.5-.14-.27,0-.51.1-.71.29l-1.11,1.12c-.65.65-1.51,1.01-2.43,1.01s-1.78-.36-2.42-1c-.65-.65-1-1.51-1-2.42s.36-1.78,1-2.42l1.15-1.13c.31-.31.36-.81.13-1.2-1.14-1.81-1.95-3.76-2.41-5.79-.1-.45-.48-.75-.94-.75h-1.59c-1.89,0-3.43-1.53-3.43-3.42s1.54-3.43,3.43-3.43h1.59c.46,0,.84-.3.93-.73.47-2.07,1.29-4.03,2.43-5.82.23-.37.17-.87-.14-1.19l-1.14-1.14c-.65-.65-1-1.5-1-2.42s.36-1.77,1-2.42c.63-.63,1.52-.99,2.43-.99s1.78.35,2.42.99l1.13,1.13c.18.18.43.29.69.29.18,0,.35-.05.5-.15,1.84-1.14,3.79-1.95,5.81-2.41.43-.1.75-.49.75-.94v-1.61c0-1.88,1.53-3.42,3.42-3.42s3.43,1.53,3.43,3.42v1.61c0,.45.31.84.75.94,2.04.46,3.99,1.27,5.79,2.4.16.1.33.15.51.15.26,0,.5-.1.69-.29l1.15-1.13c.61-.62,1.49-.99,2.41-.99s1.8.37,2.43,1.01c.62.6.98,1.47.98,2.4s-.36,1.82-1.03,2.45l-1.11,1.11c-.3.31-.36.81-.12,1.19,1.13,1.81,1.94,3.77,2.41,5.81.1.43.49.74.94.74h1.61c1.88,0,3.42,1.54,3.42,3.43s-1.53,3.42-3.42,3.42h-1.61c-.44,0-.84.32-.94.76-.46,2.02-1.27,3.97-2.4,5.79-.25.39-.19.89.13,1.21l1.12,1.11c.65.65,1,1.51,1,2.43s-.35,1.77-1,2.42c-.65.65-1.5,1-2.42,1s-1.77-.36-2.42-1l-1.14-1.14c-.18-.18-.42-.28-.68-.28-.19,0-.37.05-.52.15-1.78,1.13-3.73,1.94-5.79,2.41-.44.1-.74.48-.74.94v1.59c0,1.89-1.54,3.43-3.43,3.43Zm6.77-21.07c-.53,0-.96.43-.96.96,0,2.31-1.88,4.2-4.2,4.2-.53,0-.96.43-.96.96s.43.96.96.96c3.38,0,6.12-2.75,6.12-6.12,0-.54-.42-.96-.96-.96Zm-17.53-6.19c-.53,0-.96.43-.96.96,0,3.38,2.75,6.12,6.12,6.12.53,0,.96-.43.96-.96s-.43-.96-.96-.96c-2.31,0-4.2-1.88-4.2-4.2,0-.53-.43-.96-.96-.96Zm11.35-7.21c-.54,0-.96.42-.96.96s.43.96.96.96c2.31,0,4.18,1.88,4.18,4.2,0,.53.43.96.96.96s.96-.43.96-.96c0-3.38-2.74-6.12-6.1-6.12Z"/>
      <path class="cls-1" d="m340.76,570.24c.95,0,1.74.77,1.74,1.72v1.61c0,1.23.85,2.3,2.06,2.58,1.87.42,3.65,1.17,5.28,2.19.43.27.92.41,1.41.41.69,0,1.37-.27,1.88-.78l1.14-1.13c.32-.33.77-.5,1.22-.5s.9.17,1.22.5c.33.32.5.76.5,1.22s-.17.91-.5,1.22l-1.14,1.14c-.86.88-1.02,2.24-.36,3.29,1.02,1.63,1.76,3.41,2.19,5.28.28,1.21,1.35,2.06,2.58,2.06h1.61c.96,0,1.72.78,1.72,1.74s-.77,1.72-1.72,1.72h-1.61c-1.23,0-2.3.86-2.58,2.07-.42,1.87-1.17,3.64-2.19,5.28-.66,1.05-.5,2.41.36,3.29l1.14,1.13c.33.33.5.77.5,1.23s-.17.89-.5,1.22c-.34.34-.78.51-1.22.51s-.88-.17-1.22-.51l-1.14-1.14c-.51-.51-1.19-.77-1.88-.77-.49,0-.98.13-1.41.4-1.63,1.04-3.41,1.78-5.28,2.2-1.21.26-2.06,1.34-2.06,2.58v1.59c0,.95-.78,1.74-1.74,1.74s-1.72-.78-1.72-1.74v-1.59c0-1.24-.86-2.32-2.07-2.58-1.87-.42-3.64-1.17-5.28-2.2-.44-.26-.93-.4-1.4-.4-.69,0-1.37.26-1.89.77l-1.13,1.14c-.34.34-.78.51-1.23.51s-.89-.17-1.23-.51c-.68-.68-.68-1.78,0-2.46l1.14-1.13c.88-.88,1.02-2.24.37-3.29-1.04-1.65-1.78-3.41-2.2-5.28-.26-1.21-1.34-2.07-2.58-2.07h-1.59c-.95,0-1.74-.77-1.74-1.72s.78-1.74,1.74-1.74h1.59c1.24,0,2.32-.85,2.58-2.06.42-1.87,1.17-3.65,2.2-5.28.65-1.05.5-2.41-.37-3.29l-1.14-1.14c-.68-.68-.68-1.76,0-2.44.33-.33.78-.49,1.23-.49s.89.16,1.22.49l1.13,1.13c.51.51,1.2.78,1.88.78.49,0,.97-.13,1.41-.41,1.65-1.02,3.41-1.76,5.28-2.19,1.21-.28,2.07-1.35,2.07-2.58v-1.61c0-.96.77-1.72,1.72-1.72m5.74,21.07c1.47,0,2.65-1.19,2.65-2.65,0-4.31-3.5-7.81-7.8-7.81-1.47,0-2.65,1.18-2.65,2.65s1.18,2.65,2.65,2.65c1.38,0,2.49,1.13,2.49,2.51,0,1.46,1.19,2.65,2.65,2.65m-11.33,7.21c1.46,0,2.65-1.18,2.65-2.65s-1.19-2.65-2.65-2.65c-1.38,0-2.51-1.13-2.51-2.51,0-1.46-1.19-2.65-2.65-2.65s-2.65,1.19-2.65,2.65c0,4.31,3.5,7.81,7.81,7.81m7.21,6.19c4.31,0,7.81-3.5,7.81-7.81,0-1.47-1.18-2.65-2.65-2.65s-2.65,1.18-2.65,2.65c0,1.38-1.13,2.51-2.51,2.51-1.46,0-2.65,1.18-2.65,2.65s1.19,2.65,2.65,2.65m-1.62-37.86c-2.82,0-5.11,2.29-5.11,5.11v1.03c-1.82.47-3.58,1.2-5.26,2.18l-.73-.73c-.96-.96-2.24-1.48-3.61-1.48s-2.67.54-3.61,1.47c-2,2-2,5.24,0,7.23l.73.73c-.97,1.63-1.71,3.4-2.19,5.26h-1.02c-2.82,0-5.12,2.3-5.12,5.12s2.3,5.11,5.12,5.11h1.02c.48,1.84,1.21,3.6,2.19,5.26l-.72.72c-2.01,2.01-2.01,5.25-.01,7.25.97.97,2.25,1.5,3.62,1.5s2.65-.53,3.62-1.5l.73-.73c1.66.98,3.43,1.72,5.27,2.19v1.01c0,2.82,2.29,5.12,5.11,5.12s5.12-2.3,5.12-5.12v-1.02c1.86-.48,3.61-1.21,5.26-2.19l.74.74c.97.97,2.25,1.5,3.61,1.5s2.64-.53,3.61-1.5c.96-.96,1.49-2.25,1.49-3.61s-.53-2.66-1.49-3.62l-.73-.72c.98-1.68,1.72-3.45,2.19-5.27h1.03c2.82,0,5.11-2.29,5.11-5.11s-2.29-5.12-5.11-5.12h-1.03c-.47-1.83-1.21-3.6-2.18-5.26l.71-.71c.98-.95,1.51-2.24,1.51-3.63s-.53-2.67-1.5-3.62c-.94-.94-2.25-1.48-3.6-1.48s-2.67.54-3.61,1.49l-.73.73c-1.66-.98-3.42-1.71-5.26-2.18v-1.03c0-2.82-2.3-5.11-5.12-5.11h0Z"/>
    </g>
    <g>
      <path class="cls-2" d="m335.08,502.96c-2.21,0-4.01-1.8-4.01-4.02v-2.14c0-.87-.61-1.64-1.45-1.82-2.69-.61-5.26-1.68-7.63-3.18-.28-.17-.64-.27-.98-.27-.51,0-.99.2-1.36.55l-1.49,1.51c-.77.77-1.78,1.18-2.85,1.18s-2.08-.42-2.85-1.18c-1.57-1.57-1.57-4.12,0-5.69l1.54-1.52c.6-.6.71-1.59.25-2.33-1.5-2.38-2.56-4.94-3.17-7.61-.19-.87-.94-1.46-1.83-1.46h-2.14c-2.22,0-4.02-1.8-4.02-4.01s1.8-4.02,4.02-4.02h2.14c.89,0,1.64-.59,1.82-1.43.62-2.72,1.69-5.28,3.18-7.64.45-.73.34-1.71-.27-2.32l-1.53-1.53c-1.56-1.56-1.56-4.11,0-5.67.74-.74,1.78-1.16,2.85-1.16s2.09.41,2.84,1.16l1.52,1.52c.36.36.83.55,1.34.55.35,0,.69-.1.98-.29,2.42-1.5,4.98-2.56,7.62-3.16.84-.2,1.46-.96,1.46-1.82v-2.16c0-2.21,1.8-4.01,4.01-4.01s4.02,1.8,4.02,4.01v2.16c0,.88.6,1.63,1.45,1.83,2.68.61,5.24,1.67,7.61,3.15.3.19.64.29.99.29.5,0,.98-.2,1.34-.55l1.54-1.52c.71-.73,1.75-1.16,2.83-1.16s2.12.43,2.85,1.18c.73.71,1.16,1.72,1.16,2.82s-.43,2.13-1.2,2.87l-1.5,1.5c-.6.61-.71,1.59-.25,2.32,1.49,2.38,2.55,4.94,3.16,7.62.2.85.95,1.45,1.82,1.45h2.16c2.21,0,4.01,1.8,4.01,4.02s-1.8,4.01-4.01,4.01h-2.16c-.86,0-1.63.62-1.83,1.47-.6,2.65-1.66,5.21-3.15,7.6-.47.74-.36,1.72.25,2.34l1.52,1.5c.76.76,1.18,1.77,1.18,2.86s-.42,2.08-1.17,2.84c-.76.76-1.77,1.18-2.83,1.18s-2.07-.42-2.83-1.18l-1.53-1.53c-.35-.35-.82-.55-1.33-.55-.36,0-.71.1-1.01.29-2.34,1.49-4.9,2.56-7.61,3.17-.86.19-1.45.94-1.45,1.83v2.14c0,2.22-1.8,4.02-4.02,4.02Zm9.1-28.32c-1.03,0-1.87.84-1.87,1.87,0,2.79-2.27,5.06-5.06,5.06-1.03,0-1.87.84-1.87,1.87s.84,1.87,1.87,1.87c4.86,0,8.81-3.95,8.81-8.81,0-1.05-.82-1.87-1.87-1.87Zm-23.56-8.33c-1.03,0-1.87.84-1.87,1.87,0,4.86,3.95,8.81,8.81,8.81,1.03,0,1.87-.84,1.87-1.87s-.84-1.87-1.87-1.87c-2.79,0-5.06-2.27-5.06-5.06,0-1.03-.84-1.87-1.87-1.87Zm15.25-9.69c-1.05,0-1.87.82-1.87,1.87s.84,1.87,1.87,1.87c2.78,0,5.04,2.27,5.04,5.06,0,1.03.84,1.87,1.87,1.87s1.87-.84,1.87-1.87c0-4.86-3.94-8.81-8.79-8.81Z"/>
      <path class="cls-1" d="m335.08,440.68c1.28,0,2.33,1.04,2.33,2.32v2.16c0,1.66,1.14,3.1,2.76,3.47,2.51.57,4.9,1.57,7.09,2.94.58.37,1.24.55,1.89.55.92,0,1.84-.36,2.53-1.05l1.53-1.52c.44-.45,1.04-.67,1.64-.67s1.2.22,1.64.67c.45.43.68,1.02.68,1.64s-.23,1.22-.68,1.64l-1.53,1.53c-1.16,1.18-1.37,3.01-.48,4.42,1.37,2.19,2.37,4.58,2.94,7.09.38,1.62,1.82,2.76,3.47,2.76h2.16c1.29,0,2.32,1.05,2.32,2.33s-1.04,2.32-2.32,2.32h-2.16c-1.66,0-3.1,1.16-3.47,2.78-.57,2.51-1.57,4.89-2.94,7.09-.89,1.41-.68,3.24.48,4.42l1.53,1.52c.45.45.68,1.03.68,1.66s-.23,1.2-.68,1.64-1.05.68-1.64.68-1.18-.23-1.64-.68l-1.53-1.53c-.69-.69-1.6-1.04-2.52-1.04-.65,0-1.31.18-1.9.54-2.19,1.39-4.58,2.39-7.09,2.96-1.62.35-2.76,1.8-2.76,3.47v2.14c0,1.28-1.05,2.33-2.33,2.33s-2.32-1.05-2.32-2.33v-2.14c0-1.67-1.16-3.12-2.78-3.47-2.51-.57-4.89-1.57-7.09-2.96-.58-.36-1.25-.54-1.89-.54-.93,0-1.84.35-2.53,1.03l-1.52,1.53c-.46.46-1.05.68-1.65.68s-1.19-.23-1.65-.68c-.91-.91-.91-2.39,0-3.3l1.53-1.52c1.18-1.18,1.37-3.01.5-4.42-1.39-2.21-2.39-4.58-2.96-7.09-.35-1.62-1.8-2.78-3.47-2.78h-2.14c-1.28,0-2.33-1.04-2.33-2.32s1.05-2.33,2.33-2.33h2.14c1.67,0,3.12-1.14,3.47-2.76.57-2.51,1.57-4.9,2.96-7.09.87-1.41.68-3.24-.5-4.42l-1.53-1.53c-.91-.91-.91-2.37,0-3.28.44-.44,1.05-.66,1.66-.66s1.2.22,1.64.66l1.52,1.52c.69.69,1.61,1.05,2.53,1.05.65,0,1.31-.18,1.89-.55,2.21-1.37,4.58-2.37,7.09-2.94,1.62-.38,2.78-1.82,2.78-3.47v-2.16c0-1.29,1.04-2.32,2.32-2.32m7.71,28.32c1.98,0,3.56-1.6,3.56-3.56,0-5.79-4.71-10.5-10.48-10.5-1.98,0-3.56,1.59-3.56,3.56s1.59,3.56,3.56,3.56c1.85,0,3.35,1.52,3.35,3.37,0,1.96,1.6,3.56,3.56,3.56m-15.23,9.69c1.96,0,3.56-1.58,3.56-3.56s-1.6-3.56-3.56-3.56c-1.85,0-3.37-1.52-3.37-3.37,0-1.96-1.6-3.56-3.56-3.56s-3.56,1.6-3.56,3.56c0,5.79,4.71,10.5,10.5,10.5m9.69,8.33c5.79,0,10.5-4.71,10.5-10.5,0-1.98-1.59-3.56-3.56-3.56s-3.56,1.59-3.56,3.56c0,1.85-1.52,3.37-3.37,3.37-1.96,0-3.56,1.59-3.56,3.56s1.6,3.56,3.56,3.56m-2.17-49.72c-3.14,0-5.7,2.56-5.7,5.7v2.16c0,.08-.07.16-.16.18-2.81.64-5.55,1.77-8.11,3.36-.05.03-.07.04-.11.04-.03,0-.09,0-.14-.06l-1.52-1.52c-1.06-1.06-2.5-1.65-4.03-1.65s-2.99.6-4.04,1.64c-1.09,1.09-1.68,2.52-1.68,4.04s.59,2.95,1.67,4.03l1.53,1.53c.06.06.07.17.02.25-1.58,2.49-2.72,5.23-3.38,8.12-.02.09-.09.13-.18.13h-2.14c-3.15,0-5.71,2.56-5.71,5.71s2.56,5.7,5.71,5.7h2.14c.09,0,.15.05.17.12.65,2.88,1.8,5.62,3.4,8.17.04.06.03.17-.03.23l-1.52,1.51c-2.24,2.24-2.24,5.86-.01,8.09,1.08,1.08,2.52,1.67,4.04,1.67s2.96-.59,4.04-1.67l1.49-1.51c.05-.04.1-.07.17-.07.01,0,.06,0,.12.04,2.53,1.59,5.26,2.72,8.11,3.37.09.02.15.09.15.18v2.14c0,3.15,2.56,5.71,5.7,5.71s5.71-2.56,5.71-5.71v-2.14c0-.07.03-.15.11-.17,2.92-.66,5.66-1.81,8.18-3.41,0,0,.04-.01.08-.01.04,0,.09,0,.13.05l1.53,1.53c1.08,1.08,2.51,1.67,4.03,1.67s2.95-.59,4.03-1.67c1.07-1.07,1.67-2.51,1.67-4.03s-.59-2.97-1.66-4.05l-1.54-1.53s-.05-.14,0-.21c1.6-2.58,2.73-5.31,3.38-8.15.02-.08.09-.15.18-.15h2.16c3.14,0,5.7-2.56,5.7-5.7s-2.56-5.71-5.7-5.71h-2.16c-.09,0-.16-.06-.18-.15-.65-2.85-1.78-5.59-3.36-8.12-.05-.09-.04-.19.03-.26l1.49-1.49c1.09-1.06,1.69-2.49,1.69-4.06s-.59-2.98-1.67-4.04c-1.05-1.05-2.51-1.65-4.03-1.65s-2.99.61-4.03,1.66l-1.52,1.5c-.06.06-.12.07-.15.07-.04,0-.06-.01-.08-.02-2.55-1.59-5.29-2.73-8.15-3.38-.07-.02-.13-.09-.13-.18v-2.16c0-3.14-2.56-5.7-5.71-5.7h0Zm7.71,28.32c-.1,0-.18-.09-.18-.18,0-3.72-3.02-6.75-6.73-6.75-.11,0-.18-.09-.18-.18,0-.11.07-.18.18-.18,3.91,0,7.1,3.19,7.1,7.12,0,.09-.07.18-.18.18h0Zm-15.23,9.69c-3.92,0-7.12-3.19-7.12-7.12,0-.1.09-.18.18-.18s.18.09.18.18c0,3.72,3.03,6.75,6.75,6.75.1,0,.18.09.18.18,0,.11-.09.18-.18.18h0Zm9.69,8.33c-.1,0-.18-.09-.18-.18,0-.11.09-.18.18-.18,3.72,0,6.75-3.03,6.75-6.75,0-.11.09-.18.18-.18.11,0,.18.07.18.18,0,3.92-3.19,7.12-7.12,7.12h0Z"/>
    </g>
    <g>
      <path class="cls-2" d="m345.38,818.47c-2.21,0-4.02-1.81-4.02-4.03v-2.14c0-.88-.61-1.65-1.46-1.83-2.7-.61-5.27-1.69-7.66-3.19-.29-.17-.65-.28-.99-.28-.51,0-.99.2-1.36.56l-1.5,1.51c-.77.77-1.78,1.19-2.86,1.19s-2.09-.42-2.85-1.18c-1.57-1.57-1.57-4.13,0-5.7l1.54-1.53c.61-.61.72-1.6.26-2.34-1.5-2.38-2.57-4.95-3.18-7.63-.19-.87-.94-1.47-1.84-1.47h-2.14c-2.22,0-4.03-1.8-4.03-4.02s1.81-4.03,4.03-4.03h2.14c.89,0,1.65-.59,1.83-1.44.62-2.72,1.69-5.3,3.19-7.66.45-.73.34-1.72-.27-2.33l-1.54-1.54c-.76-.76-1.18-1.77-1.18-2.84s.42-2.08,1.18-2.84c.74-.74,1.78-1.16,2.86-1.16s2.1.41,2.84,1.16l1.52,1.52c.36.36.84.56,1.34.56.35,0,.69-.1.99-.29,2.42-1.5,4.99-2.56,7.65-3.17.85-.2,1.47-.97,1.47-1.84v-2.16c0-2.21,1.8-4.02,4.02-4.02s4.03,1.8,4.03,4.02v2.16c0,.88.6,1.64,1.46,1.84,2.68.61,5.25,1.67,7.63,3.16.3.19.65.29,1,.29.51,0,.98-.2,1.34-.56l1.54-1.53c.71-.73,1.75-1.16,2.83-1.16s2.12.43,2.85,1.18c.74.71,1.16,1.73,1.16,2.83s-.43,2.13-1.2,2.87l-1.51,1.51c-.6.62-.71,1.6-.25,2.33,1.49,2.39,2.56,4.96,3.17,7.65.2.85.95,1.46,1.84,1.46h2.17c2.21,0,4.02,1.81,4.02,4.03s-1.8,4.02-4.02,4.02h-2.17c-.87,0-1.64.62-1.84,1.48-.6,2.66-1.67,5.23-3.16,7.63-.47.75-.36,1.73.25,2.36l1.52,1.51c.76.76,1.18,1.78,1.18,2.86s-.42,2.09-1.17,2.84c-.76.76-1.77,1.18-2.84,1.18s-2.08-.42-2.84-1.18l-1.54-1.54c-.35-.35-.83-.55-1.34-.55-.36,0-.71.1-1.01.29-2.35,1.49-4.92,2.56-7.63,3.18-.86.19-1.46.94-1.46,1.84v2.14c0,2.22-1.81,4.03-4.03,4.03Zm9.13-28.41c-1.04,0-1.89.85-1.89,1.88,0,2.8-2.27,5.07-5.07,5.07-1.04,0-1.88.85-1.88,1.88s.85,1.88,1.88,1.88c4.87,0,8.84-3.97,8.84-8.84,0-1.06-.83-1.88-1.88-1.88Zm-23.63-8.35c-1.04,0-1.88.85-1.88,1.88,0,4.87,3.97,8.84,8.84,8.84,1.04,0,1.88-.85,1.88-1.88s-.85-1.89-1.88-1.89c-2.8,0-5.07-2.27-5.07-5.07,0-1.04-.85-1.88-1.89-1.88Zm15.3-9.72c-1.06,0-1.88.83-1.88,1.89s.85,1.88,1.88,1.88c2.78,0,5.05,2.27,5.05,5.07,0,1.04.85,1.88,1.89,1.88s1.88-.85,1.88-1.88c0-4.87-3.96-8.84-8.82-8.84Z"/>
      <path class="cls-1" d="m345.38,755.99c1.28,0,2.34,1.04,2.34,2.33v2.16c0,1.66,1.15,3.11,2.77,3.48,2.52.57,4.92,1.57,7.12,2.95.58.37,1.24.55,1.9.55.93,0,1.85-.36,2.54-1.05l1.54-1.52c.44-.45,1.04-.67,1.64-.67s1.21.22,1.64.67c.45.43.68,1.02.68,1.65s-.23,1.22-.68,1.65l-1.54,1.54c-1.16,1.18-1.38,3.02-.48,4.43,1.38,2.2,2.37,4.59,2.95,7.12.38,1.63,1.82,2.77,3.48,2.77h2.16c1.29,0,2.33,1.05,2.33,2.34s-1.04,2.33-2.33,2.33h-2.16c-1.66,0-3.11,1.16-3.48,2.79-.57,2.52-1.57,4.9-2.95,7.12-.89,1.41-.68,3.25.48,4.43l1.54,1.52c.45.45.68,1.03.68,1.66s-.23,1.2-.68,1.65c-.46.46-1.05.69-1.64.69s-1.19-.23-1.64-.69l-1.54-1.54c-.69-.69-1.61-1.04-2.53-1.04-.66,0-1.32.18-1.9.54-2.2,1.4-4.59,2.4-7.12,2.97-1.63.36-2.77,1.8-2.77,3.48v2.14c0,1.28-1.05,2.34-2.34,2.34s-2.33-1.05-2.33-2.34v-2.14c0-1.68-1.16-3.13-2.79-3.48-2.52-.57-4.9-1.57-7.12-2.97-.59-.36-1.25-.54-1.89-.54-.94,0-1.84.36-2.54,1.03l-1.52,1.54c-.46.46-1.06.69-1.66.69s-1.2-.23-1.66-.69c-.92-.91-.92-2.4,0-3.31l1.54-1.52c1.18-1.18,1.38-3.02.5-4.43-1.4-2.22-2.4-4.59-2.97-7.12-.36-1.63-1.8-2.79-3.48-2.79h-2.14c-1.28,0-2.34-1.04-2.34-2.33s1.05-2.34,2.34-2.34h2.14c1.68,0,3.13-1.15,3.48-2.77.57-2.52,1.57-4.92,2.97-7.12.87-1.41.68-3.25-.5-4.43l-1.54-1.54c-.92-.91-.92-2.37,0-3.29.44-.44,1.05-.66,1.66-.66s1.21.22,1.65.66l1.52,1.52c.69.69,1.61,1.05,2.54,1.05.65,0,1.31-.18,1.9-.55,2.22-1.38,4.59-2.37,7.12-2.95,1.63-.38,2.79-1.82,2.79-3.48v-2.16c0-1.29,1.04-2.33,2.33-2.33m7.74,28.41c1.98,0,3.58-1.61,3.58-3.58,0-5.81-4.72-10.53-10.51-10.53-1.98,0-3.58,1.59-3.58,3.58s1.59,3.58,3.58,3.58c1.86,0,3.36,1.52,3.36,3.38,0,1.97,1.61,3.58,3.58,3.58m-15.28,9.72c1.96,0,3.58-1.59,3.58-3.58s-1.61-3.58-3.58-3.58c-1.86,0-3.38-1.52-3.38-3.38,0-1.97-1.61-3.58-3.58-3.58s-3.58,1.61-3.58,3.58c0,5.81,4.72,10.53,10.53,10.53m9.72,8.35c5.81,0,10.53-4.72,10.53-10.53,0-1.98-1.59-3.58-3.58-3.58s-3.58,1.59-3.58,3.58c0,1.86-1.52,3.38-3.38,3.38-1.97,0-3.58,1.59-3.58,3.58s1.61,3.58,3.58,3.58m-2.18-49.86c-3.15,0-5.71,2.56-5.71,5.71v2.16c0,.09-.07.17-.17.19-2.82.64-5.56,1.77-8.13,3.37-.05.03-.07.04-.12.04-.03,0-.09,0-.15-.06l-1.52-1.52c-1.07-1.07-2.5-1.65-4.04-1.65-1.52,0-2.99.6-4.04,1.64-1.09,1.09-1.69,2.52-1.69,4.05s.6,2.95,1.68,4.04l1.54,1.54c.06.06.07.18.02.26-1.58,2.49-2.73,5.25-3.39,8.15-.02.09-.1.14-.19.14h-2.14c-3.15,0-5.72,2.57-5.72,5.72s2.57,5.71,5.72,5.71h2.14c.09,0,.16.05.18.13.66,2.89,1.8,5.64,3.41,8.19.04.06.03.18-.03.24l-1.53,1.51c-1.09,1.09-1.69,2.53-1.69,4.06s.6,2.97,1.68,4.05c1.08,1.08,2.52,1.68,4.05,1.68s2.96-.6,4.05-1.68l1.5-1.51c.05-.05.11-.07.18-.07.02,0,.07,0,.13.04,2.54,1.59,5.27,2.73,8.13,3.38.1.02.15.1.15.19v2.14c0,3.15,2.56,5.72,5.71,5.72s5.72-2.57,5.72-5.72v-2.14c0-.07.03-.16.11-.18,2.93-.66,5.68-1.81,8.21-3.42,0,0,.05-.01.09-.01.04,0,.1,0,.14.05l1.54,1.54c1.08,1.08,2.51,1.68,4.04,1.68s2.95-.6,4.04-1.68c1.08-1.08,1.67-2.51,1.67-4.04s-.59-2.98-1.67-4.05l-1.55-1.53s-.05-.15,0-.22c1.61-2.58,2.74-5.33,3.39-8.18.02-.08.1-.15.19-.15h2.16c3.15,0,5.71-2.56,5.71-5.71s-2.56-5.72-5.71-5.72h-2.16c-.09,0-.17-.06-.19-.15-.65-2.86-1.79-5.61-3.37-8.15-.06-.09-.04-.2.03-.27l1.49-1.49c1.09-1.06,1.69-2.5,1.69-4.06s-.59-2.98-1.67-4.04c-1.05-1.05-2.51-1.65-4.03-1.65s-2.99.61-4.04,1.66l-1.52,1.51c-.07.06-.13.07-.16.07-.04,0-.07-.01-.09-.02-2.56-1.6-5.3-2.73-8.18-3.39-.08-.02-.14-.1-.14-.19v-2.16c0-3.15-2.57-5.71-5.72-5.71h0Zm7.74,28.41c-.1,0-.19-.09-.19-.19,0-3.73-3.02-6.76-6.74-6.76-.12,0-.19-.1-.19-.19,0-.12.08-.19.19-.19,3.93,0,7.13,3.21,7.13,7.15,0,.1-.07.19-.19.19h0Zm-15.28,9.72c-3.94,0-7.15-3.21-7.15-7.15,0-.1.09-.19.19-.19s.19.09.19.19c0,3.73,3.03,6.76,6.76,6.76.1,0,.19.09.19.19,0,.12-.1.19-.19.19h0Zm9.72,8.35c-.1,0-.19-.09-.19-.19,0-.12.1-.19.19-.19,3.73,0,6.76-3.03,6.76-6.76,0-.12.1-.19.19-.19.12,0,.19.08.19.19,0,3.94-3.21,7.15-7.15,7.15h0Z"/>
    </g>
    <path class="cls-2" d="m310.8,793.3c.73-1.24,1.11-2.63,1.11-4.06,0-2.85-1.46-5.42-3.88-6.88.68-1.21,1.04-2.55,1.04-3.94,0-2.03-.74-3.92-2.11-5.41,1.36-1.49,2.11-3.38,2.11-5.41,0-1.26-.3-2.49-.87-3.62,2.7-1.36,4.46-4.16,4.46-7.2,0-1.58-.46-3.09-1.35-4.42,2.01-1.53,3.19-3.87,3.19-6.41s-1.22-4.97-3.29-6.49c1.28-3.02.63-6.5-1.71-8.84-1.99-1.99-4.95-2.78-7.68-2.1-1.33-2.79-4.18-4.63-7.28-4.63-2.59,0-5.02,1.28-6.54,3.38-1.35-.94-2.95-1.45-4.57-1.45-2.83,0-5.39,1.45-6.85,3.84-1.29-.81-2.74-1.24-4.25-1.24-2.64,0-5.09,1.31-6.61,3.47-3.06-2.1-7.37-1.72-10.05.85-2.49-2.38-6.43-2.9-9.43-1.25-1.35-2.74-4.15-4.53-7.23-4.53-1.46,0-2.88.4-4.14,1.17-1.44-2.46-4.09-4.01-6.97-4.01-1.67,0-3.31.54-4.68,1.53-1.53-2.03-3.87-3.21-6.42-3.21-3.44,0-6.53,2.24-7.63,5.5-.94.4-1.77.97-2.47,1.68-2.87,2.87-3.13,7.37-.73,10.56-.91,1.02-1.53,2.83-1.6,4.84-.11,2.99.97,5.68,3,7.54-1.9,1.54-3.02,3.97-3.08,6.83-.05,2.25.56,4.42,1.52,5.54-2.21,3.6-2.48,7.34-.76,10.58,1.84,3.45,5.31,5.32,7.64,5.32h7.24c2.54,0,5.69-2.84,7.03-6.33,1.36-3.54.67-7.02-1.87-9.69.97-1.15,1.79-3.28,1.74-5.6-.06-2.79-1.35-5.19-3.64-6.83,1.93-3.23,1.8-5.74,1.25-7.47,2.35,1.14,5.29,1.04,7.62-.37,1.44,2.46,4.09,4,6.97,4,1.36,0,2.68-.35,3.87-1,1.35,2.74,4.15,4.53,7.23,4.53,2.07,0,4.05-.81,5.55-2.25,1.5,1.44,3.48,2.25,5.55,2.25,2.64,0,5.1-1.31,6.61-3.47,1.35.92,2.89,1.4,4.5,1.4,2.83,0,5.39-1.45,6.85-3.84,1.29.81,2.75,1.24,4.25,1.24,2.59,0,5.02-1.28,6.54-3.38.89.61,1.9,1.04,2.99,1.25-.02.23-.04.46-.04.67,0,1.58.46,3.09,1.35,4.42-2.01,1.53-3.19,3.86-3.19,6.41,0,1.26.3,2.49.87,3.62-2.7,1.36-4.46,4.16-4.46,7.2,0,2.03.74,3.92,2.11,5.41-1.36,1.49-2.11,3.39-2.11,5.41,0,2.85,1.46,5.41,3.88,6.88-.68,1.21-1.04,2.55-1.04,3.94,0,2.63,1.28,5.05,3.4,6.56-.55.25-1.07.54-1.55.9-.63-.15-1.19-.22-1.74-.22-1.98,0-3.89.74-5.36,2.08-1.45-2.41-4.06-3.91-6.92-3.91-2.08,0-4.08.82-5.58,2.28-2.08-1.89-4.36-2.88-6.62-2.88-3.69,0-7.04,2.73-8.14,6.65-.04.15-4.24,14.53-2.89,27.69.25,2.4,1.87,7.03,4.22,7.78,2.1.66,2.27,1.8,2.27,2.91,0,.81.35,2.71,3.61,2.71.9,0,3.63,0,3.63-2.71,0-1.91.12-2.45,1.26-2.93.73-.31,4.39-2.11,5.34-7.21.92-4.92-.02-10.41-.84-13.83,1.07.77,2.29,1.15,3.73,1.15,1.98,0,3.89-.74,5.36-2.07,1.45,2.41,4.06,3.91,6.92,3.91s5.39-1.46,6.86-3.85c1.11.54,2.34.83,3.58.83,2.15,0,4.18-.84,5.7-2.36,1.34-1.34,2.14-3.07,2.32-4.95,3.33-1.07,5.6-4.15,5.6-7.68,0-2.76-1.39-5.28-3.69-6.76h0Z"/>
    <g>
      <path class="cls-2" d="m180.26,825.57c-2.07,0-3.75-1.69-3.75-3.76v-2.01c0-.83-.58-1.56-1.38-1.73-2.53-.57-4.94-1.58-7.17-2.99-.27-.16-.61-.26-.94-.26-.48,0-.94.19-1.29.53l-1.4,1.42c-.72.72-1.66,1.11-2.67,1.11s-1.95-.39-2.66-1.1c-1.47-1.47-1.47-3.86,0-5.32l1.45-1.43c.58-.58.68-1.51.24-2.22-1.4-2.23-2.41-4.64-2.98-7.15-.18-.82-.89-1.39-1.74-1.39h-2.01c-2.07,0-3.76-1.68-3.76-3.75s1.69-3.76,3.76-3.76h2.01c.85,0,1.56-.56,1.73-1.37.58-2.55,1.58-4.96,2.99-7.18.43-.69.32-1.63-.26-2.21l-1.44-1.44c-.71-.71-1.1-1.65-1.1-2.65s.39-1.94,1.1-2.65c.69-.69,1.66-1.08,2.67-1.08s1.96.38,2.66,1.08l1.43,1.43c.34.34.79.53,1.27.53.33,0,.66-.09.94-.27,2.27-1.41,4.68-2.4,7.16-2.97.8-.19,1.39-.92,1.39-1.74v-2.03c0-2.07,1.68-3.75,3.75-3.75s3.76,1.68,3.76,3.75v2.03c0,.83.57,1.55,1.38,1.74,2.51.57,4.92,1.57,7.15,2.96.29.18.61.28.94.28.48,0,.93-.19,1.27-.53l1.45-1.43c.67-.68,1.64-1.08,2.65-1.08s1.98.4,2.67,1.1c.69.66,1.08,1.61,1.08,2.64s-.4,1.99-1.12,2.68l-1.41,1.41c-.57.58-.68,1.51-.24,2.21,1.4,2.23,2.4,4.64,2.97,7.16.19.81.9,1.38,1.74,1.38h2.03c2.07,0,3.75,1.69,3.75,3.76s-1.68,3.75-3.75,3.75h-2.03c-.82,0-1.55.59-1.74,1.4-.57,2.49-1.56,4.9-2.96,7.15-.45.7-.34,1.64.24,2.23l1.43,1.41c.71.71,1.1,1.66,1.1,2.67s-.39,1.95-1.09,2.66c-.71.71-1.65,1.1-2.65,1.1s-1.94-.39-2.65-1.1l-1.44-1.44c-.33-.33-.78-.52-1.26-.52-.34,0-.67.09-.96.27-2.2,1.4-4.61,2.4-7.15,2.98-.82.18-1.38.89-1.38,1.74v2.01c0,2.07-1.69,3.76-3.76,3.76Zm8.56-26.63c-.98,0-1.78.8-1.78,1.78,0,2.61-2.13,4.74-4.74,4.74-.98,0-1.78.8-1.78,1.78s.8,1.78,1.78,1.78c4.58,0,8.3-3.73,8.3-8.3,0-1-.78-1.78-1.78-1.78Zm-22.16-7.83c-.98,0-1.78.8-1.78,1.78,0,4.58,3.73,8.3,8.3,8.3.98,0,1.78-.8,1.78-1.78s-.8-1.78-1.78-1.78c-2.61,0-4.74-2.13-4.74-4.74,0-.98-.8-1.78-1.78-1.78Zm14.35-9.11c-1,0-1.78.78-1.78,1.78s.8,1.78,1.78,1.78c2.6,0,4.72,2.13,4.72,4.74,0,.98.8,1.78,1.78,1.78s1.78-.8,1.78-1.78c0-4.58-3.72-8.3-8.28-8.3Z"/>
      <path class="cls-1" d="m180.26,767.01c1.2,0,2.19.98,2.19,2.18v2.03c0,1.56,1.07,2.91,2.6,3.27,2.36.54,4.61,1.47,6.67,2.76.55.35,1.16.52,1.78.52.87,0,1.73-.34,2.38-.99l1.44-1.43c.41-.42.98-.63,1.54-.63s1.13.21,1.54.63c.42.41.64.96.64,1.55s-.22,1.15-.64,1.55l-1.44,1.44c-1.09,1.11-1.29,2.84-.45,4.16,1.29,2.06,2.23,4.31,2.76,6.67.35,1.53,1.71,2.6,3.27,2.6h2.03c1.21,0,2.18.99,2.18,2.19s-.98,2.18-2.18,2.18h-2.03c-1.56,0-2.91,1.09-3.27,2.61-.54,2.36-1.47,4.6-2.76,6.67-.84,1.32-.64,3.05.45,4.16l1.44,1.43c.42.42.64.97.64,1.56s-.22,1.13-.64,1.55c-.43.43-.99.64-1.54.64s-1.11-.21-1.54-.64l-1.44-1.44c-.65-.65-1.51-.98-2.37-.98-.62,0-1.23.17-1.78.51-2.06,1.31-4.31,2.25-6.67,2.78-1.53.33-2.6,1.69-2.6,3.27v2.01c0,1.2-.99,2.19-2.19,2.19s-2.18-.99-2.18-2.19v-2.01c0-1.57-1.09-2.93-2.61-3.27-2.36-.54-4.6-1.47-6.67-2.78-.55-.33-1.17-.5-1.77-.5-.88,0-1.73.33-2.38.97l-1.43,1.44c-.43.43-.99.64-1.55.64s-1.12-.21-1.55-.64c-.86-.86-.86-2.25,0-3.1l1.44-1.43c1.11-1.11,1.29-2.84.47-4.16-1.31-2.08-2.25-4.31-2.78-6.67-.33-1.53-1.69-2.61-3.27-2.61h-2.01c-1.2,0-2.19-.98-2.19-2.18s.99-2.19,2.19-2.19h2.01c1.57,0,2.93-1.07,3.27-2.6.54-2.36,1.47-4.61,2.78-6.67.82-1.32.64-3.05-.47-4.16l-1.44-1.44c-.86-.86-.86-2.23,0-3.08.42-.41.99-.62,1.56-.62s1.13.2,1.55.62l1.43,1.43c.65.65,1.51.99,2.38.99.61,0,1.23-.17,1.78-.52,2.08-1.29,4.31-2.23,6.67-2.76,1.53-.35,2.61-1.71,2.61-3.27v-2.03c0-1.21.98-2.18,2.18-2.18m7.25,26.64c1.86,0,3.35-1.51,3.35-3.35,0-5.45-4.43-9.87-9.85-9.87-1.86,0-3.35,1.49-3.35,3.35s1.49,3.35,3.35,3.35c1.74,0,3.15,1.43,3.15,3.17,0,1.85,1.51,3.35,3.35,3.35m-14.33,9.11c1.84,0,3.35-1.49,3.35-3.35s-1.51-3.35-3.35-3.35c-1.74,0-3.17-1.43-3.17-3.17,0-1.85-1.51-3.35-3.35-3.35s-3.35,1.51-3.35,3.35c0,5.45,4.43,9.87,9.87,9.87m9.11,7.83c5.45,0,9.87-4.43,9.87-9.87,0-1.86-1.49-3.35-3.35-3.35s-3.35,1.49-3.35,3.35c0,1.74-1.43,3.17-3.17,3.17-1.85,0-3.35,1.49-3.35,3.35s1.51,3.35,3.35,3.35m-2.04-46.72c-2.93,0-5.32,2.39-5.32,5.32v2.03c0,.1-.08.19-.18.21-2.64.6-5.21,1.66-7.62,3.15-.05.03-.08.04-.12.04-.03,0-.1,0-.16-.07l-1.43-1.43c-.99-.99-2.33-1.54-3.77-1.54-1.41,0-2.79.56-3.77,1.53-2.08,2.08-2.08,5.46,0,7.53l1.44,1.44c.07.07.08.19.02.29-1.48,2.33-2.56,4.91-3.17,7.63-.02.1-.1.16-.21.16h-2.01c-2.94,0-5.33,2.39-5.33,5.33s2.39,5.32,5.33,5.32h2.01c.1,0,.18.06.2.14.61,2.71,1.69,5.28,3.19,7.67.04.07.04.2-.03.27l-1.43,1.42c-2.09,2.09-2.09,5.47-.01,7.55,1.01,1.01,2.35,1.56,3.77,1.56s2.76-.55,3.77-1.56l1.41-1.42c.05-.05.11-.07.19-.07.02,0,.08,0,.13.04,2.37,1.49,4.94,2.56,7.62,3.17.11.02.17.11.17.21v2.01c0,2.94,2.39,5.33,5.32,5.33s5.33-2.39,5.33-5.33v-2.01c0-.1.05-.18.13-.2,2.74-.62,5.32-1.7,7.68-3.2,0,0,.05-.02.1-.02.04,0,.1.01.15.06l1.44,1.44c1.01,1.01,2.34,1.56,3.76,1.56s2.75-.55,3.76-1.56c1-1,1.55-2.34,1.55-3.76s-.55-2.78-1.55-3.78l-1.45-1.44s-.06-.17,0-.25c1.5-2.42,2.57-4.99,3.17-7.66.02-.09.11-.17.21-.17h2.03c2.93,0,5.32-2.39,5.32-5.32s-2.39-5.33-5.32-5.33h-2.03c-.1,0-.19-.07-.21-.17-.61-2.68-1.67-5.25-3.16-7.63-.06-.1-.04-.22.03-.29l1.4-1.4c1.02-.99,1.58-2.33,1.58-3.79s-.55-2.78-1.56-3.77c-.98-.98-2.34-1.54-3.76-1.54s-2.79.57-3.77,1.55l-1.43,1.41c-.07.07-.14.08-.17.08-.05,0-.08-.02-.1-.03-2.39-1.5-4.96-2.56-7.66-3.17-.09-.02-.16-.11-.16-.21v-2.03c0-2.93-2.39-5.32-5.33-5.32h0Zm7.25,26.64c-.11,0-.21-.1-.21-.21,0-3.48-2.82-6.31-6.29-6.31-.12,0-.21-.09-.21-.21,0-.13.09-.21.21-.21,3.7,0,6.71,3.02,6.71,6.73,0,.12-.09.21-.21.21h0Zm-14.33,9.11c-3.71,0-6.73-3.02-6.73-6.73,0-.11.1-.21.21-.21s.21.1.21.21c0,3.48,2.83,6.31,6.31,6.31.11,0,.21.1.21.21,0,.13-.11.21-.21.21h0Zm9.11,7.83c-.11,0-.21-.1-.21-.21,0-.12.09-.21.21-.21,3.48,0,6.31-2.83,6.31-6.31,0-.12.09-.21.21-.21.13,0,.21.09.21.21,0,3.71-3.02,6.73-6.73,6.73h0Z"/>
    </g>
  </g>
  <g>
    <g>
      <path class="cls-2" d="m608.97,542.43c4.67,0,9.24.9,12.74,2.78,4.94,2.6,6.01,6.1,6.01,9.96,0,2.15-.18,2.96-2.78,1.79-3.32-1.44-7-4.13-15.7-4.13-11.93,0-17.68,8.7-17.68,22.97s5.11,22.08,17.5,22.08c7.72,0,11.76-1.88,16.78-4.04,2.33-.99,2.69-.09,2.69,2.15,0,1.35-.36,5.47-4.76,8.52-3.77,2.6-8.97,3.77-15.26,3.77-16.24,0-29.07-7.36-29.07-31.95s12.92-33.92,29.52-33.92Z"/>
      <path class="cls-2" d="m648.28,582.09c3.41,0,5.83.36,8.61.72v-1.17c0-4.22-1.62-6.91-7.9-6.91-3.59,0-6.01.18-9.87.99-3.23.63-3.5.36-3.5-1.71,0-4.85,1.88-6.82,4.76-7.81,2.6-.9,6.37-1.26,9.96-1.26,10.86,0,17.77,5.29,17.77,14.9v23.69c0,3.05,0,3.95-2.15,3.95-4.31,0-6.91-1.26-8.17-3.95-2.06,1.97-5.38,4.13-11.49,4.13-9.33,0-13.73-4.85-13.73-13.28s4.31-12.29,15.7-12.29Zm8.61,13.82v-4.58c-1.97-.36-3.77-.45-5.92-.45-4.76,0-7.18.54-7.18,3.59,0,2.69,1.88,4.04,5.92,4.04,3.14,0,5.29-.99,7.18-2.6Z"/>
      <path class="cls-2" d="m688.03,589.27v13.37c0,3.77-.63,4.49-4.31,4.49h-2.6c-3.59,0-4.31-.72-4.31-4.49v-33.11c0-3.05,0-3.95,2.15-3.95,4.94,0,7.63,1.62,8.61,5.29,2.06-4.94,5.38-6.55,9.15-6.55,5.38,0,7,3.05,7,8.44,0,2.15-.27,2.6-2.33,2.33-2.24-.27-3.05-.45-4.13-.45-6.64,0-9.24,5.38-9.24,14.63Z"/>
      <path class="cls-2" d="m715.4,607.13h-2.6c-3.59,0-4.31-.72-4.31-4.49v-56.8c0-3.05,0-3.95,2.15-3.95,6.55,0,9.06,2.78,9.06,9.33v51.42c0,3.77-.63,4.49-4.31,4.49Z"/>
      <path class="cls-2" d="m747.52,564.95c13.1,0,20.73,8.52,20.73,21.54s-7.63,21.36-20.73,21.36-20.91-8.35-20.91-21.36,7.54-21.54,20.91-21.54Zm0,32.66c5.56,0,8.97-4.67,8.97-11.13s-3.41-11.31-8.97-11.31-9.24,4.85-9.24,11.31,3.59,11.13,9.24,11.13Z"/>
      <path class="cls-2" d="m785.03,577.34c0,6.01,21.45,1.17,21.45,17.14,0,11.49-9.51,13.19-17.77,13.19-5.11,0-7.27-.54-9.78-1.35-3.95-1.17-5.29-4.4-5.29-8.26,0-1.88.27-2.6,1.26-2.6.54,0,1.35.18,2.51.63,2.33.9,6.64,2.33,11.13,2.33s7.27-.72,7.27-3.68c0-6.64-21.45-1.17-21.45-16.69,0-11.49,9.51-13.1,17.14-13.1,2.42,0,5.03.27,8.08,1.26,2.96.99,5.65,2.96,5.65,7.36,0,2.6-.36,2.78-3.59,2.15-3.32-.72-5.56-1.26-9.78-1.26s-6.82.81-6.82,2.87Z"/>
      <path class="cls-2" d="m832.23,602.64v-53.66c0-4.58.63-5.29,4.76-5.38h29.16c2.6,0,3.32,0,3.32,1.97,0,4.13-3.14,8.44-10.59,8.44h-14.99v14.9h17.77c2.6,0,3.32,0,3.32,1.97,0,4.13-3.14,8.44-10.59,8.44h-10.5v17.41h21.45c3.05,0,3.68.63,3.68,3.86v2.69c0,3.23-.63,3.86-3.68,3.86h-28.81c-3.59,0-4.31-.72-4.31-4.49Z"/>
      <path class="cls-2" d="m885.98,569.89c2.33-2.78,6.01-4.94,11.58-4.94,9.78,0,14.09,6.64,14.09,18.13v19.56c0,3.77-.72,4.49-4.31,4.49h-2.69c-3.59,0-4.31-.72-4.31-4.49v-18.49c0-5.03-1.44-9.06-6.64-9.06-4.58,0-6.73,3.05-6.91,8.61v18.93c0,3.77-.63,4.49-4.31,4.49h-2.6c-3.59,0-4.31-.72-4.31-4.49v-33.11c0-3.05,0-3.95,2.15-3.95,4.49,0,7.09,1.35,8.26,4.31Z"/>
      <path class="cls-2" d="m931.56,589.27v13.37c0,3.77-.63,4.49-4.31,4.49h-2.6c-3.59,0-4.31-.72-4.31-4.49v-33.11c0-3.05,0-3.95,2.15-3.95,4.94,0,7.63,1.62,8.61,5.29,2.06-4.94,5.38-6.55,9.15-6.55,5.38,0,7,3.05,7,8.44,0,2.15-.27,2.6-2.33,2.33-2.24-.27-3.05-.45-4.13-.45-6.64,0-9.24,5.38-9.24,14.63Z"/>
      <path class="cls-2" d="m958.3,542.97c3.86,0,6.55,2.51,6.55,6.28s-2.69,6.37-6.55,6.37-6.55-2.51-6.55-6.37,2.69-6.28,6.55-6.28Zm5.47,31.95v27.73c0,3.77-.63,4.49-4.31,4.49h-2.6c-3.59,0-4.31-.72-4.31-4.49v-33.11c0-3.05,0-3.95,2.15-3.95,6.55,0,9.06,2.78,9.06,9.33Z"/>
      <path class="cls-2" d="m1011.52,569.53v53.75c0,3.77-.72,4.49-4.31,4.49h-2.6c-3.68,0-4.31-.72-4.31-4.49v-19.2c-2.6,2.24-6.19,3.68-10.86,3.68-11.22,0-18.04-8.61-18.04-21.27s7-21.54,17.95-21.54c5.2,0,9.06,1.88,11.76,4.85,1.26-2.87,3.86-4.22,8.26-4.22,2.15,0,2.15.9,2.15,3.95Zm-19.2,6.01c-6.1,0-8.79,5.2-8.79,10.86s2.69,10.77,8.79,10.77,8.88-5.11,8.88-10.77-2.78-10.86-8.88-10.86Z"/>
      <path class="cls-2" d="m1046.06,602.82c-2.33,2.78-5.92,4.76-10.86,4.76-10.23,0-14.54-6.46-14.54-18.13v-19.92c0-3.05,0-3.95,2.15-3.95,6.55,0,9.06,2.78,9.06,9.33v14.36c0,4.04,1.53,7.72,6.73,7.72,4.58,0,6.55-2.78,6.82-7.45v-20.01c0-3.05,0-3.95,2.15-3.95,6.55,0,9.15,2.78,9.15,9.33v28.63c0,3.05,0,3.95-2.15,3.95-4.76,0-7.45-1.44-8.52-4.67Z"/>
      <path class="cls-2" d="m1075.5,591.16c1.53,5.74,6.28,6.01,10.68,6.01,5.11,0,7.72-.72,13.1-2.42,1.97-.63,2.6.18,2.6,1.97,0,3.68-1.97,7.45-5.65,8.97-3.23,1.35-7.72,2.06-11.94,2.06-10.68,0-21-4.4-21-20.64,0-14.18,7.09-22.17,19.56-22.17,13.46,0,19.2,9.06,19.2,19.38,0,3.5-.63,6.82-6.01,6.82h-20.55Zm-.09-9.06h15.61c-.63-3.77-2.6-7.45-8.26-7.45-4.22,0-6.46,3.05-7.36,7.45Z"/>
      <path class="cls-2" d="m523.86,680.22v-53.66c0-4.76.63-5.38,5.2-5.38h1.26c4.58,0,5.2.63,5.2,5.38v47.74h20.55c3.14,0,3.68.63,3.68,3.86v2.69c0,3.23-.54,3.86-3.68,3.86h-27.91c-3.59,0-4.31-.72-4.31-4.49Z"/>
      <path class="cls-2" d="m583.71,642.53c13.1,0,20.73,8.52,20.73,21.54s-7.63,21.36-20.73,21.36-20.91-8.35-20.91-21.36,7.54-21.54,20.91-21.54Zm0,32.66c5.56,0,8.97-4.67,8.97-11.13s-3.41-11.31-8.97-11.31-9.24,4.85-9.24,11.31,3.59,11.13,9.24,11.13Zm-.99-50.97c1.79-2.69,2.42-3.05,5.38-3.05h6.82c1.88,0,2.6,1.53.72,3.32l-8.61,8.26c-1.17,1.08-2.06,1.35-3.86,1.35h-5.29c-.81,0-1.26-.63-.72-1.53l5.56-8.35Z"/>
      <path class="cls-2" d="m623.91,681.66v19.2c0,3.77-.63,4.49-4.31,4.49h-2.6c-3.59,0-4.31-.72-4.31-4.49v-53.75c0-3.05,0-3.95,2.15-3.95,4.4,0,7,1.35,8.17,4.22,2.69-2.96,6.55-4.85,11.85-4.85,11.49,0,17.95,8.79,17.95,21.54s-6.28,21.27-18.04,21.27c-4.76,0-8.26-1.44-10.86-3.68Zm7.99-6.91c6.1,0,8.79-5.11,8.79-10.77s-2.69-10.86-8.79-10.86-8.79,5.2-8.79,10.86,2.78,10.77,8.79,10.77Z"/>
      <path class="cls-2" d="m669.86,668.74c1.53,5.74,6.28,6.01,10.68,6.01,5.11,0,7.72-.72,13.1-2.42,1.97-.63,2.6.18,2.6,1.97,0,3.68-1.97,7.45-5.65,8.97-3.23,1.35-7.72,2.06-11.94,2.06-10.68,0-21-4.4-21-20.64,0-14.18,7.09-22.17,19.56-22.17,13.46,0,19.2,9.06,19.2,19.38,0,3.5-.63,6.82-6.01,6.82h-20.55Zm-.09-9.06h15.61c-.63-3.77-2.6-7.45-8.26-7.45-4.22,0-6.46,3.05-7.36,7.45Z"/>
      <path class="cls-2" d="m735.18,646.3v2.78c0,1.88-.54,3.14-1.71,4.49l-18.58,21.63h17.59c3.23,0,3.95.54,3.95,3.14v3.23c0,2.6-.72,3.14-3.95,3.14h-27.28c-3.5,0-3.77-.36-3.77-3.05v-3.86c0-1.88.45-3.05,1.71-4.49l17.59-20.55h-11.22c-5.56,0-7.99-4.04-7.99-7.81,0-1.79.72-1.79,3.05-1.79h27.55c2.6,0,3.05.27,3.05,3.14Z"/>
      <path class="cls-2" d="m762.37,680.4v-54.02c0-4.58.63-5.2,5.03-5.2h19.2c9.78,0,15.79,7.09,15.79,15.7s-3.5,12.38-8.17,14.27c7.72,1.35,12.2,5.74,12.2,15.43,0,10.86-6.91,18.13-18.22,18.13h-21.72c-3.41,0-4.13-.72-4.13-4.31Zm11.22-49.18v15.44h10.23c4.13-.27,6.46-2.87,6.46-7.72,0-5.12-2.6-7.72-7-7.72h-9.69Zm0,25.4v18.04h12.02c5.56,0,8.7-3.32,8.7-9.15s-3.14-8.88-8.7-8.88h-12.02Z"/>
      <path class="cls-2" d="m823.66,668.74c1.53,5.74,6.28,6.01,10.68,6.01,5.11,0,7.72-.72,13.1-2.42,1.97-.63,2.6.18,2.6,1.97,0,3.68-1.97,7.45-5.65,8.97-3.23,1.35-7.72,2.06-11.94,2.06-10.68,0-21-4.4-21-20.64,0-14.18,7.09-22.17,19.56-22.17,13.46,0,19.2,9.06,19.2,19.38,0,3.5-.63,6.82-6.01,6.82h-20.55Zm-.09-9.06h15.61c-.63-3.77-2.6-7.45-8.26-7.45-4.22,0-6.46,3.05-7.36,7.45Z"/>
      <path class="cls-2" d="m871.22,634.99v8.17h7.45c3.05,0,3.41.45,3.41,3.59v2.87c0,3.14-.36,3.59-3.41,3.59h-7.45v14.36c0,6.82,3.32,7.45,4.76,7.45,1.62,0,3.32-.36,5.2-.9,1.53-.36,2.15,0,2.15,2.69,0,1.53-.27,2.87-.81,4.13-1.26,2.69-4.4,4.4-10.23,4.4-9.96,0-12.29-6.64-12.29-17.41v-14.72h-2.24c-2.96,0-3.41-.45-3.41-3.59v-2.87c0-3.14.45-3.59,3.41-3.59h2.42c.99-8.44,4.58-12.11,8.88-12.11,2.15,0,2.15.9,2.15,3.95Z"/>
      <path class="cls-2" d="m902.27,659.67c3.41,0,5.83.36,8.61.72v-1.17c0-4.22-1.62-6.91-7.9-6.91-3.59,0-6.01.18-9.87.99-3.23.63-3.5.36-3.5-1.71,0-4.85,1.88-6.82,4.76-7.81,2.6-.9,6.37-1.26,9.96-1.26,10.86,0,17.77,5.29,17.77,14.9v23.69c0,3.05,0,3.95-2.15,3.95-4.31,0-6.91-1.26-8.17-3.95-2.06,1.97-5.38,4.13-11.49,4.13-9.33,0-13.73-4.85-13.73-13.28s4.31-12.29,15.7-12.29Zm8.61,13.82v-4.58c-1.97-.36-3.77-.45-5.92-.45-4.76,0-7.18.54-7.18,3.59,0,2.69,1.88,4.04,5.92,4.04,3.14,0,5.29-.99,7.18-2.6Z"/>
      <path class="cls-2" d="m941.21,647.47c2.33-2.78,6.01-4.94,11.58-4.94,9.78,0,14.09,6.64,14.09,18.13v19.56c0,3.77-.72,4.49-4.31,4.49h-2.69c-3.59,0-4.31-.72-4.31-4.49v-18.49c0-5.03-1.44-9.06-6.64-9.06-4.58,0-6.73,3.05-6.91,8.61v18.93c0,3.77-.63,4.49-4.31,4.49h-2.6c-3.59,0-4.31-.72-4.31-4.49v-33.11c0-3.05,0-3.95,2.15-3.95,4.49,0,7.09,1.35,8.26,4.31Z"/>
      <path class="cls-2" d="m973.42,664.25c0-13.19,6.01-21.72,21-21.72,2.69,0,4.94.36,7.54,1.62,1.88.99,3.86,2.69,3.86,8.17,0,2.42-.63,3.05-3.86,1.97-1.79-.63-3.77-1.17-6.46-1.17-8.08,0-10.32,4.94-10.32,10.95s2.42,10.68,11.13,10.68c2.33,0,4.13-.45,6.55-1.08,3.41-.81,3.68-.81,3.68,1.35,0,2.6-.36,6.19-4.4,8.44-3.05,1.71-6.82,1.88-8.44,1.88-14.54,0-20.28-8.79-20.28-21.09Z"/>
      <path class="cls-2" d="m1031.66,642.53c13.1,0,20.73,8.52,20.73,21.54s-7.63,21.36-20.73,21.36-20.91-8.35-20.91-21.36,7.54-21.54,20.91-21.54Zm0,32.66c5.56,0,8.97-4.67,8.97-11.13s-3.41-11.31-8.97-11.31-9.24,4.85-9.24,11.31,3.59,11.13,9.24,11.13Z"/>
      <path class="cls-2" d="m1084.69,680.4c-2.33,2.78-5.92,4.76-10.86,4.76-10.23,0-14.54-6.46-14.54-18.13v-19.92c0-3.05,0-3.95,2.15-3.95,6.55,0,9.06,2.78,9.06,9.33v14.36c0,4.04,1.53,7.72,6.73,7.72,4.58,0,6.55-2.78,6.82-7.45v-20.01c0-3.05,0-3.95,2.15-3.95,6.55,0,9.15,2.78,9.15,9.33v28.63c0,3.05,0,3.95-2.15,3.95-4.76,0-7.45-1.44-8.52-4.67Z"/>
      <path class="cls-2" d="m1115.29,666.85v13.37c0,3.77-.63,4.49-4.31,4.49h-2.6c-3.59,0-4.31-.72-4.31-4.49v-33.11c0-3.05,0-3.95,2.15-3.95,4.94,0,7.63,1.62,8.61,5.29,2.06-4.94,5.38-6.55,9.15-6.55,5.38,0,7,3.05,7,8.44,0,2.15-.27,2.6-2.33,2.33-2.24-.27-3.05-.45-4.13-.45-6.64,0-9.24,5.38-9.24,14.63Z"/>
      <path class="cls-2" d="m1149.75,634.99v8.17h7.45c3.05,0,3.41.45,3.41,3.59v2.87c0,3.14-.36,3.59-3.41,3.59h-7.45v14.36c0,6.82,3.32,7.45,4.76,7.45,1.62,0,3.32-.36,5.2-.9,1.53-.36,2.15,0,2.15,2.69,0,1.53-.27,2.87-.81,4.13-1.26,2.69-4.4,4.4-10.23,4.4-9.96,0-12.29-6.64-12.29-17.41v-14.72h-2.24c-2.96,0-3.41-.45-3.41-3.59v-2.87c0-3.14.45-3.59,3.41-3.59h2.42c.99-8.44,4.58-12.11,8.88-12.11,2.15,0,2.15.9,2.15,3.95Z"/>
    </g>
    <g>
      <path class="cls-2" d="m584.11,732.64c2.92,0,5.15.72,6.44,1.48,1.14.64,1.33,1.33,1.33,2.05,0,.49-.15.57-.68.34-1.59-.8-3.37-1.82-7.01-1.82-7.62,0-10.87,5-10.87,12.2s3.14,11.52,10.84,11.52c3.56,0,5.19-.64,7.39-1.55.53-.23.68-.08.68.42,0,.34-.15,1.1-.99,1.63-1.17.76-3.71,1.55-7.2,1.55-8.49,0-13.15-4.55-13.15-13.53s4.66-14.28,13.22-14.28Z"/>
      <path class="cls-2" d="m607.6,759.08c0,.72-.15.87-.83.87h-.61c-.72,0-.87-.15-.87-.87v-24.97c0-.83.15-.98.95-.98h.42c.83,0,.95.15.95.98v24.97Z"/>
      <path class="cls-2" d="m625.52,749.27v9.81c0,.72-.15.87-.83.87h-.61c-.72,0-.87-.15-.87-.87v-24.97c0-.83.15-.98.95-.98h5.76c5.53,0,9.59,2.42,9.59,7.88,0,4.62-2.46,7.05-6.18,7.92l6.74,10.08c.42.64.3.95-.38.95h-.53c-.99,0-1.17-.08-1.55-.64l-6.63-10.08c-.34.04-.72.04-1.06.04h-4.4Zm0-14.17v12.2h4.4c4.36,0,7.12-1.86,7.12-6.29,0-4.09-2.77-5.91-7.12-5.91h-4.4Z"/>
      <path class="cls-2" d="m656.24,751.13c0,4.05,1.89,7.31,6.71,7.31,5.27,0,7.12-3.26,7.12-7.31v-16.94c0-.91.15-1.06,1.06-1.06h.23c.95,0,1.06.15,1.06,1.06v16.97c0,5.49-2.88,9.28-9.47,9.28-6.21,0-9.05-3.79-9.05-9.28v-16.97c0-.91.11-1.06,1.02-1.06h.27c.95,0,1.06.15,1.06,1.06v16.94Z"/>
      <path class="cls-2" d="m697.16,733.13h.23c.95,0,1.06.15,1.06,1.06v18.45c0,6.37-3.9,7.81-7.58,7.81-2.8,0-4.4-.61-5.53-1.17-.91-.53-1.02-1.33-1.02-1.74,0-.49.19-.49.72-.27,1.4.61,2.8,1.14,5.34,1.14,3.33,0,5.72-1.33,5.72-6.02v-18.19c0-.91.11-1.06,1.06-1.06Z"/>
      <path class="cls-2" d="m727.92,751.92h-11.78l-2.73,7.31c-.23.61-.42.72-1.06.72h-.8c-.53,0-.72-.23-.53-.76l9.62-25.38c.23-.57.42-.68,1.1-.68h.68c.68,0,.83.19.99.68l9.62,25.38c.19.53,0,.76-.49.76h-.95c-.64,0-.8-.11-.99-.76l-2.69-7.27Zm-11.03-2.05h10.27l-5.11-13.83-5.15,13.83Z"/>
      <path class="cls-2" d="m765.13,759.16c0,.64-.15.8-.8.8h-1.21c-.38,0-.61-.08-.83-.42l-10.42-17.39c-1.29-2.16-2.77-4.55-3.71-6.59.19,2.46.19,5.15.19,7.65v15.95c0,.64-.11.8-.8.8h-.57c-.64,0-.8-.15-.8-.8v-25.16c0-.76.11-.87.91-.87h1.21c.57,0,.76.15,1.25,1.06l11.52,19.21c.72,1.25,1.55,2.99,2.24,4.36-.19-1.4-.34-3.64-.34-5.04v-18.72c0-.72.15-.87.91-.87h.38c.72,0,.87.15.87.87v25.16Z"/>
      <path class="cls-2" d="m791.99,760.45c-8.79,0-12.84-5.83-12.84-13.72s4.21-14.06,12.84-14.06,12.88,6.06,12.88,14.06-4.02,13.72-12.88,13.72Zm0-2.05c7.69,0,10.46-5.57,10.46-11.71s-2.8-11.97-10.46-11.97-10.46,5.68-10.46,11.97,2.8,11.71,10.46,11.71Z"/>
      <path class="cls-2" d="m847.76,760.45c-8.79,0-12.84-5.83-12.84-13.72s4.21-14.06,12.84-14.06,12.88,6.06,12.88,14.06-4.02,13.72-12.88,13.72Zm0-2.05c7.69,0,10.46-5.57,10.46-11.71s-2.8-11.97-10.46-11.97-10.46,5.68-10.46,11.97,2.8,11.71,10.46,11.71Z"/>
      <path class="cls-2" d="m893.53,759.16c0,.64-.15.8-.8.8h-1.21c-.38,0-.61-.08-.83-.42l-10.42-17.39c-1.29-2.16-2.77-4.55-3.71-6.59.19,2.46.19,5.15.19,7.65v15.95c0,.64-.11.8-.8.8h-.57c-.64,0-.8-.15-.8-.8v-25.16c0-.76.11-.87.91-.87h1.21c.57,0,.76.15,1.25,1.06l11.52,19.21c.72,1.25,1.55,2.99,2.24,4.36-.19-1.4-.34-3.64-.34-5.04v-18.72c0-.72.15-.87.91-.87h.38c.72,0,.87.15.87.87v25.16Z"/>
      <path class="cls-2" d="m920.77,732.64c2.92,0,5.15.72,6.44,1.48,1.14.64,1.33,1.33,1.33,2.05,0,.49-.15.57-.68.34-1.59-.8-3.37-1.82-7.01-1.82-7.62,0-10.87,5-10.87,12.2s3.14,11.52,10.84,11.52c3.56,0,5.19-.64,7.39-1.55.53-.23.68-.08.68.42,0,.34-.15,1.1-.99,1.63-1.17.76-3.71,1.55-7.2,1.55-8.49,0-13.15-4.55-13.15-13.53s4.66-14.28,13.22-14.28Z"/>
      <path class="cls-2" d="m952.51,760.45c-8.79,0-12.84-5.83-12.84-13.72s4.21-14.06,12.84-14.06,12.88,6.06,12.88,14.06-4.02,13.72-12.88,13.72Zm0-2.05c7.69,0,10.46-5.57,10.46-11.71s-2.8-11.97-10.46-11.97-10.46,5.68-10.46,11.97,2.8,11.71,10.46,11.71Zm1.1-31.18c.42-.57.57-.64,1.25-.64h1.1c.53,0,.64.3.23.72l-3.64,3.94c-.27.27-.45.34-.87.34h-1.02c-.3,0-.42-.11-.19-.42l3.14-3.94Z"/>
      <path class="cls-2" d="m979.34,759.08v-24.97c0-.83.15-.98.95-.98h.42c.83,0,.95.15.95.98v23.79h11.14c.76,0,.87.15.87.8v.46c0,.68-.11.8-.87.8h-12.58c-.72,0-.87-.15-.87-.87Z"/>
      <path class="cls-2" d="m1015.86,760.45c-8.79,0-12.84-5.83-12.84-13.72s4.21-14.06,12.84-14.06,12.88,6.06,12.88,14.06-4.02,13.72-12.88,13.72Zm0-2.05c7.69,0,10.46-5.57,10.46-11.71s-2.8-11.97-10.46-11.97-10.46,5.68-10.46,11.97,2.8,11.71,10.46,11.71Z"/>
      <path class="cls-2" d="m1056.13,746.28h6.9c.87,0,.95.11.95,1.06v10.23c0,.72-.11.95-.72,1.17-2.99,1.25-5.46,1.71-8.52,1.71-9.66,0-13.64-5.68-13.64-13.75,0-8.71,4.32-14.02,13.72-14.02,4.17,0,6.71,1.06,8.15,2.08.76.57.87,1.36.87,1.71,0,.42-.08.68-.49.49-1.86-1.06-4.28-2.24-8.37-2.24-8.03,0-11.4,4.43-11.4,11.97,0,7.08,3.22,11.67,11.18,11.67,1.74,0,4.28-.15,6.93-1.36v-8.71h-4.7c-1.06,0-1.67-.64-1.67-1.52,0-.45.19-.49.83-.49Z"/>
      <path class="cls-2" d="m1089.66,760.45c-8.79,0-12.84-5.83-12.84-13.72s4.21-14.06,12.84-14.06,12.88,6.06,12.88,14.06-4.02,13.72-12.88,13.72Zm0-2.05c7.69,0,10.46-5.57,10.46-11.71s-2.8-11.97-10.46-11.97-10.46,5.68-10.46,11.97,2.8,11.71,10.46,11.71Z"/>
    </g>
    <g>
      <path class="cls-2" d="m519.46,545.45h-11c-2.2,0-2.64-.44-2.64-2.75v-32.89c0-2.91.39-3.3,3.19-3.3h10.45c12.98,0,19.14,7.75,19.14,19.41s-6.05,19.52-19.14,19.52Zm-6.49-32.56v26.18h7.04c8.25,0,10.89-6.54,10.89-13.2s-2.86-12.98-10.89-12.98h-7.04Z"/>
      <path class="cls-2" d="m550.15,534.51v8.19c0,2.31-.39,2.75-2.64,2.75h-1.59c-2.2,0-2.64-.44-2.64-2.75v-20.29c0-1.87,0-2.42,1.32-2.42,3.02,0,4.67.99,5.28,3.24,1.26-3.02,3.3-4.01,5.61-4.01,3.3,0,4.29,1.87,4.29,5.17,0,1.32-.17,1.59-1.43,1.43-1.37-.17-1.87-.27-2.53-.27-4.07,0-5.66,3.3-5.66,8.96Z"/>
      <path class="cls-2" d="m564.01,538.35c2.36,0,4.01,1.54,4.01,3.85s-1.65,3.9-4.01,3.9-4.01-1.54-4.01-3.9,1.65-3.85,4.01-3.85Z"/>
    </g>
  </g>
</svg>