<?xml version="1.0" encoding="UTF-8"?>
<svg id="Layer_2" data-name="Layer 2" xmlns="http://www.w3.org/2000/svg" viewBox="0 0 1200 1200">
  <defs>
    <style>
      .cls-1 {
        letter-spacing: .17em;
      }

      .cls-2 {
        fill: #fff;
      }

      .cls-3, .cls-4, .cls-5 {
        fill: #656565;
      }

      .cls-6 {
        fill: #6c6c6c;
      }

      .cls-7 {
        fill: #737373;
      }

      .cls-8, .cls-9 {
        fill: #707070;
      }

      .cls-10 {
        fill: #6d6d6d;
      }

      .cls-11, .cls-12 {
        fill: #777;
      }

      .cls-13 {
        letter-spacing: 0em;
      }

      .cls-12 {
        font-family: AinslieSans-NorBoo, 'Ainslie Sans';
        font-size: 42.34px;
      }

      .cls-14 {
        letter-spacing: 0em;
      }

      .cls-15 {
        letter-spacing: .2em;
      }

      .cls-16 {
        letter-spacing: .2em;
      }

      .cls-4 {
        font-size: 61.46px;
      }

      .cls-4, .cls-5 {
        font-family: AinslieSans-ConBol, 'Ainslie Sans';
      }

      .cls-9 {
        fill-rule: evenodd;
      }

      .cls-17 {
        letter-spacing: -.04em;
      }

      .cls-5 {
        font-size: 100.28px;
      }

      .cls-18 {
        letter-spacing: .18em;
      }

      .cls-19 {
        letter-spacing: .19em;
      }
    </style>
  </defs>
  <text class="cls-5" transform="translate(313.57 901.54)"><tspan x="0" y="0">Carlos </tspan><tspan class="cls-13" x="279.27" y="0">E</tspan><tspan class="cls-14" x="329.31" y="0">nrique</tspan><tspan x="-65.33" y="86.69">López Betancourt</tspan></text>
  <text class="cls-12" transform="translate(304.84 1072.32)"><tspan class="cls-15" x="0" y="0">CIR</tspan><tspan class="cls-19" x="91.24" y="0">UJ</tspan><tspan class="cls-15" x="157.58" y="0">ANO ON</tspan><tspan class="cls-18" x="376.21" y="0">C</tspan><tspan class="cls-16" x="412.11" y="0">Ó</tspan><tspan class="cls-1" x="454.62" y="0">L</tspan><tspan class="cls-16" x="482.9" y="0">OGO</tspan></text>
  <text class="cls-4" transform="translate(230.68 832.61)"><tspan x="0" y="0">D</tspan><tspan class="cls-17" x="42.84" y="0">r</tspan><tspan x="62.32" y="0">.</tspan></text>
  <path class="cls-3" d="m729.96,465.52l-28.85-12.71c-1.32-.53-3.18-.8-4.5-.53l-22.51,3.97c-1.59-2.38-3.44-4.5-5.56-6.62l16.41-20.65c2.65-3.44,2.92-8.47.27-11.91l-16.94-24.36c3.97-8.47,3.18-19.06-3.18-27.27-5.56-7.42-14.03-11.12-22.24-10.59-2.12,0-3.7,2.38-2.92,4.5l6.35,18.26c.8,2.12-1.59,3.97-3.44,2.65l-16.15-10.86c-1.85-1.32-4.5-.53-5.03,1.59-2.38,7.67-1.05,16.94,4.5,24.36,6.62,8.47,17.21,12.18,26.48,10.06l11.91,17.21-12.44,15.62c-4.77-2.38-9.79-4.5-15.36-6.09.27-.8.27-1.32.27-2.12,0-5.56-4.5-10.06-10.06-10.06-5.03,0-9.27,3.7-9.79,8.74-2.65-.27-5.56-.27-8.21-.27s-5.56.27-8.21.27c-.53-4.77-4.77-8.74-9.79-8.74-5.56,0-10.06,4.5-10.06,10.06,0,.8,0,1.59.27,2.12-5.56,1.59-10.59,3.7-15.36,6.09l-12.44-15.62,11.91-17.21c9.27,2.12,19.86-1.59,26.48-10.06,5.56-7.42,6.89-16.41,4.5-24.36-.8-2.12-3.18-2.92-5.03-1.59l-16.15,10.86c-1.85,1.32-4.24-.53-3.44-2.65l6.35-18.26c.8-2.12-.8-4.5-2.92-4.5-8.21-.27-16.68,3.44-22.24,10.59-6.35,8.21-7.15,19.06-3.18,27.27l-16.94,24.36c-2.65,3.7-2.38,8.47.27,11.91l16.41,20.65c-2.12,2.12-3.97,4.5-5.56,6.62l-22.24-3.97c-1.59-.27-3.18,0-4.5.53l-29.12,12.71c-4.24,1.85-6.09,6.62-4.24,10.59,1.32,3.18,4.24,4.77,7.42,4.77,1.05,0,2.12-.27,3.18-.8l26.75-11.65,16.41,2.92v7.15l-17.48,2.38c-1.85.27-3.44,1.05-4.5,2.38l-21.71,21.71c-3.18,3.18-3.18,8.21,0,11.39,1.59,1.59,3.7,2.38,5.82,2.38s4.24-.8,5.82-2.38l19.86-19.86,16.94-2.38c1.32,2.12,2.65,4.5,4.24,6.35l-12.44,7.42c-1.32.8-2.12,1.85-2.92,2.92l-12.71,23.3c-2.12,3.97-.8,8.74,3.18,11.12,1.32.8,2.65,1.05,3.97,1.05,2.92,0,5.56-1.59,7.15-4.24l11.65-21.18,14.83-9c12.97,8.74,30.72,14.03,50.04,14.03s37.34-5.3,50.04-14.03l14.83,9,11.65,21.18c1.59,2.65,4.24,4.24,7.15,4.24,1.32,0,2.65-.27,3.97-1.05,3.97-2.12,5.3-7.15,3.18-11.12l-12.95-22.77c-.8-1.32-1.59-2.38-2.92-2.92l-12.44-7.67c1.59-2.12,2.92-4.24,4.24-6.35l16.94,2.38,19.86,19.86c1.59,1.59,3.7,2.38,5.82,2.38s4.24-.8,5.82-2.38c3.18-3.18,3.18-8.21,0-11.39l-21.71-21.71c-1.32-1.32-2.92-2.12-4.5-2.38l-17.74-2.65v-1.59c0-1.85-.27-3.7-.53-5.3l16.41-2.92,26.75,11.65c1.05.53,2.12.8,3.18.8,3.18,0,6.09-1.85,7.42-4.77,2.11-4.23.26-9-3.71-10.85h0Z"/>
  <path class="cls-10" d="m608.57,116.8c-3.51.03-6.65,3.25-6.62,6.75v64.21l-8.99,9.88c.6-14.88,1.47-29.78,2.3-44.73-.28-4.83-3.92-7.45-8.29-6.89-29.61,7.39-51.44,33.27-63.95,64.07-12.52,30.8-16.01,67.03-7.73,97.74.76,2.79,3.51,4.91,6.41,4.94,13.65-1.64,26.53-7.01,38.39-12.25,12.24-5.98,31.8-14.25,32.95-28.17-1-18.02-1.04-36.08-.63-54.19l16.23-17.88,16.58,18.15c.4,18.02.3,35.99-.7,53.92,2.85,15.68,21.13,22.89,32.95,28.17,12.64,4.35,25.71,12.1,38.39,12.25,2.9-.03,5.65-2.15,6.41-4.94,8.28-30.71,4.78-66.94-7.73-97.74-12.52-30.8-34.34-56.68-63.95-64.07-4.31-.81-8.39,3.58-8.29,6.89.84,15.08,1.7,30.08,2.3,45.08l-9.26-10.23v-64.21c.03-3.54-3.21-6.79-6.76-6.75h0Z"/>
  <g>
    <path class="cls-6" d="m806.87,371.08c9.01-.16,16.97-1.42,24.75-3.88,8.2-2.6,16.02-6.12,23.22-10.73,7.21-4.62,13.3-10.65,18.43-17.56,4.82-6.51,8.54-13.59,10.89-21.37,2.52-8.32,3.5-16.79,3.2-25.52-.28-8.12-1.48-16.02-3.97-23.73-2.97-9.2-7.5-17.5-14.19-24.58-5.51-5.82-12.01-10.18-19.43-13.14-5.62-2.24-11.44-3.89-17.47-4.35-7.36-.57-14.25,1.49-20.78,4.73-5.71,2.84-10.45,6.87-14.04,12.2-.32.48-1.1,1.06-1.55.97-1.84-.38-3.71-.81-5.42-1.56-5.13-2.22-8.39-6.39-10.55-11.34-1-2.3-2.15-3.79-4.77-3.71-.22,0-.44-.14-.66-.16-4.73-.48-9.35-.26-13.5,2.38-3.95,2.52-6.1,6.32-7.27,10.74-.12.43.07,1,.25,1.45,2.38,6,5.89,11.33,10.19,16.08,6.75,7.45,14.91,12.95,24.2,16.8,1.56.65,3.48,1.17,4.46,2.38,4.72,5.81,8.4,12.22,9.52,19.77.68,4.56.11,8.96-2.39,12.96-2.52,4.02-6.12,6.86-10.26,9.01-5.97,3.1-12.41,4.72-18.97,5.93-2.77.52-5.49.88-8.36.32-3.48-.68-7.04-1.1-10.59-1.27-5.61-.28-11.17.32-16.53,2.05-8.99,2.89-15.5,8.49-18.96,17.47-2.99,7.78-3.11,15.84-2.61,23.98.03.54.46,1.2.9,1.54,4.25,3.4,10.69,3.78,15.37.96,1.75-1.05,2.73-2.31,2.82-4.65.25-6.23,2.56-11.75,7.27-15.99,1.28-1.14,2.97-2.05,4.63-2.52,3.95-1.13,7.44.45,10.54,2.69,2.52,1.83,4.69,4.13,7.13,6.05,13.3,10.47,28.55,15.37,44.54,15.61h0Z"/>
    <path class="cls-6" d="m806.87,371.08c-15.98-.25-31.23-5.13-44.54-15.6-2.46-1.93-4.63-4.22-7.13-6.05-3.1-2.25-6.59-3.83-10.54-2.69-1.65.47-3.34,1.38-4.63,2.52-4.72,4.24-7.03,9.76-7.27,15.99-.09,2.34-1.07,3.59-2.82,4.65-4.66,2.82-11.12,2.44-15.37-.96-.44-.36-.86-1.01-.9-1.54-.5-8.14-.38-16.19,2.61-23.98,3.45-8.98,9.98-14.58,18.96-17.47,5.37-1.72,10.93-2.32,16.53-2.05,3.54.17,7.11.6,10.59,1.27,2.87.56,5.59.19,8.36-.32,6.56-1.22,13.01-2.83,18.97-5.93,4.15-2.15,7.74-4.98,10.26-9.01,2.51-4,3.07-8.39,2.39-12.96-1.12-7.56-4.8-13.97-9.52-19.77-.98-1.2-2.9-1.73-4.46-2.38-9.29-3.85-17.45-9.35-24.2-16.8-4.3-4.75-7.81-10.08-10.19-16.08-.18-.46-.36-1.02-.25-1.45,1.17-4.42,3.32-8.22,7.27-10.74,4.15-2.65,8.78-2.86,13.5-2.38.22.02.45.17.66.16,2.63-.08,3.77,1.41,4.77,3.71,2.16,4.95,5.41,9.11,10.55,11.34,1.71.74,3.58,1.18,5.42,1.56.44.09,1.23-.49,1.55-.97,3.59-5.33,8.33-9.36,14.04-12.2,6.52-3.24,13.42-5.3,20.78-4.73,6.03.46,11.84,2.12,17.47,4.35,7.44,2.96,13.92,7.31,19.43,13.14,6.69,7.07,11.23,15.37,14.19,24.58,2.49,7.71,3.69,15.6,3.97,23.73.3,8.72-.69,17.2-3.2,25.52-2.35,7.78-6.07,14.86-10.89,21.37-5.13,6.92-11.22,12.94-18.43,17.56-7.2,4.61-15.03,8.12-23.22,10.73-7.78,2.45-15.73,3.71-24.74,3.87h0Z"/>
  </g>
  <g>
    <path class="cls-7" d="m413.47,461.38c-.33,5.38-4.8,9.65-10.26,9.65s-9.93-4.28-10.24-9.65c-1.51-.51-3-1.12-4.42-1.84-4.02,3.58-10.22,3.45-14.09-.41-3.85-3.87-3.98-10.06-.41-14.09-.72-1.43-1.34-2.9-1.84-4.42-5.38-.31-9.65-4.78-9.65-10.24s4.28-9.95,9.65-10.26c.04-.1.08-.2.11-.29-7.3-2.56-15.15-3.97-23.32-3.97-38.94,0-70.64,31.68-70.64,70.64s31.7,70.64,70.64,70.64,70.64-31.7,70.64-70.64c0-9.06-1.72-17.69-4.84-25.67-.44.17-.9.37-1.35.53h0Zm-64.45,58.04c-18.14,0-32.9-14.76-32.9-32.9s14.76-32.9,32.9-32.9,32.9,14.75,32.9,32.9-14.75,32.9-32.9,32.9Z"/>
    <path class="cls-7" d="m349.02,461.36c-13.88,0-25.16,11.28-25.16,25.16s11.28,25.16,25.16,25.16,25.16-11.28,25.16-25.16-11.28-25.16-25.16-25.16Zm0,38.71c-7.47,0-13.55-6.08-13.55-13.55s6.08-13.55,13.55-13.55,13.55,6.08,13.55,13.55-6.08,13.55-13.55,13.55Z"/>
    <path class="cls-7" d="m354.83,486.52c0,7.74-11.61,7.74-11.61,0s11.61-7.74,11.61,0"/>
  </g>
  <path class="cls-6" d="m494.36,563.29c2.64-.89,4.65-1.21,5.99-1.22,1.4,17.73-13.39,38.4-30.77,54.89-8.97,8.51-18.52,15.92-26.5,21.3-5.57,3.58-10.58,7.04-16.85,9.02-3.39,1.1-5.67,3.67-7.31,6.4-1.97,3.27-3.36,6.93-3.69,9.67-.18,1.06.66,2.18,1.72,2.32,1.07.13,2.15-.74,2.24-1.81.21-1.69,1.43-5.33,3.11-8.14.79-1.38,1.89-2.53,2.9-3.56,3.88,18.54-3.65,30.86-14.18,37.55-10.99,6.98-25.32,7.33-33.07,1.52-4.67-3.98-9.25-10.82-10.32-15.85-1.76-8.23-3.64-18.12-1.16-28.54,4.98-20.85,23.84-43.4,73.46-53.77.16-.03.32-.09.47-.17,8.32-4.08,21.56-12.56,33.98-19.67,6.8-3.68,13.2-7.46,19.97-9.94h0Zm-13.59,18.12c-.38.22-.68.57-.85.97-3.64,7.71-11.24,13.8-20.84,19.33-9.6,5.53-21.14,10.49-32.34,16.1-11.2,5.61-22.04,11.9-30.35,20.36-8.3,8.45-14,19.18-14.51,33.1-.02,1.05.91,2.03,1.96,2.05,1.05.02,2.03-.91,2.05-1.96.47-12.93,5.58-22.52,13.35-30.43,7.77-7.91,18.25-14.04,29.3-19.58,11.05-5.54,22.61-10.46,32.52-16.16,9.91-5.7,18.26-12.22,22.46-21.11.78-1.51-1.26-3.48-2.74-2.66h0Z"/>
  <path class="cls-9" d="m397.33,221.87l42.36,69.46c10.47-20.45,22.86-41.58,30.04-63.28,6.55-19.8,5.05-44.56-21.81-33.28-16.45,6.9-34.19,18.71-50.58,27.1m36.69,80.51l-46.39-76.07c-9.11,3.61-17.73,6.17-26.35,11.26-29.49,17.39-45.27,46.82-31.86,80.2,5.56,13.84,16.58,27.92,23.07,42.76,16.82,38.44,35.33,20.2,51.92-5.19,9.93-15.19,19.95-34.17,29.61-52.95h0Z"/>
  <g>
    <path class="cls-8" d="m810.21,611.05c-2.59-1.24-5.17-2.85-7.41-4.98-11.04-10.55-15.2-25.89-15.23-26.05l-9.45,2.5c.19.74,4.92,18.19,17.94,30.62,1.22,1.16,2.49,2.21,3.8,3.14.39.28.8.52,1.2.77.05-.05.09-.11.14-.16,2.69-2.69,5.78-4.56,9.01-5.84h0Z"/>
    <path class="cls-8" d="m767.14,622.94c-24.81,9.7-32.15,38.28-32.64,39.39l8.04,3.53c.11-.23,3.81-17.31,23.81-25.03,1.84-.71,3.96-1.22,6.22-1.57-1.58,1.32-3.13,2.75-4.54,4.37-8.24,9.42-14.33,33.73,6.58,47.62,68.48,45.46,143.9-79.24,83.26-124.01-37.24-27.49-64.69,11.82-54.64,30.62,3.46,6.48,7.24,10.12,10.1,12.15,14.06-3.89,29.76,1.97,30.62,2.3,1.26.49,1.9,1.91,1.41,3.18-.49,1.26-1.91,1.89-3.18,1.41-.24-.1-24.73-9.31-37.49,3.46-12.77,12.77-5.5,35.37-5.42,35.59.43,1.29-.27,2.68-1.56,3.11-.26.08-.52.12-.77.12-1.03,0-1.98-.65-2.33-1.67-.34-1.03-8.04-24.93,5.99-39.92-2.2-.93-4.53-1.94-7.06-3.08-13.09-5.92-26.96-15.45-27.1-15.54l-5.55,8.05c.48.33,9.99,6.86,21.01,12.65-5.65.74-10.97,1.78-14.75,3.26h0Z"/>
  </g>
  <path class="cls-7" d="m942.51,429.72c0-19.74-14.91-35.79-33.24-35.79-7.03,0-13.55,2.37-18.92,6.4l.04-.05s-.06.05-.08.08c-.7.53-1.4,1.07-2.06,1.66-1.75,1-3.54.96-5.29-.11-.57-.51-1.14-1-1.76-1.44-.06-.06-.13-.12-.2-.19l.06.1c-6.81-4.9-16.75-6.45-27.84-6.45s-21.03,1.55-27.84,6.45l.06-.09c-.06.07-.13.12-.19.18-.62.45-1.21.94-1.78,1.45-1.75,1.07-3.53,1.1-5.28.11-.66-.59-1.35-1.13-2.06-1.66-.03-.03-.06-.05-.09-.08l.04.04c-5.36-4.03-11.88-6.4-18.91-6.4-18.33,0-33.24,16.06-33.24,35.79,0,8.75,2.94,16.77,7.8,22.99,0,.08-.01.16-.01.24,0,10.62,8,16.28,17.87,16.28s17.87-11.58,17.87-22.2c0-.9-.08-1.7-.19-2.45l10.28-11.07c2.92,12.68,9.9,25.78,19.02,33.52-.02.14-.08.27-.08.41,0,1.25.71,2.32,1.72,2.78l3.61,50.3c0,6.79,5.1,12.29,11.41,12.29s11.41-5.5,11.41-12.29l3.61-50.3c1-.46,1.72-1.53,1.72-2.78,0-.15-.06-.27-.08-.41,9.17-7.77,16.17-20.98,19.06-33.73l10.28,11.06c-.13.81-.22,1.67-.22,2.66,0,10.62,8.01,22.2,17.87,22.2s17.87-5.66,17.87-16.28c0-.08-.01-.16-.01-.24,4.87-6.22,7.81-14.24,7.81-22.99h0Zm-137.82,9.65c-3.17-2.79-8.74-2.69-15.11-2.69-4.42,0-8.46,1.14-11.57,3.36-1.44-3.1-2.28-6.6-2.28-10.31,0-12.73,9.63-23.1,21.44-23.1,8.23,0,15.4,5.03,18.99,12.38-.04.74-.11,1.45-.11,2.23,0,3.28.39,6.75,1.08,10.28l-12.44,7.85Zm123.74.66c-3.12-2.2-7.16-3.36-11.57-3.36-6.31,0-11.85-.09-15.02,2.61l-12.5-7.9c.68-3.48,1.05-6.91,1.05-10.15,0-.78-.07-1.49-.11-2.23,3.59-7.35,10.75-12.39,18.99-12.39,11.82,0,21.44,10.36,21.44,23.1,0,3.71-.84,7.21-2.28,10.31h0Z"/>
  <g>
    <path class="cls-11" d="m403.21,466.76c-3.3,0-5.99-2.69-5.99-6v-2.32c0-.19-.12-.35-.29-.39-3.12-.71-6.08-1.94-8.81-3.67-.05-.03-.14-.05-.2-.05-.13,0-.24.05-.34.14l-1.6,1.62c-1.15,1.15-2.65,1.77-4.26,1.77s-3.11-.62-4.24-1.76c-2.34-2.34-2.34-6.15,0-8.49l1.68-1.66c.12-.12.14-.34.04-.51-1.72-2.73-2.95-5.68-3.65-8.76-.04-.2-.2-.32-.39-.32h-2.32c-3.31,0-6-2.69-6-5.99s2.69-6,6-6h2.32c.19,0,.35-.11.39-.28.71-3.15,1.95-6.1,3.67-8.82.08-.13.06-.36-.07-.49l-1.66-1.66c-2.33-2.33-2.33-6.13,0-8.47,1.11-1.1,2.66-1.73,4.25-1.73s3.12.62,4.24,1.73l1.65,1.65c.11.11.23.12.3.12.07,0,.14-.02.2-.06,2.79-1.73,5.74-2.95,8.79-3.64.18-.04.32-.21.32-.39v-2.34c0-3.3,2.69-5.99,5.99-5.99s6,2.69,6,5.99v2.34c0,.19.13.35.32.39,3.08.7,6.03,1.92,8.76,3.63.08.05.14.07.21.07.06,0,.19-.02.3-.12l1.67-1.66c1.06-1.09,2.61-1.73,4.22-1.73s3.16.65,4.26,1.77c1.09,1.05,1.72,2.57,1.72,4.21s-.64,3.18-1.81,4.29l-1.6,1.6c-.11.12-.14.34-.04.49,1.72,2.75,2.94,5.7,3.64,8.79.04.17.2.3.39.3h2.34c3.3,0,5.99,2.69,5.99,6s-2.69,5.99-5.99,5.99h-2.34c-.18,0-.35.14-.39.33-.69,3.05-1.91,6-3.62,8.75-.11.18-.09.4.05.54l1.63,1.62c1.14,1.14,1.76,2.65,1.76,4.26s-.62,3.11-1.75,4.24-2.64,1.76-4.23,1.76-3.1-.62-4.23-1.76l-1.66-1.66c-.09-.09-.21-.11-.29-.11-.06,0-.15.01-.24.07-2.68,1.7-5.64,2.94-8.76,3.65-.19.04-.3.2-.3.39v2.32c0,3.31-2.69,6-6,6Zm9.89-30.75c-.23,0-.4.18-.4.4,0,3.93-3.2,7.13-7.13,7.13-.23,0-.4.18-.4.4s.18.4.4.4c4.37,0,7.93-3.56,7.93-7.93,0-.23-.17-.4-.4-.4Zm-25.58-9.04c-.22,0-.4.18-.4.4,0,4.37,3.56,7.93,7.93,7.93.2,0,.4-.15.4-.4,0-.22-.18-.4-.4-.4-3.93,0-7.13-3.2-7.13-7.13,0-.22-.18-.4-.4-.4Zm16.56-10.52c-.23,0-.4.17-.4.4s.18.4.4.4c3.92,0,7.1,3.2,7.1,7.13,0,.22.18.4.4.4s.4-.18.4-.4c0-4.37-3.55-7.93-7.91-7.93Z"/>
    <path class="cls-2" d="m403.21,397.49c1.39,0,2.53,1.13,2.53,2.52v2.34c0,1.8,1.24,3.36,3,3.77,2.73.62,5.32,1.7,7.7,3.19.63.4,1.34.6,2.05.6,1,0,2-.39,2.75-1.14l1.66-1.65c.47-.48,1.13-.73,1.78-.73s1.31.24,1.78.73c.48.47.73,1.1.73,1.78s-.25,1.32-.73,1.78l-1.66,1.66c-1.25,1.28-1.49,3.27-.52,4.8,1.49,2.38,2.57,4.97,3.19,7.7.41,1.76,1.97,3,3.77,3h2.34c1.4,0,2.52,1.14,2.52,2.53s-1.13,2.52-2.52,2.52h-2.34c-1.8,0-3.36,1.26-3.77,3.02-.62,2.73-1.7,5.31-3.19,7.7-.97,1.53-.73,3.52.52,4.8l1.66,1.65c.48.48.73,1.12.73,1.8s-.25,1.3-.73,1.78-1.14.74-1.78.74-1.29-.25-1.78-.74l-1.66-1.66c-.75-.75-1.74-1.13-2.74-1.13-.71,0-1.43.19-2.06.59-2.38,1.51-4.97,2.59-7.7,3.21-1.76.39-3,1.95-3,3.77v2.32c0,1.39-1.14,2.53-2.53,2.53s-2.52-1.14-2.52-2.53v-2.32c0-1.81-1.25-3.39-3.02-3.77-2.73-.62-5.31-1.7-7.7-3.21-.64-.39-1.35-.58-2.05-.58-1.01,0-2,.39-2.75,1.12l-1.65,1.66c-.5.5-1.14.74-1.79.74s-1.3-.25-1.79-.74c-.99-.99-.99-2.59,0-3.58l1.66-1.65c1.28-1.28,1.49-3.27.54-4.8-1.51-2.4-2.59-4.97-3.21-7.7-.39-1.76-1.95-3.02-3.77-3.02h-2.32c-1.39,0-2.53-1.13-2.53-2.52s1.14-2.53,2.53-2.53h2.32c1.81,0,3.39-1.24,3.77-3,.62-2.73,1.7-5.32,3.21-7.7.95-1.53.73-3.52-.54-4.8l-1.66-1.66c-.99-.99-.99-2.57,0-3.56.48-.48,1.14-.72,1.8-.72s1.3.24,1.79.72l1.65,1.65c.75.75,1.74,1.14,2.75,1.14.71,0,1.42-.19,2.05-.6,2.4-1.49,4.97-2.57,7.7-3.19,1.76-.41,3.02-1.97,3.02-3.77v-2.34c0-1.4,1.13-2.52,2.52-2.52m8.38,30.75c2.15,0,3.87-1.74,3.87-3.87,0-6.29-5.11-11.4-11.38-11.4-2.15,0-3.87,1.72-3.87,3.87s1.72,3.87,3.87,3.87c2.01,0,3.64,1.65,3.64,3.66,0,2.13,1.74,3.87,3.87,3.87m-16.54,10.52c2.12,0,3.87-1.72,3.87-3.87s-1.74-3.87-3.87-3.87c-2.01,0-3.66-1.65-3.66-3.66,0-2.13-1.74-3.87-3.87-3.87s-3.87,1.74-3.87,3.87c0,6.29,5.11,11.4,11.4,11.4m10.52,9.04c6.29,0,11.4-5.11,11.4-11.4,0-2.15-1.72-3.87-3.87-3.87s-3.87,1.72-3.87,3.87c0,2.01-1.65,3.66-3.66,3.66-2.13,0-3.87,1.72-3.87,3.87s1.74,3.87,3.87,3.87m-2.36-57.26c-5.21,0-9.45,4.24-9.45,9.45-1.82.57-3.6,1.31-5.33,2.21-1.77-1.77-4.15-2.75-6.69-2.75-2.5,0-4.93.99-6.68,2.73-1.81,1.81-2.79,4.18-2.79,6.7s.99,4.9,2.77,6.69h0c-.9,1.71-1.65,3.49-2.22,5.33-5.21.01-9.44,4.26-9.44,9.47s4.23,9.44,9.44,9.45c.57,1.83,1.31,3.61,2.22,5.33-3.69,3.72-3.68,9.71,0,13.39,1.79,1.79,4.17,2.77,6.7,2.77s4.9-.98,6.69-2.77c1.72.91,3.5,1.65,5.34,2.22.01,5.21,4.25,9.44,9.45,9.44s9.46-4.23,9.47-9.44c1.84-.57,3.62-1.32,5.33-2.22h0c1.79,1.79,4.16,2.78,6.68,2.78s4.9-.99,6.68-2.77c1.78-1.78,2.76-4.16,2.76-6.69s-.98-4.91-2.76-6.7c.9-1.72,1.64-3.51,2.22-5.34,5.21,0,9.45-4.24,9.45-9.45s-4.24-9.47-9.45-9.47c-.57-1.83-1.31-3.62-2.22-5.33,1.76-1.74,2.76-4.17,2.76-6.68s-.99-4.93-2.78-6.7c-1.74-1.75-4.17-2.75-6.67-2.75s-4.94,1-6.69,2.76c-1.72-.9-3.5-1.64-5.33-2.21,0-5.21-4.25-9.45-9.47-9.45h0Z"/>
  </g>
  <g>
    <path class="cls-11" d="m478.27,399.54c-3.3,0-5.99-2.69-5.99-6v-2.32c0-.19-.12-.35-.29-.39-3.12-.71-6.07-1.94-8.81-3.67-.05-.03-.14-.05-.2-.05-.13,0-.24.05-.34.14l-1.6,1.62c-1.14,1.15-2.65,1.77-4.25,1.77s-3.11-.62-4.24-1.76c-2.34-2.34-2.34-6.15,0-8.49l1.67-1.66c.12-.12.14-.34.04-.51-1.72-2.73-2.95-5.68-3.65-8.76-.04-.2-.2-.32-.39-.32h-2.32c-3.31,0-6-2.69-6-5.99s2.69-6,6-6h2.32c.19,0,.35-.11.39-.28.71-3.15,1.95-6.1,3.67-8.82.08-.13.06-.36-.07-.49l-1.66-1.66c-2.33-2.33-2.33-6.13,0-8.46,1.11-1.11,2.66-1.73,4.25-1.73s3.12.62,4.24,1.73l1.65,1.65c.11.11.23.12.3.12.07,0,.14-.02.2-.06,2.79-1.73,5.74-2.95,8.79-3.64.18-.04.32-.21.32-.39v-2.34c0-3.3,2.69-5.99,5.99-5.99s6,2.69,6,5.99v2.34c0,.19.13.35.32.39,3.08.7,6.03,1.92,8.76,3.63.08.05.14.07.21.07.06,0,.19-.02.3-.12l1.67-1.66c1.06-1.08,2.61-1.73,4.22-1.73s3.16.65,4.26,1.77c1.09,1.05,1.72,2.57,1.72,4.21s-.64,3.18-1.81,4.29l-1.6,1.61c-.11.12-.14.34-.04.49,1.72,2.75,2.94,5.7,3.64,8.79.04.17.2.3.39.3h2.34c3.3,0,5.99,2.69,5.99,6s-2.69,5.99-5.99,5.99h-2.34c-.18,0-.35.14-.39.33-.69,3.05-1.91,6-3.62,8.75-.11.18-.09.4.05.54l1.63,1.61c1.14,1.14,1.76,2.65,1.76,4.26s-.62,3.11-1.75,4.24c-1.13,1.13-2.64,1.76-4.23,1.76s-3.1-.62-4.23-1.76l-1.66-1.66c-.09-.09-.21-.11-.29-.11-.06,0-.15.01-.24.07-2.68,1.7-5.64,2.94-8.76,3.65-.19.04-.3.2-.3.39v2.32c0,3.31-2.69,6-6,6Zm9.89-30.75c-.23,0-.4.18-.4.4,0,3.93-3.2,7.13-7.13,7.13-.23,0-.4.18-.4.4s.18.4.4.4c4.37,0,7.93-3.56,7.93-7.93,0-.23-.17-.4-.4-.4Zm-25.58-9.04c-.22,0-.4.18-.4.4,0,4.37,3.56,7.93,7.93,7.93.2,0,.4-.15.4-.4,0-.22-.18-.4-.4-.4-3.93,0-7.13-3.2-7.13-7.13,0-.22-.18-.4-.4-.4Zm16.56-10.52c-.23,0-.4.17-.4.4s.18.4.4.4c3.92,0,7.1,3.2,7.1,7.13,0,.22.18.4.4.4s.4-.18.4-.4c0-4.37-3.55-7.93-7.91-7.93Z"/>
    <path class="cls-2" d="m478.27,330.27c1.39,0,2.53,1.13,2.53,2.52v2.34c0,1.8,1.24,3.36,3,3.77,2.73.62,5.32,1.7,7.7,3.19.63.4,1.34.6,2.05.6,1,0,2-.39,2.75-1.14l1.66-1.65c.47-.48,1.13-.73,1.78-.73s1.31.24,1.78.73c.48.47.73,1.1.73,1.78s-.25,1.32-.73,1.78l-1.66,1.66c-1.26,1.28-1.49,3.27-.52,4.8,1.49,2.38,2.57,4.97,3.19,7.7.41,1.76,1.97,3,3.77,3h2.34c1.4,0,2.52,1.14,2.52,2.53s-1.13,2.52-2.52,2.52h-2.34c-1.8,0-3.36,1.26-3.77,3.02-.62,2.73-1.7,5.31-3.19,7.7-.97,1.53-.73,3.52.52,4.8l1.66,1.65c.48.48.73,1.12.73,1.8s-.25,1.3-.73,1.78-1.14.74-1.78.74-1.29-.25-1.78-.74l-1.66-1.66c-.75-.75-1.74-1.13-2.74-1.13-.71,0-1.43.19-2.06.59-2.38,1.51-4.97,2.59-7.7,3.21-1.76.39-3,1.95-3,3.77v2.32c0,1.39-1.14,2.53-2.53,2.53s-2.52-1.14-2.52-2.53v-2.32c0-1.81-1.26-3.39-3.02-3.77-2.73-.62-5.31-1.7-7.7-3.21-.64-.39-1.35-.58-2.05-.58-1.01,0-2,.39-2.75,1.12l-1.65,1.66c-.5.5-1.14.74-1.79.74s-1.3-.25-1.79-.74c-.99-.99-.99-2.59,0-3.58l1.66-1.65c1.28-1.28,1.49-3.27.54-4.8-1.51-2.4-2.59-4.97-3.21-7.7-.39-1.76-1.95-3.02-3.77-3.02h-2.32c-1.39,0-2.53-1.13-2.53-2.52s1.14-2.53,2.53-2.53h2.32c1.81,0,3.39-1.24,3.77-3,.62-2.73,1.7-5.32,3.21-7.7.94-1.53.73-3.52-.54-4.8l-1.66-1.66c-.99-.99-.99-2.57,0-3.56.48-.48,1.14-.72,1.8-.72s1.3.24,1.79.72l1.65,1.65c.75.75,1.74,1.14,2.75,1.14.71,0,1.42-.19,2.05-.6,2.4-1.49,4.97-2.57,7.7-3.19,1.76-.41,3.02-1.97,3.02-3.77v-2.34c0-1.4,1.13-2.52,2.52-2.52m8.38,30.75c2.15,0,3.87-1.74,3.87-3.87,0-6.29-5.11-11.4-11.38-11.4-2.15,0-3.87,1.72-3.87,3.87s1.72,3.87,3.87,3.87c2.01,0,3.64,1.65,3.64,3.66,0,2.13,1.74,3.87,3.87,3.87m-16.54,10.52c2.12,0,3.87-1.72,3.87-3.87s-1.74-3.87-3.87-3.87c-2.01,0-3.66-1.65-3.66-3.66,0-2.13-1.74-3.87-3.87-3.87s-3.87,1.74-3.87,3.87c0,6.29,5.11,11.4,11.4,11.4m10.52,9.04c6.29,0,11.4-5.11,11.4-11.4,0-2.15-1.72-3.87-3.87-3.87s-3.87,1.72-3.87,3.87c0,2.01-1.65,3.66-3.66,3.66-2.13,0-3.87,1.72-3.87,3.87s1.74,3.87,3.87,3.87m-2.36-57.26c-5.21,0-9.45,4.24-9.45,9.45-1.82.57-3.6,1.31-5.33,2.21-1.77-1.77-4.15-2.75-6.69-2.75-2.5,0-4.93.99-6.68,2.73-3.71,3.71-3.71,9.7-.02,13.39h0c-.9,1.71-1.65,3.49-2.22,5.33-5.21.01-9.44,4.26-9.44,9.47s4.23,9.44,9.44,9.45c.57,1.83,1.31,3.61,2.22,5.33-3.69,3.72-3.68,9.71,0,13.39,1.79,1.79,4.17,2.77,6.7,2.77s4.9-.98,6.69-2.77c1.72.91,3.5,1.65,5.34,2.22.01,5.21,4.25,9.44,9.45,9.44s9.45-4.23,9.47-9.44c1.84-.57,3.62-1.32,5.33-2.22h0c1.79,1.79,4.16,2.78,6.68,2.78s4.9-.99,6.68-2.77c1.78-1.78,2.76-4.16,2.76-6.69s-.98-4.91-2.76-6.7c.9-1.72,1.64-3.51,2.22-5.34,5.21,0,9.45-4.24,9.45-9.45s-4.24-9.47-9.45-9.47c-.57-1.83-1.31-3.62-2.22-5.33,1.76-1.74,2.76-4.16,2.76-6.68s-.99-4.93-2.78-6.7c-1.74-1.75-4.17-2.74-6.67-2.74s-4.94,1-6.69,2.76c-1.72-.9-3.5-1.64-5.33-2.21,0-5.21-4.25-9.45-9.47-9.45h0Z"/>
  </g>
  <g>
    <path class="cls-11" d="m608.78,604.44c-3.3,0-5.99-2.69-5.99-6v-2.32c0-.19-.12-.35-.29-.39-3.12-.71-6.08-1.94-8.81-3.67-.04-.03-.14-.05-.2-.05-.13,0-.24.05-.34.14l-1.6,1.62c-1.15,1.15-2.65,1.77-4.26,1.77s-3.11-.62-4.24-1.76c-1.13-1.13-1.76-2.64-1.76-4.24s.62-3.11,1.76-4.24l1.67-1.66c.12-.12.14-.35.04-.51-1.71-2.73-2.95-5.68-3.65-8.76-.04-.2-.2-.32-.39-.32h-2.32c-3.31,0-6-2.69-6-5.99s2.69-6,6-6h2.32c.19,0,.35-.11.38-.28.71-3.15,1.95-6.1,3.67-8.82.08-.13.06-.36-.07-.49l-1.66-1.66c-1.13-1.13-1.76-2.64-1.76-4.23s.62-3.1,1.76-4.23c1.11-1.1,2.66-1.73,4.25-1.73s3.12.62,4.24,1.73l1.65,1.65c.11.11.23.12.3.12.07,0,.14-.02.2-.06,2.79-1.73,5.74-2.95,8.79-3.64.18-.04.32-.21.32-.39v-2.34c0-3.3,2.69-5.99,5.99-5.99s6,2.69,6,5.99v2.34c0,.19.13.35.32.39,3.08.7,6.03,1.92,8.76,3.63.08.05.14.07.21.07.06,0,.19-.02.3-.12l1.68-1.66c1.06-1.08,2.61-1.73,4.22-1.73s3.16.65,4.26,1.77c1.08,1.05,1.72,2.57,1.72,4.21s-.64,3.18-1.81,4.29l-1.6,1.6c-.11.12-.14.34-.04.49,1.72,2.75,2.94,5.7,3.64,8.79.04.17.2.3.39.3h2.34c1.61,0,3.12.63,4.25,1.77,1.12,1.13,1.74,2.63,1.74,4.23,0,3.3-2.69,5.99-5.99,5.99h-2.34c-.18,0-.35.14-.39.33-.69,3.05-1.91,6-3.62,8.75-.11.18-.09.4.05.54l1.63,1.62c1.14,1.14,1.76,2.65,1.76,4.26s-.62,3.11-1.75,4.24-2.64,1.76-4.23,1.76-3.1-.62-4.23-1.76l-1.66-1.66c-.09-.09-.21-.11-.29-.11-.06,0-.15.01-.24.07-2.68,1.7-5.64,2.94-8.76,3.65-.19.04-.3.2-.3.39v2.32c0,3.31-2.69,6-6,6Zm9.89-30.75c-.23,0-.4.18-.4.4,0,3.93-3.2,7.13-7.13,7.13-.23,0-.4.18-.4.4s.18.4.4.4c4.37,0,7.93-3.56,7.93-7.93,0-.23-.17-.4-.4-.4Zm-25.58-9.04c-.22,0-.4.18-.4.4,0,4.37,3.56,7.93,7.93,7.93.2,0,.4-.15.4-.4,0-.22-.18-.4-.4-.4-3.93,0-7.13-3.2-7.13-7.13,0-.22-.18-.4-.4-.4Zm16.56-10.52c-.23,0-.4.17-.4.4s.18.4.4.4c3.92,0,7.1,3.2,7.1,7.13,0,.22.18.4.4.4s.4-.18.4-.4c0-4.37-3.55-7.93-7.91-7.93Z"/>
    <path class="cls-2" d="m608.78,535.16c1.39,0,2.53,1.13,2.53,2.52v2.34c0,1.8,1.24,3.36,3,3.77,2.73.62,5.32,1.7,7.7,3.19.63.4,1.34.6,2.05.6,1,0,2-.39,2.75-1.14l1.66-1.65c.47-.48,1.13-.73,1.78-.73s1.31.24,1.78.73c.48.47.73,1.1.73,1.78s-.25,1.32-.73,1.78l-1.66,1.66c-1.26,1.28-1.49,3.27-.52,4.8,1.49,2.38,2.57,4.97,3.19,7.7.41,1.76,1.97,3,3.77,3h2.34c1.4,0,2.52,1.14,2.52,2.53s-1.13,2.52-2.52,2.52h-2.34c-1.8,0-3.36,1.25-3.77,3.02-.62,2.73-1.7,5.31-3.19,7.7-.97,1.53-.73,3.52.52,4.8l1.66,1.65c.48.48.73,1.12.73,1.8s-.25,1.3-.73,1.78-1.14.74-1.78.74-1.29-.25-1.78-.74l-1.66-1.66c-.75-.75-1.74-1.13-2.74-1.13-.71,0-1.43.19-2.06.59-2.38,1.51-4.97,2.59-7.7,3.21-1.76.39-3,1.95-3,3.77v2.32c0,1.39-1.14,2.53-2.53,2.53s-2.52-1.14-2.52-2.53v-2.32c0-1.81-1.25-3.39-3.02-3.77-2.73-.62-5.31-1.7-7.7-3.21-.64-.39-1.35-.58-2.05-.58-1.01,0-2,.39-2.75,1.12l-1.65,1.66c-.5.5-1.14.74-1.79.74s-1.3-.25-1.79-.74c-.99-.99-.99-2.59,0-3.58l1.66-1.65c1.28-1.28,1.49-3.27.54-4.8-1.51-2.4-2.59-4.97-3.21-7.7-.39-1.76-1.95-3.02-3.77-3.02h-2.32c-1.39,0-2.53-1.13-2.53-2.52s1.14-2.53,2.53-2.53h2.32c1.81,0,3.39-1.24,3.77-3,.62-2.73,1.7-5.32,3.21-7.7.95-1.53.73-3.52-.54-4.8l-1.66-1.66c-.99-.99-.99-2.57,0-3.56.48-.48,1.14-.72,1.8-.72s1.3.24,1.79.72l1.65,1.65c.75.75,1.74,1.14,2.75,1.14.71,0,1.42-.19,2.05-.6,2.4-1.49,4.97-2.57,7.7-3.19,1.76-.41,3.02-1.97,3.02-3.77v-2.34c0-1.4,1.13-2.52,2.52-2.52m8.38,30.75c2.15,0,3.87-1.74,3.87-3.87,0-6.29-5.11-11.4-11.38-11.4-2.15,0-3.87,1.72-3.87,3.87s1.72,3.87,3.87,3.87c2.01,0,3.64,1.65,3.64,3.66,0,2.13,1.74,3.87,3.87,3.87m-16.54,10.52c2.12,0,3.87-1.72,3.87-3.87s-1.74-3.87-3.87-3.87c-2.01,0-3.66-1.65-3.66-3.66,0-2.13-1.74-3.87-3.87-3.87s-3.87,1.74-3.87,3.87c0,6.29,5.11,11.4,11.4,11.4m10.52,9.04c6.29,0,11.4-5.11,11.4-11.4,0-2.15-1.72-3.87-3.87-3.87s-3.87,1.72-3.87,3.87c0,2.01-1.65,3.66-3.66,3.66-2.13,0-3.87,1.72-3.87,3.87s1.74,3.87,3.87,3.87m-2.36-57.26c-5.21,0-9.45,4.24-9.45,9.45-1.82.57-3.6,1.31-5.33,2.21-1.77-1.77-4.15-2.75-6.69-2.75-2.5,0-4.93.99-6.68,2.73-1.81,1.81-2.79,4.18-2.79,6.7s.98,4.9,2.77,6.68h0c-.9,1.71-1.65,3.49-2.22,5.33-5.21.01-9.44,4.26-9.44,9.47s4.23,9.44,9.44,9.45c.57,1.83,1.31,3.61,2.22,5.33-3.69,3.72-3.68,9.71,0,13.39,1.79,1.79,4.17,2.77,6.7,2.77s4.9-.98,6.69-2.77c1.72.91,3.5,1.65,5.34,2.22.01,5.21,4.25,9.44,9.45,9.44s9.45-4.23,9.47-9.44c1.84-.57,3.62-1.32,5.33-2.22h0c1.79,1.79,4.16,2.78,6.68,2.78s4.9-.99,6.68-2.77c1.78-1.78,2.77-4.16,2.77-6.69s-.98-4.91-2.76-6.7c.9-1.72,1.64-3.51,2.22-5.34,5.21,0,9.45-4.24,9.45-9.45s-4.24-9.47-9.45-9.47c-.57-1.83-1.31-3.62-2.22-5.33,1.76-1.74,2.76-4.16,2.76-6.68s-.99-4.93-2.78-6.7c-1.74-1.75-4.17-2.74-6.67-2.74s-4.94,1-6.69,2.76c-1.72-.9-3.5-1.64-5.33-2.21,0-5.21-4.25-9.45-9.47-9.45h0Z"/>
  </g>
  <g>
    <path class="cls-11" d="m750.15,591.01c-3.3,0-5.99-2.69-5.99-6v-2.32c0-.19-.12-.35-.29-.39-3.12-.71-6.08-1.94-8.81-3.67-.04-.03-.14-.05-.2-.05-.13,0-.24.05-.34.14l-1.6,1.62c-1.15,1.15-2.65,1.77-4.26,1.77s-3.11-.62-4.24-1.76c-1.13-1.13-1.76-2.64-1.76-4.24s.62-3.11,1.76-4.24l1.67-1.66c.12-.12.14-.35.04-.51-1.72-2.73-2.95-5.68-3.65-8.76-.04-.2-.2-.32-.39-.32h-2.32c-3.31,0-6-2.69-6-5.99s2.69-6,6-6h2.32c.19,0,.35-.11.38-.27.71-3.15,1.95-6.11,3.67-8.82.08-.13.06-.36-.07-.49l-1.66-1.66c-1.13-1.13-1.76-2.64-1.76-4.23s.62-3.1,1.76-4.23c1.11-1.1,2.66-1.73,4.25-1.73s3.12.62,4.24,1.73l1.65,1.65c.11.11.23.12.3.12.07,0,.14-.02.2-.06,2.79-1.73,5.74-2.95,8.79-3.64.18-.04.32-.21.32-.39v-2.34c0-3.3,2.69-5.99,5.99-5.99s6,2.69,6,5.99v2.34c0,.19.13.35.32.39,3.08.7,6.03,1.92,8.76,3.63.08.05.14.07.21.07.06,0,.19-.02.3-.12l1.68-1.66c1.06-1.08,2.61-1.73,4.22-1.73s3.16.65,4.26,1.77c1.08,1.05,1.72,2.57,1.72,4.21s-.64,3.18-1.81,4.29l-1.6,1.6c-.11.12-.14.34-.04.49,1.72,2.75,2.94,5.7,3.64,8.79.04.17.2.3.39.3h2.34c3.3,0,5.99,2.69,5.99,6s-2.69,5.99-5.99,5.99h-2.34c-.18,0-.35.14-.39.33-.69,3.05-1.91,6-3.62,8.75-.11.18-.08.4.05.54l1.63,1.61c1.14,1.14,1.76,2.65,1.76,4.26s-.62,3.11-1.75,4.24-2.64,1.76-4.23,1.76-3.1-.62-4.23-1.76l-1.66-1.66c-.09-.09-.21-.11-.29-.11-.06,0-.15.01-.23.07-2.68,1.7-5.64,2.94-8.76,3.65-.19.04-.3.2-.3.39v2.32c0,3.31-2.69,6-6,6Zm9.89-30.75c-.23,0-.4.18-.4.4,0,3.93-3.2,7.13-7.13,7.13-.23,0-.4.18-.4.4s.18.4.4.4c4.37,0,7.93-3.56,7.93-7.93,0-.23-.17-.4-.4-.4Zm-25.58-9.04c-.22,0-.4.18-.4.4,0,4.37,3.56,7.93,7.93,7.93.2,0,.4-.15.4-.4,0-.22-.18-.4-.4-.4-3.93,0-7.13-3.2-7.13-7.13,0-.22-.18-.4-.4-.4Zm16.56-10.52c-.23,0-.4.17-.4.4s.18.4.4.4c3.92,0,7.1,3.2,7.1,7.13,0,.22.18.4.4.4s.4-.18.4-.4c0-4.37-3.55-7.93-7.91-7.93Z"/>
    <path class="cls-2" d="m750.15,521.74c1.39,0,2.53,1.13,2.53,2.52v2.34c0,1.8,1.24,3.36,3,3.77,2.73.62,5.32,1.7,7.7,3.19.63.4,1.34.6,2.05.6,1,0,2-.39,2.75-1.14l1.66-1.65c.47-.48,1.13-.73,1.78-.73s1.31.24,1.78.73c.48.47.73,1.1.73,1.78s-.25,1.32-.73,1.78l-1.66,1.66c-1.26,1.28-1.49,3.27-.52,4.8,1.49,2.38,2.57,4.97,3.19,7.7.41,1.76,1.97,3,3.77,3h2.34c1.4,0,2.52,1.14,2.52,2.53s-1.13,2.52-2.52,2.52h-2.34c-1.8,0-3.36,1.26-3.77,3.02-.62,2.73-1.7,5.31-3.19,7.7-.97,1.53-.73,3.52.52,4.8l1.66,1.65c.48.48.73,1.12.73,1.8s-.25,1.3-.73,1.78c-.5.5-1.14.74-1.78.74s-1.29-.25-1.78-.74l-1.66-1.66c-.75-.75-1.74-1.13-2.74-1.13-.71,0-1.43.19-2.06.59-2.38,1.51-4.97,2.59-7.7,3.21-1.76.39-3,1.95-3,3.77v2.32c0,1.39-1.14,2.53-2.53,2.53s-2.52-1.14-2.52-2.53v-2.32c0-1.81-1.26-3.39-3.02-3.77-2.73-.62-5.31-1.7-7.7-3.21-.64-.39-1.35-.58-2.05-.58-1.01,0-2,.39-2.75,1.12l-1.65,1.66c-.5.5-1.14.74-1.79.74s-1.3-.25-1.79-.74c-.99-.99-.99-2.59,0-3.58l1.66-1.65c1.28-1.28,1.49-3.27.54-4.8-1.51-2.4-2.59-4.97-3.21-7.7-.39-1.76-1.95-3.02-3.77-3.02h-2.32c-1.39,0-2.53-1.13-2.53-2.52s1.14-2.53,2.53-2.53h2.32c1.81,0,3.39-1.24,3.77-3,.62-2.73,1.7-5.32,3.21-7.7.95-1.53.73-3.52-.54-4.8l-1.66-1.66c-.99-.99-.99-2.57,0-3.56.48-.48,1.14-.72,1.8-.72s1.3.24,1.79.72l1.65,1.65c.75.75,1.74,1.14,2.75,1.14.71,0,1.42-.19,2.05-.6,2.4-1.49,4.97-2.57,7.7-3.19,1.76-.41,3.02-1.97,3.02-3.77v-2.34c0-1.4,1.13-2.52,2.52-2.52m8.38,30.75c2.15,0,3.87-1.74,3.87-3.87,0-6.29-5.11-11.4-11.38-11.4-2.15,0-3.87,1.72-3.87,3.87s1.72,3.87,3.87,3.87c2.01,0,3.64,1.65,3.64,3.66,0,2.13,1.74,3.87,3.87,3.87m-16.54,10.52c2.12,0,3.87-1.72,3.87-3.87s-1.74-3.87-3.87-3.87c-2.01,0-3.66-1.65-3.66-3.66,0-2.13-1.74-3.87-3.87-3.87s-3.87,1.74-3.87,3.87c0,6.29,5.11,11.4,11.4,11.4m10.52,9.04c6.29,0,11.4-5.11,11.4-11.4,0-2.15-1.72-3.87-3.87-3.87s-3.87,1.72-3.87,3.87c0,2.01-1.65,3.66-3.66,3.66-2.13,0-3.87,1.72-3.87,3.87s1.74,3.87,3.87,3.87m-2.36-57.26c-5.21,0-9.45,4.24-9.45,9.45-1.82.57-3.6,1.31-5.33,2.21-1.77-1.77-4.15-2.75-6.69-2.75s-4.94,1-6.68,2.73c-1.81,1.81-2.79,4.18-2.79,6.7s.99,4.9,2.77,6.68h0c-.9,1.71-1.65,3.49-2.22,5.33-5.21.01-9.44,4.26-9.44,9.47s4.23,9.44,9.44,9.45c.57,1.83,1.32,3.61,2.22,5.33-1.8,1.81-2.77,4.18-2.77,6.7s.99,4.91,2.77,6.7c1.79,1.79,4.17,2.77,6.7,2.77s4.9-.98,6.69-2.77c1.72.91,3.5,1.65,5.34,2.22.01,5.21,4.25,9.44,9.45,9.44s9.46-4.23,9.47-9.44c1.84-.57,3.62-1.32,5.33-2.22h0c1.79,1.79,4.16,2.78,6.68,2.78s4.9-.99,6.68-2.77c1.78-1.78,2.76-4.16,2.76-6.69s-.98-4.91-2.76-6.7c.9-1.72,1.64-3.51,2.22-5.34,5.21,0,9.45-4.24,9.45-9.45s-4.24-9.47-9.45-9.47c-.57-1.83-1.31-3.62-2.21-5.33,1.76-1.74,2.76-4.17,2.76-6.68s-.99-4.93-2.78-6.7c-1.74-1.74-4.17-2.74-6.67-2.74s-4.94,1-6.69,2.76c-1.72-.9-3.5-1.64-5.33-2.21,0-5.21-4.25-9.45-9.47-9.45h0Z"/>
  </g>
  <g>
    <path class="cls-11" d="m883.5,578.62c-3.02,0-5.47-2.46-5.47-5.49v-2.65c0-.85-.59-1.59-1.4-1.77-3.4-.77-6.63-2.12-9.63-4.01-.27-.16-.62-.26-.95-.26-.5,0-.97.19-1.33.54l-1.84,1.86c-1.05,1.05-2.43,1.62-3.89,1.62s-2.85-.57-3.88-1.61c-1.04-1.04-1.61-2.42-1.61-3.88s.57-2.85,1.61-3.88l1.91-1.89c.58-.58.69-1.54.24-2.26-1.88-2.99-3.23-6.22-3.99-9.59-.19-.84-.91-1.42-1.77-1.42h-2.65c-3.03,0-5.49-2.46-5.49-5.47s2.46-5.49,5.49-5.49h2.65c.86,0,1.59-.57,1.77-1.38.78-3.43,2.13-6.66,4.01-9.63.43-.7.33-1.66-.27-2.25l-1.9-1.9c-1.04-1.04-1.61-2.41-1.61-3.87s.57-2.83,1.61-3.87c1.02-1.01,2.43-1.58,3.89-1.58s2.86.56,3.88,1.58l1.88,1.88c.35.35.81.54,1.3.54.34,0,.67-.1.95-.28,3.05-1.89,6.27-3.22,9.61-3.98.82-.19,1.42-.94,1.42-1.77v-2.68c0-3.02,2.46-5.47,5.47-5.47s5.49,2.46,5.49,5.47v2.68c0,.85.58,1.58,1.41,1.77,3.37.77,6.6,2.1,9.59,3.97.3.19.63.28.96.28.49,0,.95-.19,1.3-.54l1.91-1.89c.97-.99,2.39-1.58,3.86-1.58s2.89.59,3.89,1.61c1,.97,1.58,2.35,1.58,3.85s-.58,2.91-1.64,3.92l-1.85,1.85c-.58.59-.69,1.54-.24,2.25,1.88,3,3.21,6.23,3.98,9.61.19.82.92,1.4,1.77,1.4h2.68c3.02,0,5.47,2.46,5.47,5.49s-2.46,5.48-5.47,5.48h-2.68c-.84,0-1.58.6-1.77,1.43-.76,3.34-2.09,6.57-3.97,9.58-.46.73-.35,1.68.24,2.29l1.87,1.86c1.04,1.04,1.61,2.42,1.61,3.9s-.57,2.85-1.6,3.88c-1.04,1.04-2.41,1.61-3.87,1.61s-2.83-.57-3.87-1.61l-1.9-1.9c-.34-.34-.8-.53-1.29-.53-.35,0-.69.1-.98.28-2.94,1.87-6.18,3.22-9.59,3.99-.83.18-1.4.91-1.4,1.77v2.65c0,3.03-2.46,5.49-5.49,5.49Zm11.29-35.11c-1,0-1.82.82-1.82,1.82,0,3.74-3.04,6.78-6.78,6.78-1,0-1.82.82-1.82,1.82s.82,1.82,1.82,1.82c5.74,0,10.41-4.67,10.41-10.41,0-1.02-.8-1.82-1.82-1.82Zm-29.21-10.32c-1,0-1.82.82-1.82,1.82,0,5.74,4.67,10.41,10.41,10.41,1,0,1.82-.82,1.82-1.82s-.82-1.82-1.82-1.82c-3.74,0-6.78-3.04-6.78-6.78,0-1-.82-1.82-1.82-1.82Zm18.91-12.01c-1.02,0-1.82.8-1.82,1.82s.82,1.82,1.82,1.82c3.72,0,6.75,3.04,6.75,6.78,0,1,.82,1.82,1.82,1.82s1.82-.82,1.82-1.82c0-5.74-4.66-10.41-10.39-10.41Z"/>
    <path class="cls-2" d="m883.5,500.9c1.59,0,2.89,1.29,2.89,2.87v2.68c0,2.05,1.42,3.84,3.43,4.31,3.12.71,6.08,1.94,8.79,3.64.72.46,1.53.68,2.34.68,1.15,0,2.28-.45,3.14-1.3l1.9-1.88c.54-.55,1.29-.83,2.03-.83s1.49.28,2.03.83c.55.54.84,1.26.84,2.04s-.28,1.51-.84,2.04l-1.9,1.9c-1.43,1.46-1.7,3.74-.6,5.48,1.7,2.72,2.93,5.68,3.64,8.79.47,2.01,2.25,3.43,4.31,3.43h2.68c1.6,0,2.87,1.3,2.87,2.89s-1.29,2.87-2.87,2.87h-2.68c-2.05,0-3.84,1.43-4.31,3.44-.71,3.12-1.94,6.06-3.64,8.79-1.1,1.74-.84,4.02.6,5.48l1.9,1.88c.55.55.84,1.28.84,2.05s-.28,1.48-.84,2.04c-.57.57-1.3.85-2.03.85s-1.47-.28-2.03-.85l-1.9-1.9c-.85-.85-1.99-1.29-3.13-1.29-.81,0-1.63.22-2.35.67-2.72,1.73-5.68,2.96-8.79,3.67-2.01.44-3.43,2.23-3.43,4.31v2.65c0,1.59-1.3,2.89-2.89,2.89s-2.87-1.3-2.87-2.89v-2.65c0-2.07-1.43-3.87-3.44-4.31-3.12-.71-6.06-1.94-8.79-3.67-.72-.44-1.54-.66-2.34-.66-1.16,0-2.28.44-3.14,1.28l-1.88,1.9c-.57.57-1.31.85-2.05.85s-1.48-.28-2.05-.85c-1.13-1.13-1.13-2.96,0-4.09l1.9-1.88c1.46-1.46,1.7-3.74.62-5.48-1.73-2.74-2.96-5.68-3.67-8.79-.44-2.01-2.23-3.44-4.31-3.44h-2.65c-1.59,0-2.89-1.29-2.89-2.87s1.3-2.89,2.89-2.89h2.65c2.07,0,3.87-1.42,4.31-3.43.71-3.12,1.94-6.08,3.67-8.79,1.08-1.74.84-4.02-.62-5.48l-1.9-1.9c-1.13-1.13-1.13-2.93,0-4.07.55-.54,1.3-.82,2.05-.82s1.49.27,2.04.82l1.88,1.88c.86.85,1.99,1.3,3.14,1.3.81,0,1.62-.22,2.34-.68,2.74-1.7,5.68-2.93,8.79-3.64,2.01-.47,3.44-2.25,3.44-4.31v-2.68c0-1.6,1.29-2.87,2.87-2.87m9.56,35.11c2.45,0,4.42-1.98,4.42-4.42,0-7.18-5.83-13.02-12.99-13.02-2.45,0-4.42,1.97-4.42,4.42s1.97,4.42,4.42,4.42c2.3,0,4.15,1.88,4.15,4.18,0,2.43,1.98,4.42,4.42,4.42m-18.88,12.01c2.43,0,4.42-1.96,4.42-4.42s-1.98-4.42-4.42-4.42c-2.3,0-4.18-1.88-4.18-4.18,0-2.43-1.99-4.42-4.42-4.42s-4.42,1.98-4.42,4.42c0,7.18,5.83,13.02,13.02,13.02m12.01,10.32c7.18,0,13.02-5.83,13.02-13.02,0-2.45-1.97-4.42-4.42-4.42s-4.42,1.97-4.42,4.42c0,2.3-1.88,4.18-4.18,4.18-2.43,0-4.42,1.97-4.42,4.42s1.98,4.42,4.42,4.42m-2.69-62.65c-4.45,0-8.08,3.62-8.08,8.08v2.05c-3.21.79-6.32,2.08-9.27,3.84l-1.45-1.45c-1.51-1.51-3.54-2.34-5.72-2.34-2.14,0-4.22.85-5.72,2.33-3.16,3.16-3.16,8.29-.02,11.44l1.46,1.46c-1.76,2.89-3.05,5.99-3.86,9.26h-2.03c-4.46,0-8.09,3.63-8.09,8.09s3.63,8.08,8.09,8.08h2.03c.81,3.25,2.1,6.36,3.86,9.27l-1.45,1.43c-1.55,1.55-2.39,3.58-2.39,5.74s.84,4.19,2.37,5.72c1.53,1.53,3.56,2.37,5.72,2.37s4.19-.84,5.72-2.37l1.45-1.46c2.91,1.76,6.03,3.06,9.28,3.87v2.03c0,4.46,3.62,8.09,8.08,8.09s8.09-3.63,8.09-8.09v-2.03c3.28-.81,6.38-2.11,9.26-3.86l1.46,1.46c1.53,1.53,3.56,2.37,5.71,2.37s4.18-.84,5.71-2.37c1.52-1.52,2.36-3.55,2.36-5.71s-.84-4.21-2.36-5.73l-1.45-1.44c1.77-2.95,3.05-6.06,3.85-9.28h2.05c4.45,0,8.08-3.62,8.08-8.08s-3.62-8.09-8.08-8.09h-2.06c-.8-3.24-2.09-6.36-3.85-9.27l1.42-1.42c1.54-1.5,2.39-3.54,2.39-5.75s-.84-4.22-2.37-5.72c-1.48-1.49-3.56-2.34-5.7-2.34s-4.23.86-5.72,2.36l-1.46,1.45c-2.92-1.75-6.02-3.04-9.26-3.84v-2.06c0-4.45-3.63-8.08-8.09-8.08h0Z"/>
  </g>
  <g>
    <path class="cls-11" d="m888.5,401.92c-2.79,0-5.07-2.28-5.07-5.08v-2.27c0-.55-.38-1.04-.91-1.15-2.96-.67-5.77-1.84-8.37-3.49-.17-.1-.4-.17-.62-.17-.33,0-.64.12-.88.36l-1.58,1.59c-.97.97-2.25,1.5-3.6,1.5s-2.63-.53-3.59-1.49c-1.98-1.98-1.98-5.21,0-7.19l1.64-1.62c.38-.38.45-1.01.15-1.48-1.63-2.6-2.81-5.41-3.47-8.33-.12-.55-.6-.93-1.16-.93h-2.27c-2.8,0-5.08-2.27-5.08-5.07s2.28-5.08,5.08-5.08h2.27c.56,0,1.04-.37,1.15-.89.68-2.98,1.85-5.8,3.49-8.38.28-.45.21-1.08-.18-1.47l-1.63-1.63c-1.97-1.98-1.97-5.19,0-7.16.94-.93,2.25-1.46,3.6-1.46s2.64.52,3.59,1.46l1.61,1.61c.23.23.53.35.85.35.22,0,.43-.06.62-.18,2.65-1.64,5.46-2.8,8.36-3.46.53-.12.93-.61.93-1.16v-2.29c0-2.79,2.27-5.07,5.07-5.07s5.08,2.27,5.08,5.07v2.29c0,.56.38,1.03.92,1.16,2.93.67,5.74,1.83,8.33,3.45.2.12.41.19.63.19.32,0,.62-.13.85-.35l1.64-1.62c.9-.92,2.21-1.46,3.57-1.46s2.68.54,3.6,1.49c.92.89,1.46,2.18,1.46,3.56s-.54,2.69-1.52,3.63l-1.58,1.58c-.37.38-.45,1.01-.15,1.47,1.63,2.61,2.79,5.42,3.46,8.36.12.53.6.91,1.16.91h2.29c1.36,0,2.64.53,3.59,1.5.95.96,1.47,2.23,1.47,3.58,0,2.79-2.27,5.07-5.07,5.07h-2.29c-.55,0-1.03.4-1.16.94-.66,2.9-1.82,5.71-3.45,8.33-.31.48-.23,1.11.16,1.5l1.6,1.59c.96.96,1.49,2.24,1.49,3.61s-.53,2.63-1.48,3.59c-.96.96-2.23,1.49-3.58,1.49s-2.62-.53-3.58-1.49l-1.63-1.63c-.22-.22-.52-.34-.84-.34-.23,0-.45.06-.65.18-2.56,1.62-5.37,2.8-8.33,3.47-.55.12-.91.59-.91,1.16v2.27c0,2.8-2.28,5.08-5.08,5.08Zm9.68-30.11c-.66,0-1.19.53-1.19,1.19,0,3.41-2.77,6.18-6.18,6.18-.66,0-1.19.53-1.19,1.19s.53,1.19,1.19,1.19c4.72,0,8.56-3.84,8.56-8.56,0-.67-.52-1.19-1.19-1.19Zm-25.04-8.85c-.66,0-1.19.53-1.19,1.19,0,4.72,3.84,8.56,8.56,8.56.66,0,1.19-.53,1.19-1.19s-.53-1.19-1.19-1.19c-3.41,0-6.18-2.77-6.18-6.18,0-.66-.53-1.19-1.19-1.19Zm16.22-10.3c-.67,0-1.19.52-1.19,1.19s.53,1.19,1.19,1.19c3.4,0,6.16,2.77,6.16,6.18,0,.66.53,1.19,1.19,1.19s1.19-.53,1.19-1.19c0-4.72-3.83-8.56-8.54-8.56Z"/>
    <path class="cls-2" d="m888.5,334.9c1.36,0,2.48,1.1,2.48,2.46v2.29c0,1.76,1.21,3.29,2.94,3.69,2.67.61,5.21,1.67,7.54,3.12.62.39,1.32.58,2.01.58.98,0,1.96-.38,2.69-1.12l1.63-1.61c.46-.47,1.1-.71,1.74-.71s1.28.24,1.74.71c.47.46.72,1.08.72,1.75s-.24,1.29-.72,1.75l-1.63,1.63c-1.23,1.25-1.46,3.21-.51,4.7,1.46,2.33,2.52,4.87,3.12,7.54.4,1.72,1.93,2.94,3.69,2.94h2.29c1.37,0,2.46,1.12,2.46,2.48s-1.1,2.46-2.46,2.46h-2.29c-1.76,0-3.29,1.23-3.69,2.95-.61,2.67-1.67,5.2-3.12,7.54-.95,1.5-.72,3.45.51,4.7l1.63,1.61c.47.47.72,1.1.72,1.76s-.24,1.27-.72,1.75-1.11.73-1.74.73-1.26-.24-1.74-.73l-1.63-1.63c-.73-.73-1.7-1.11-2.68-1.11-.7,0-1.4.19-2.02.57-2.33,1.48-4.87,2.54-7.54,3.15-1.72.38-2.94,1.91-2.94,3.69v2.27c0,1.36-1.12,2.48-2.48,2.48s-2.46-1.12-2.46-2.48v-2.27c0-1.78-1.23-3.32-2.95-3.69-2.67-.61-5.2-1.67-7.54-3.15-.62-.38-1.32-.57-2.01-.57-.99,0-1.95.38-2.69,1.1l-1.61,1.63c-.48.48-1.12.73-1.75.73s-1.27-.24-1.75-.73c-.97-.97-.97-2.54,0-3.51l1.63-1.61c1.25-1.25,1.46-3.2.53-4.7-1.48-2.35-2.54-4.87-3.15-7.54-.38-1.72-1.91-2.95-3.69-2.95h-2.27c-1.36,0-2.48-1.1-2.48-2.46s1.12-2.48,2.48-2.48h2.27c1.78,0,3.32-1.21,3.69-2.94.61-2.67,1.67-5.21,3.15-7.54.93-1.5.72-3.45-.53-4.7l-1.63-1.63c-.97-.97-.97-2.52,0-3.49.47-.47,1.11-.7,1.76-.7s1.28.23,1.75.7l1.61,1.61c.73.73,1.71,1.12,2.69,1.12.69,0,1.39-.19,2.01-.58,2.35-1.46,4.87-2.52,7.54-3.12,1.72-.4,2.95-1.93,2.95-3.69v-2.29c0-1.37,1.1-2.46,2.46-2.46m8.2,30.11c2.1,0,3.79-1.7,3.79-3.79,0-6.16-5-11.16-11.14-11.16-2.1,0-3.79,1.69-3.79,3.79s1.69,3.79,3.79,3.79c1.97,0,3.56,1.61,3.56,3.58,0,2.09,1.7,3.79,3.79,3.79m-16.19,10.3c2.08,0,3.79-1.68,3.79-3.79s-1.7-3.79-3.79-3.79c-1.97,0-3.58-1.61-3.58-3.58,0-2.09-1.7-3.79-3.79-3.79s-3.79,1.7-3.79,3.79c0,6.16,5,11.16,11.16,11.16m10.3,8.85c6.16,0,11.16-5,11.16-11.16,0-2.1-1.69-3.79-3.79-3.79s-3.79,1.69-3.79,3.79c0,1.97-1.61,3.58-3.58,3.58-2.09,0-3.79,1.69-3.79,3.79s1.7,3.79,3.79,3.79m-2.31-54.46c-4.23,0-7.67,3.44-7.67,7.67v1.19c-2.44.66-4.82,1.64-7.09,2.94l-.84-.84c-1.44-1.44-3.36-2.23-5.43-2.23s-4.01.81-5.42,2.21c-3,3-3,7.87-.01,10.86l.85.85c-1.3,2.23-2.29,4.6-2.95,7.08h-1.17c-4.24,0-7.68,3.45-7.68,7.68s3.45,7.67,7.68,7.67h1.17c.67,2.47,1.66,4.84,2.95,7.09l-.83.82c-3.01,3.01-3.01,7.89-.02,10.88,1.45,1.45,3.38,2.25,5.43,2.25s3.98-.8,5.43-2.25l.83-.84c2.25,1.3,4.62,2.29,7.09,2.96v1.16c0,4.24,3.44,7.68,7.67,7.68s7.68-3.45,7.68-7.68v-1.17c2.49-.67,4.86-1.66,7.08-2.95l.85.85c1.45,1.45,3.38,2.25,5.42,2.25s3.97-.8,5.42-2.25c1.45-1.44,2.24-3.37,2.24-5.42s-.8-3.99-2.24-5.44l-.84-.83c1.3-2.27,2.29-4.65,2.94-7.1h1.19c4.23,0,7.67-3.44,7.67-7.67s-3.44-7.68-7.67-7.68h-1.19c-.66-2.46-1.65-4.84-2.94-7.09l.81-.81c1.47-1.43,2.27-3.36,2.27-5.46s-.8-4-2.25-5.44c-1.41-1.41-3.38-2.22-5.41-2.22s-4.01.81-5.42,2.24l-.85.84c-2.25-1.29-4.62-2.28-7.08-2.94v-1.19c0-4.23-3.45-7.67-7.68-7.67h0Z"/>
  </g>
  <g>
    <path class="cls-11" d="m507.17,218.24c-3.04,0-5.52-2.48-5.52-5.53v-2.69c0-.87-.61-1.64-1.45-1.83-3.44-.78-6.72-2.15-9.75-4.06-.28-.17-.64-.27-.98-.27-.51,0-1,.2-1.37.56l-1.87,1.89c-1.05,1.05-2.44,1.63-3.92,1.63s-2.87-.58-3.91-1.62c-2.16-2.16-2.16-5.67,0-7.83l1.93-1.92c.6-.6.71-1.59.25-2.34-1.91-3.03-3.27-6.3-4.04-9.71-.19-.87-.94-1.47-1.83-1.47h-2.69c-3.05,0-5.53-2.47-5.53-5.52s2.48-5.53,5.53-5.53h2.69c.89,0,1.64-.59,1.83-1.43.79-3.47,2.15-6.75,4.06-9.76.45-.72.34-1.71-.27-2.32l-1.93-1.93c-1.05-1.05-1.62-2.43-1.62-3.9s.58-2.85,1.62-3.9c1.02-1.01,2.45-1.59,3.92-1.59s2.88.57,3.91,1.59l1.91,1.91c.36.36.84.56,1.34.56.35,0,.69-.1.98-.28,3.09-1.91,6.36-3.27,9.73-4.03.85-.2,1.47-.97,1.47-1.83v-2.71c0-3.04,2.47-5.52,5.52-5.52s5.53,2.47,5.53,5.52v2.71c0,.88.6,1.63,1.46,1.83,3.41.78,6.68,2.13,9.71,4.02.31.19.65.29,1,.29.51,0,.98-.2,1.34-.56l1.93-1.92c.98-1,2.41-1.59,3.89-1.59s2.91.59,3.92,1.62c1.01.97,1.59,2.37,1.59,3.88s-.59,2.93-1.65,3.95l-1.88,1.88c-.6.61-.71,1.6-.25,2.33,1.9,3.04,3.25,6.31,4.03,9.73.2.85.95,1.45,1.83,1.45h2.71c3.04,0,5.52,2.48,5.52,5.53s-2.47,5.52-5.52,5.52h-2.71c-.86,0-1.64.62-1.83,1.48-.77,3.38-2.12,6.65-4.02,9.7-.48.75-.36,1.74.25,2.36l1.9,1.88c1.05,1.05,1.62,2.44,1.62,3.93s-.57,2.87-1.61,3.9c-1.05,1.05-2.43,1.62-3.9,1.62s-2.85-.58-3.9-1.62l-1.93-1.93c-.35-.35-.83-.55-1.33-.55-.36,0-.71.1-1.02.29-2.98,1.89-6.26,3.26-9.71,4.04-.86.19-1.45.94-1.45,1.83v2.69c0,3.05-2.48,5.53-5.53,5.53Zm11.45-35.6c-1.04,0-1.88.84-1.88,1.88,0,3.77-3.07,6.84-6.84,6.84-1.04,0-1.88.84-1.88,1.88s.84,1.88,1.88,1.88c5.84,0,10.6-4.75,10.6-10.6,0-1.05-.83-1.88-1.88-1.88Zm-29.62-10.47c-1.04,0-1.88.84-1.88,1.88,0,5.84,4.75,10.6,10.6,10.6,1.04,0,1.88-.84,1.88-1.88s-.84-1.88-1.88-1.88c-3.77,0-6.84-3.07-6.84-6.84,0-1.04-.84-1.88-1.88-1.88Zm19.18-12.18c-1.05,0-1.88.83-1.88,1.88s.84,1.88,1.88,1.88c3.76,0,6.81,3.07,6.81,6.84,0,1.04.84,1.88,1.88,1.88s1.88-.84,1.88-1.88c0-5.84-4.74-10.6-10.57-10.6Z"/>
    <path class="cls-2" d="m507.17,139.46c1.61,0,2.93,1.3,2.93,2.91v2.71c0,2.08,1.44,3.89,3.47,4.37,3.16.72,6.16,1.97,8.92,3.69.73.46,1.56.69,2.38.69,1.16,0,2.31-.45,3.18-1.32l1.93-1.91c.55-.56,1.3-.84,2.06-.84s1.51.28,2.06.84c.56.54.85,1.28.85,2.07s-.29,1.53-.85,2.07l-1.93,1.93c-1.45,1.48-1.72,3.79-.6,5.56,1.72,2.76,2.98,5.76,3.69,8.92.47,2.04,2.28,3.47,4.37,3.47h2.71c1.62,0,2.91,1.32,2.91,2.93s-1.3,2.91-2.91,2.91h-2.71c-2.08,0-3.89,1.45-4.37,3.49-.72,3.16-1.97,6.14-3.69,8.92-1.12,1.77-.85,4.08.6,5.56l1.93,1.91c.56.56.85,1.29.85,2.08s-.29,1.51-.85,2.07-1.32.86-2.06.86-1.49-.29-2.06-.86l-1.93-1.93c-.86-.86-2.01-1.31-3.17-1.31-.82,0-1.65.22-2.38.68-2.76,1.75-5.76,3-8.92,3.72-2.04.45-3.47,2.26-3.47,4.37v2.69c0,1.61-1.32,2.93-2.93,2.93s-2.91-1.32-2.91-2.93v-2.69c0-2.1-1.45-3.92-3.49-4.37-3.16-.72-6.14-1.97-8.92-3.72-.74-.45-1.57-.67-2.37-.67-1.17,0-2.31.45-3.19,1.29l-1.91,1.93c-.57.57-1.32.86-2.07.86s-1.5-.29-2.07-.86c-1.15-1.15-1.15-3,0-4.15l1.93-1.91c1.48-1.48,1.72-3.79.63-5.56-1.75-2.78-3-5.76-3.72-8.92-.45-2.04-2.26-3.49-4.37-3.49h-2.69c-1.61,0-2.93-1.3-2.93-2.91s1.32-2.93,2.93-2.93h2.69c2.1,0,3.92-1.44,4.37-3.47.72-3.16,1.97-6.16,3.72-8.92,1.09-1.77.85-4.08-.63-5.56l-1.93-1.93c-1.15-1.15-1.15-2.98,0-4.12.55-.55,1.32-.83,2.08-.83s1.51.27,2.07.83l1.91,1.91c.87.87,2.02,1.32,3.18,1.32.82,0,1.65-.23,2.38-.69,2.78-1.72,5.76-2.98,8.92-3.69,2.04-.47,3.49-2.28,3.49-4.37v-2.71c0-1.62,1.3-2.91,2.91-2.91m9.7,35.6c2.49,0,4.48-2.01,4.48-4.48,0-7.28-5.92-13.2-13.17-13.2-2.49,0-4.48,2-4.48,4.48s2,4.48,4.48,4.48c2.33,0,4.21,1.91,4.21,4.24,0,2.47,2.01,4.48,4.48,4.48m-19.15,12.18c2.46,0,4.48-1.99,4.48-4.48s-2.01-4.48-4.48-4.48c-2.33,0-4.24-1.91-4.24-4.24,0-2.47-2.01-4.48-4.48-4.48s-4.48,2.01-4.48,4.48c0,7.28,5.92,13.2,13.2,13.2m12.18,10.47c7.28,0,13.2-5.92,13.2-13.2,0-2.49-2-4.48-4.48-4.48s-4.48,2-4.48,4.48c0,2.33-1.91,4.24-4.24,4.24-2.47,0-4.48,2-4.48,4.48s2.01,4.48,4.48,4.48m-2.73-63.46c-4.48,0-8.12,3.64-8.12,8.12v2.14c-3.28.8-6.47,2.12-9.48,3.93l-1.51-1.51c-1.52-1.52-3.56-2.35-5.75-2.35-2.15,0-4.25.85-5.74,2.34-3.18,3.18-3.18,8.33-.01,11.49l1.53,1.53c-1.8,2.95-3.13,6.13-3.95,9.47h-2.12c-4.48,0-8.13,3.65-8.13,8.13s3.65,8.12,8.13,8.12h2.11c.82,3.33,2.15,6.51,3.95,9.48l-1.51,1.49c-3.19,3.19-3.19,8.35-.02,11.52,1.54,1.54,3.58,2.38,5.75,2.38s4.21-.85,5.75-2.38l1.51-1.52c2.98,1.81,6.17,3.14,9.49,3.96v2.11c0,4.48,3.64,8.13,8.12,8.13s8.13-3.65,8.13-8.13v-2.12c3.36-.83,6.53-2.15,9.47-3.95l1.53,1.53c1.54,1.54,3.58,2.38,5.74,2.38s4.2-.85,5.74-2.38c1.53-1.53,2.37-3.57,2.37-5.74s-.84-4.23-2.37-5.76l-1.51-1.5c1.81-3.02,3.13-6.2,3.94-9.5h2.14c4.48,0,8.12-3.64,8.12-8.12s-3.64-8.13-8.12-8.13h-2.14c-.81-3.32-2.14-6.51-3.93-9.48l1.48-1.48c1.55-1.51,2.41-3.56,2.41-5.78s-.85-4.24-2.38-5.75c-1.49-1.5-3.57-2.35-5.73-2.35s-4.25.86-5.74,2.37l-1.52,1.51c-2.98-1.8-6.16-3.11-9.47-3.93v-2.14c0-4.48-3.65-8.12-8.13-8.12h0Z"/>
  </g>
  <g>
    <path class="cls-11" d="m340.93,623.27c-2.76,0-5.03-2.08-5.3-4.83l-.12-1.21c-2.1-.32-4.13-.95-6.06-1.87l-.77.94c-1.03,1.24-2.53,1.95-4.12,1.95-1.24,0-2.44-.43-3.39-1.22-2.27-1.87-2.59-5.24-.72-7.51l.79-.95c-1.27-1.72-2.27-3.6-2.98-5.59l-1.21.12c-.17.02-.34.02-.51.02-2.76,0-5.04-2.07-5.31-4.81-.14-1.41.29-2.8,1.2-3.9.91-1.1,2.19-1.78,3.6-1.92l1.22-.12c.32-2.11.95-4.13,1.87-6.04l-.96-.79c-2.26-1.87-2.58-5.23-.72-7.49,1.02-1.22,2.52-1.92,4.13-1.92,1.24,0,2.44.43,3.38,1.2l.95.79c1.76-1.28,3.63-2.27,5.59-2.97l-.12-1.23c-.28-2.92,1.87-5.52,4.79-5.8.17-.02.34-.02.51-.02,2.76,0,5.04,2.07,5.31,4.82l.12,1.23c2.08.32,4.11.94,6.04,1.85l.8-.97c.97-1.2,2.48-1.91,4.1-1.91,1.26,0,2.47.44,3.41,1.24,1.04.83,1.74,2.12,1.88,3.57.14,1.47-.3,2.87-1.24,3.96l-.73.89c1.27,1.74,2.27,3.61,2.97,5.59l1.23-.12c.17-.02.34-.02.51-.02,2.76,0,5.03,2.08,5.3,4.83.14,1.42-.29,2.8-1.2,3.9-.9,1.09-2.18,1.77-3.6,1.9l-1.23.12c-.31,2.07-.94,4.11-1.86,6.06l.94.77c1.11.91,1.78,2.2,1.92,3.62.14,1.42-.29,2.8-1.19,3.9-1.02,1.23-2.51,1.94-4.1,1.94h0c-1.23,0-2.44-.43-3.39-1.22l-.96-.79c-1.69,1.26-3.57,2.26-5.58,2.98l.12,1.22c.28,2.93-1.88,5.54-4.8,5.82-.17.02-.34.02-.51.02Z"/>
    <path class="cls-2" d="m336.68,571.56c.95,0,1.76.72,1.85,1.68l.16,1.72c.13,1.32,1.14,2.38,2.46,2.55,2.04.26,4.02.87,5.87,1.8.41.21.84.31,1.28.31.83,0,1.65-.37,2.2-1.04l1.1-1.32c.35-.44.9-.67,1.44-.67.42,0,.84.14,1.17.42.39.31.61.76.66,1.26.05.5-.09.99-.41,1.36l-1.1,1.34c-.83,1.02-.86,2.5-.05,3.55,1.26,1.64,2.23,3.47,2.88,5.42.39,1.17,1.49,1.95,2.7,1.95.09,0,.18,0,.27-.01l1.72-.16c.06,0,.12,0,.18,0,.95,0,1.75.73,1.84,1.69.1,1.02-.65,1.92-1.67,2.02l-1.72.16c-1.32.13-2.38,1.16-2.55,2.48-.26,2.04-.88,4.01-1.8,5.87-.6,1.19-.29,2.63.72,3.48l1.33,1.09c.39.32.62.77.66,1.27s-.09.97-.41,1.36c-.37.45-.9.68-1.43.68-.42,0-.83-.14-1.18-.43l-1.34-1.1c-.53-.43-1.17-.65-1.81-.65s-1.23.2-1.74.59c-1.64,1.27-3.46,2.25-5.42,2.89-1.26.41-2.06,1.64-1.94,2.98l.16,1.7c.1,1.02-.66,1.94-1.68,2.03-.06,0-.12,0-.18,0-.95,0-1.75-.73-1.84-1.69l-.16-1.7c-.13-1.33-1.16-2.39-2.47-2.55-2.04-.26-4.01-.88-5.87-1.82-.41-.2-.85-.3-1.28-.3-.09,0-.18,0-.26.01-.74.07-1.44.42-1.94,1.01l-1.09,1.33c-.37.45-.9.68-1.44.68-.42,0-.84-.14-1.19-.43-.8-.66-.91-1.83-.25-2.63l1.1-1.32c.85-1.03.86-2.5.06-3.56-1.28-1.66-2.25-3.46-2.89-5.42-.38-1.18-1.47-1.96-2.7-1.96-.09,0-.18,0-.28.01l-1.7.16c-.06,0-.12,0-.18,0-.95,0-1.76-.72-1.85-1.68-.1-1.02.66-1.94,1.68-2.03l1.7-.16c1.33-.13,2.4-1.15,2.55-2.46.26-2.04.87-4.02,1.82-5.87.59-1.19.29-2.63-.73-3.48l-1.34-1.1c-.8-.66-.91-1.81-.25-2.61.36-.43.91-.66,1.46-.66.42,0,.84.13,1.17.41l1.32,1.09c.53.44,1.18.66,1.82.66.61,0,1.22-.2,1.73-.59,1.66-1.26,3.47-2.23,5.42-2.88,1.26-.42,2.07-1.66,1.95-2.98l-.16-1.72c-.1-1.03.65-1.92,1.67-2.02.06,0,.12,0,.18,0m1.81,16.98c.09,0,.18,0,.28-.01.09,0,.17-.01.26-.01,1.37,0,2.53,1.05,2.67,2.44.14,1.47,1.39,2.58,2.84,2.58.09,0,.18,0,.27-.01,1.57-.15,2.72-1.55,2.57-3.11-.41-4.34-4.08-7.6-8.34-7.6-.26,0-.53.01-.8.04-1.57.15-2.72,1.53-2.57,3.11.14,1.47,1.38,2.58,2.83,2.58m-5.89,13.89c.27,0,.54-.01.81-.04,1.56-.15,2.72-1.53,2.57-3.11-.14-1.47-1.39-2.58-2.84-2.58-.09,0-.18,0-.27.01-.09,0-.17.01-.26.01-1.37,0-2.55-1.05-2.68-2.44-.14-1.47-1.39-2.58-2.84-2.58-.09,0-.18,0-.27.01-1.56.15-2.71,1.55-2.57,3.11.41,4.34,4.07,7.6,8.35,7.6m8.88,5.86c.09,0,.18,0,.27-.01,4.61-.44,8-4.54,7.56-9.15-.14-1.48-1.37-2.58-2.83-2.58-.09,0-.18,0-.28.01-1.56.15-2.72,1.53-2.57,3.11.14,1.47-.95,2.8-2.43,2.94-1.56.15-2.72,1.53-2.57,3.11.14,1.47,1.39,2.58,2.84,2.58m-4.8-43.67h0c-.28,0-.56.01-.84.04-4.37.42-7.69,3.98-7.94,8.23-.63.3-1.24.63-1.85.98-1.34-.79-2.89-1.22-4.48-1.22-2.64,0-5.12,1.15-6.79,3.16-2.81,3.4-2.64,8.27.19,11.46-.23.66-.44,1.32-.62,2-1.79.46-3.4,1.47-4.6,2.93-1.5,1.81-2.2,4.1-1.98,6.44.42,4.36,3.91,7.68,8.23,7.94.3.63.63,1.25.99,1.85-.96,1.61-1.38,3.45-1.2,5.33.22,2.34,1.35,4.45,3.16,5.95,1.57,1.3,3.56,2.01,5.6,2.01,2.18,0,4.24-.8,5.84-2.22.66.24,1.33.44,2.01.62.97,3.85,4.43,6.61,8.51,6.61.28,0,.56-.01.84-.04,2.33-.22,4.45-1.34,5.94-3.16,1.2-1.46,1.89-3.22,2-5.07.63-.3,1.25-.63,1.85-.99,1.35.8,2.91,1.24,4.49,1.24,2.63,0,5.1-1.17,6.78-3.2,1.49-1.81,2.19-4.09,1.97-6.43-.18-1.89-.94-3.63-2.17-5.01.23-.66.44-1.33.62-2,1.8-.45,3.4-1.46,4.6-2.92,1.5-1.81,2.2-4.1,1.98-6.44-.42-4.37-3.91-7.7-8.23-7.95-.3-.63-.63-1.24-.98-1.85.94-1.58,1.36-3.46,1.19-5.33-.23-2.36-1.35-4.47-3.16-5.96-1.56-1.29-3.53-1.99-5.57-1.99-2.2,0-4.26.79-5.85,2.21-.66-.23-1.32-.44-1.99-.61-.97-3.86-4.43-6.62-8.53-6.62h0Z"/>
  </g>
  <g>
    <path class="cls-11" d="m324.58,406.68c-3,0-5.44-2.45-5.44-5.46v-2.62c0-.82-.57-1.55-1.36-1.72-3.36-.76-6.56-2.1-9.53-3.97-.26-.16-.6-.26-.93-.26-.48,0-.94.19-1.3.53l-1.82,1.84c-1.04,1.04-2.41,1.61-3.87,1.61s-2.83-.57-3.86-1.6c-2.13-2.13-2.13-5.59,0-7.72l1.89-1.87c.57-.57.67-1.5.23-2.2-1.86-2.96-3.2-6.16-3.95-9.49-.18-.82-.89-1.38-1.72-1.38h-2.62c-3.01,0-5.46-2.44-5.46-5.44s2.45-5.46,5.46-5.46h2.62c.84,0,1.54-.55,1.72-1.34.77-3.39,2.11-6.6,3.97-9.54.42-.68.32-1.61-.26-2.19l-1.88-1.88c-1.03-1.03-1.6-2.4-1.6-3.85s.57-2.82,1.6-3.85c1.01-1,2.42-1.57,3.87-1.57s2.84.56,3.86,1.57l1.86,1.86c.34.34.79.52,1.26.52.33,0,.65-.09.93-.27,3.02-1.87,6.21-3.19,9.51-3.94.8-.18,1.38-.91,1.38-1.72v-2.65c0-3,2.44-5.44,5.44-5.44s5.46,2.44,5.46,5.44v2.65c0,.83.57,1.54,1.38,1.73,3.34.76,6.53,2.08,9.49,3.93.29.18.61.28.94.28.48,0,.93-.19,1.26-.52l1.89-1.87c.96-.99,2.38-1.57,3.84-1.57s2.88.58,3.87,1.6c.99.96,1.57,2.34,1.57,3.83s-.58,2.89-1.63,3.9l-1.83,1.83c-.56.57-.67,1.5-.23,2.19,1.86,2.97,3.18,6.17,3.94,9.51.19.8.89,1.36,1.72,1.36h2.65c3,0,5.44,2.45,5.44,5.46s-2.44,5.44-5.44,5.44h-2.65c-.81,0-1.54.59-1.73,1.39-.75,3.31-2.07,6.5-3.93,9.48-.45.71-.34,1.64.24,2.23l1.85,1.84c1.03,1.03,1.6,2.41,1.6,3.88s-.56,2.83-1.59,3.85c-1.03,1.03-2.4,1.6-3.85,1.6s-2.82-.57-3.85-1.6l-1.88-1.88c-.33-.33-.78-.51-1.25-.51-.34,0-.67.09-.96.27-2.91,1.85-6.12,3.19-9.49,3.95-.81.18-1.36.88-1.36,1.72v2.62c0,3.01-2.45,5.46-5.46,5.46Zm11.16-34.72c-.98,0-1.77.79-1.77,1.77,0,3.71-3.02,6.73-6.73,6.73-.98,0-1.77.79-1.77,1.77s.79,1.77,1.77,1.77c5.66,0,10.27-4.61,10.27-10.27,0-.99-.78-1.77-1.77-1.77Zm-28.88-10.21c-.98,0-1.77.79-1.77,1.77,0,5.66,4.61,10.27,10.27,10.27.98,0,1.77-.79,1.77-1.77s-.79-1.77-1.77-1.77c-3.71,0-6.73-3.02-6.73-6.73,0-.98-.79-1.77-1.77-1.77Zm18.7-11.88c-.99,0-1.77.78-1.77,1.77s.79,1.77,1.77,1.77c3.7,0,6.71,3.02,6.71,6.73,0,.98.79,1.77,1.77,1.77s1.77-.79,1.77-1.77c0-5.66-4.6-10.27-10.25-10.27Z"/>
    <path class="cls-2" d="m324.58,329.79c1.57,0,2.86,1.27,2.86,2.84v2.65c0,2.03,1.4,3.8,3.39,4.26,3.08.7,6.01,1.92,8.7,3.6.71.45,1.52.67,2.32.67,1.13,0,2.26-.44,3.1-1.29l1.88-1.86c.53-.55,1.27-.82,2.01-.82s1.48.27,2.01.82c.55.53.83,1.25.83,2.01s-.28,1.49-.83,2.01l-1.88,1.88c-1.42,1.44-1.68,3.7-.59,5.42,1.68,2.69,2.9,5.62,3.6,8.7.46,1.99,2.23,3.39,4.26,3.39h2.65c1.58,0,2.84,1.29,2.84,2.86s-1.27,2.84-2.84,2.84h-2.65c-2.03,0-3.8,1.42-4.26,3.41-.7,3.08-1.92,5.99-3.6,8.7-1.09,1.72-.83,3.98.59,5.42l1.88,1.86c.55.55.83,1.26.83,2.03s-.28,1.47-.83,2.01-1.28.84-2.01.84-1.45-.28-2.01-.84l-1.88-1.88c-.84-.84-1.96-1.28-3.09-1.28-.8,0-1.61.22-2.33.66-2.69,1.71-5.62,2.93-8.7,3.63-1.99.44-3.39,2.2-3.39,4.26v2.62c0,1.57-1.29,2.86-2.86,2.86s-2.84-1.29-2.84-2.86v-2.62c0-2.05-1.42-3.82-3.41-4.26-3.08-.7-5.99-1.92-8.7-3.63-.72-.44-1.53-.66-2.31-.66-1.14,0-2.25.44-3.11,1.26l-1.86,1.88c-.56.56-1.29.84-2.02.84s-1.46-.28-2.02-.84c-1.12-1.12-1.12-2.93,0-4.05l1.88-1.86c1.44-1.44,1.68-3.7.61-5.42-1.71-2.71-2.93-5.62-3.63-8.7-.44-1.99-2.2-3.41-4.26-3.41h-2.62c-1.57,0-2.86-1.27-2.86-2.84s1.29-2.86,2.86-2.86h2.62c2.05,0,3.82-1.4,4.26-3.39.7-3.08,1.92-6.01,3.63-8.7,1.07-1.72.83-3.98-.61-5.42l-1.88-1.88c-1.12-1.12-1.12-2.9,0-4.02.54-.54,1.28-.81,2.03-.81s1.47.27,2.02.81l1.86,1.86c.85.85,1.97,1.29,3.1,1.29.8,0,1.6-.22,2.32-.67,2.71-1.68,5.62-2.9,8.7-3.6,1.99-.46,3.41-2.23,3.41-4.26v-2.65c0-1.58,1.27-2.84,2.84-2.84m9.46,34.72c2.42,0,4.37-1.96,4.37-4.37,0-7.1-5.77-12.87-12.85-12.87-2.42,0-4.37,1.95-4.37,4.37s1.95,4.37,4.37,4.37c2.27,0,4.11,1.86,4.11,4.13,0,2.41,1.96,4.37,4.37,4.37m-18.68,11.88c2.4,0,4.37-1.94,4.37-4.37s-1.96-4.37-4.37-4.37c-2.27,0-4.13-1.86-4.13-4.13,0-2.41-1.96-4.37-4.37-4.37s-4.37,1.96-4.37,4.37c0,7.1,5.77,12.87,12.87,12.87m11.88,10.21c7.1,0,12.87-5.77,12.87-12.87,0-2.42-1.95-4.37-4.37-4.37s-4.37,1.95-4.37,4.37c0,2.27-1.86,4.13-4.13,4.13-2.41,0-4.37,1.95-4.37,4.37s1.96,4.37,4.37,4.37m-2.66-62.01c-4.44,0-8.04,3.61-8.04,8.04v1.99c-3.15.78-6.21,2.05-9.1,3.77l-1.4-1.4c-1.51-1.5-3.53-2.33-5.69-2.33s-4.21.84-5.69,2.32c-1.54,1.54-2.38,3.56-2.38,5.7s.84,4.17,2.36,5.69l1.42,1.42c-1.72,2.84-2.99,5.89-3.79,9.09h-1.96c-4.44,0-8.06,3.62-8.06,8.06s3.62,8.04,8.06,8.04h1.96c.8,3.19,2.07,6.24,3.79,9.1l-1.4,1.39c-1.54,1.54-2.38,3.56-2.38,5.72s.84,4.18,2.36,5.7c1.52,1.52,3.55,2.36,5.7,2.36s4.18-.84,5.7-2.36l1.4-1.41c2.86,1.73,5.92,3,9.11,3.79v1.96c0,4.44,3.61,8.06,8.04,8.06s8.06-3.62,8.06-8.06v-1.97c3.22-.8,6.26-2.07,9.09-3.79l1.42,1.42c1.52,1.52,3.54,2.36,5.69,2.36s4.17-.84,5.69-2.36c1.52-1.52,2.35-3.54,2.35-5.69s-.84-4.19-2.35-5.71l-1.4-1.39c1.73-2.9,2.99-5.95,3.78-9.11h1.99c4.44,0,8.04-3.61,8.04-8.04s-3.61-8.06-8.04-8.06h-1.99c-.79-3.18-2.06-6.24-3.78-9.1l1.37-1.37c1.54-1.5,2.38-3.52,2.38-5.73s-.84-4.2-2.36-5.7c-1.48-1.48-3.54-2.33-5.68-2.33s-4.22.86-5.69,2.35l-1.41,1.4c-2.87-1.72-5.91-2.98-9.09-3.77v-1.99c0-4.44-3.62-8.04-8.06-8.04h0Z"/>
  </g>
  <g>
    <path class="cls-11" d="m605.77,341.11c-3.02,0-5.48-2.47-5.48-5.5v-2.65c0-.85-.59-1.6-1.41-1.77-3.41-.77-6.64-2.12-9.64-4.02-.27-.16-.62-.26-.96-.26-.5,0-.97.19-1.34.55l-1.85,1.87c-1.05,1.05-2.43,1.62-3.9,1.62s-2.85-.57-3.89-1.61c-2.14-2.14-2.14-5.63,0-7.78l1.91-1.89c.59-.59.69-1.55.24-2.28-1.89-3-3.23-6.23-4-9.6-.19-.85-.92-1.43-1.78-1.43h-2.65c-3.03,0-5.5-2.46-5.5-5.48s2.47-5.5,5.5-5.5h2.65c.87,0,1.6-.57,1.77-1.39.78-3.44,2.13-6.68,4.02-9.65.43-.7.33-1.66-.27-2.26l-1.9-1.9c-1.04-1.04-1.61-2.42-1.61-3.88s.57-2.84,1.61-3.88c1.02-1.01,2.43-1.58,3.9-1.58s2.86.56,3.88,1.58l1.89,1.89c.35.35.81.54,1.3.54.34,0,.67-.1.96-.28,3.05-1.89,6.29-3.23,9.63-3.99.82-.19,1.43-.94,1.43-1.78v-2.68c0-3.02,2.46-5.48,5.48-5.48s5.5,2.46,5.5,5.48v2.68c0,.86.58,1.59,1.42,1.78,3.38.77,6.61,2.11,9.6,3.98.3.19.63.28.97.28.49,0,.96-.19,1.3-.54l1.91-1.89c.97-.99,2.39-1.58,3.87-1.58s2.9.59,3.9,1.61c1,.97,1.58,2.36,1.58,3.86s-.58,2.91-1.64,3.92l-1.86,1.86c-.58.59-.69,1.55-.24,2.26,1.88,3.01,3.22,6.24,3.99,9.63.19.82.92,1.41,1.78,1.41h2.68c3.02,0,5.48,2.47,5.48,5.5s-2.46,5.48-5.48,5.48h-2.68c-.84,0-1.59.6-1.78,1.44-.76,3.34-2.1,6.58-3.97,9.6-.46.73-.35,1.69.24,2.3l1.88,1.86c1.04,1.04,1.61,2.43,1.61,3.91s-.57,2.85-1.6,3.88c-1.04,1.04-2.42,1.61-3.88,1.61s-2.84-.57-3.88-1.61l-1.9-1.9c-.34-.34-.8-.53-1.3-.53-.35,0-.69.1-.99.28-2.95,1.87-6.19,3.22-9.6,4-.84.18-1.41.91-1.41,1.78v2.65c0,3.03-2.47,5.5-5.5,5.5Zm11.31-35.18c-1.01,0-1.83.82-1.83,1.83,0,3.74-3.04,6.79-6.79,6.79-1.01,0-1.83.82-1.83,1.83s.82,1.83,1.83,1.83c5.76,0,10.44-4.68,10.44-10.44,0-1.02-.8-1.83-1.83-1.83Zm-29.26-10.34c-1.01,0-1.83.82-1.83,1.83,0,5.76,4.68,10.44,10.44,10.44,1.01,0,1.83-.82,1.83-1.83s-.82-1.83-1.83-1.83c-3.74,0-6.79-3.04-6.79-6.79,0-1.01-.82-1.83-1.83-1.83Zm18.95-12.04c-1.02,0-1.83.8-1.83,1.83s.82,1.83,1.83,1.83c3.73,0,6.76,3.04,6.76,6.79,0,1.01.82,1.83,1.83,1.83s1.83-.82,1.83-1.83c0-5.76-4.67-10.44-10.41-10.44Z"/>
    <path class="cls-2" d="m605.77,263.25c1.59,0,2.9,1.29,2.9,2.88v2.68c0,2.06,1.42,3.85,3.43,4.31,3.12.71,6.09,1.95,8.81,3.65.72.46,1.54.68,2.35.68,1.15,0,2.29-.45,3.14-1.3l1.9-1.89c.54-.55,1.29-.83,2.04-.83s1.5.28,2.04.83c.55.54.84,1.26.84,2.04s-.29,1.51-.84,2.04l-1.9,1.9c-1.44,1.46-1.7,3.74-.6,5.49,1.7,2.72,2.94,5.69,3.65,8.81.47,2.01,2.26,3.43,4.31,3.43h2.68c1.6,0,2.88,1.31,2.88,2.9s-1.29,2.88-2.88,2.88h-2.68c-2.06,0-3.85,1.44-4.31,3.45-.71,3.12-1.95,6.07-3.65,8.81-1.11,1.75-.84,4.03.6,5.49l1.9,1.88c.55.55.84,1.28.84,2.06s-.29,1.49-.84,2.04c-.57.57-1.3.85-2.04.85s-1.47-.28-2.04-.85l-1.9-1.9c-.85-.85-1.99-1.29-3.13-1.29-.81,0-1.63.22-2.36.67-2.72,1.73-5.69,2.97-8.81,3.67-2.01.44-3.43,2.23-3.43,4.32v2.65c0,1.59-1.31,2.9-2.9,2.9s-2.88-1.31-2.88-2.9v-2.65c0-2.08-1.44-3.87-3.45-4.32-3.12-.71-6.07-1.95-8.81-3.67-.73-.44-1.55-.67-2.34-.67-1.16,0-2.28.44-3.15,1.28l-1.89,1.9c-.57.57-1.31.85-2.05.85s-1.48-.28-2.05-.85c-1.13-1.13-1.13-2.97,0-4.1l1.9-1.89c1.46-1.46,1.7-3.74.62-5.49-1.73-2.75-2.97-5.69-3.68-8.81-.44-2.01-2.23-3.45-4.32-3.45h-2.65c-1.59,0-2.9-1.29-2.9-2.88s1.31-2.9,2.9-2.9h2.65c2.08,0,3.87-1.42,4.32-3.43.71-3.12,1.95-6.09,3.68-8.81,1.08-1.75.84-4.03-.62-5.49l-1.9-1.9c-1.13-1.13-1.13-2.94,0-4.07.55-.54,1.3-.82,2.06-.82s1.49.27,2.04.82l1.89,1.89c.86.86,2,1.3,3.14,1.3.81,0,1.62-.22,2.35-.68,2.75-1.7,5.69-2.94,8.81-3.65,2.01-.47,3.45-2.26,3.45-4.31v-2.68c0-1.6,1.29-2.88,2.88-2.88m9.58,35.18c2.46,0,4.43-1.99,4.43-4.43,0-7.19-5.85-13.04-13.01-13.04-2.46,0-4.43,1.97-4.43,4.43s1.97,4.43,4.43,4.43c2.3,0,4.16,1.88,4.16,4.19,0,2.44,1.99,4.43,4.43,4.43m-18.92,12.04c2.43,0,4.43-1.96,4.43-4.43s-1.99-4.43-4.43-4.43c-2.3,0-4.19-1.88-4.19-4.19,0-2.44-1.99-4.43-4.43-4.43s-4.43,1.99-4.43,4.43c0,7.19,5.85,13.04,13.04,13.04m12.04,10.34c7.19,0,13.04-5.85,13.04-13.04,0-2.46-1.97-4.43-4.43-4.43s-4.43,1.97-4.43,4.43c0,2.3-1.88,4.19-4.19,4.19-2.44,0-4.43,1.97-4.43,4.43s1.99,4.43,4.43,4.43m-2.7-62.76c-4.46,0-8.08,3.63-8.08,8.08v2.06c-3.21.79-6.34,2.09-9.3,3.85l-1.46-1.46c-1.51-1.51-3.54-2.34-5.72-2.34s-4.23.85-5.72,2.33c-1.55,1.55-2.39,3.58-2.39,5.73s.84,4.19,2.37,5.71l1.47,1.47c-1.76,2.89-3.06,6.01-3.87,9.29h-2.04c-4.47,0-8.1,3.63-8.1,8.1s3.63,8.08,8.1,8.08h2.04c.81,3.26,2.11,6.38,3.87,9.3l-1.46,1.44c-1.55,1.55-2.39,3.58-2.39,5.74s.84,4.2,2.37,5.73c1.53,1.53,3.56,2.37,5.73,2.37s4.2-.84,5.73-2.37l1.45-1.47c2.92,1.77,6.05,3.07,9.31,3.88v2.04c0,4.47,3.63,8.1,8.08,8.1s8.1-3.63,8.1-8.1v-2.04c3.29-.82,6.4-2.11,9.29-3.87l1.47,1.47c1.53,1.53,3.56,2.37,5.71,2.37s4.18-.84,5.71-2.37c1.52-1.52,2.36-3.56,2.36-5.72s-.84-4.21-2.36-5.74l-1.46-1.45c1.77-2.96,3.06-6.08,3.86-9.31h2.07c4.46,0,8.08-3.62,8.08-8.08s-3.63-8.1-8.08-8.1h-2.07c-.8-3.25-2.1-6.38-3.86-9.3l1.43-1.43c1.55-1.5,2.4-3.54,2.4-5.75s-.84-4.22-2.37-5.73c-1.48-1.49-3.56-2.35-5.71-2.35s-4.23.86-5.72,2.36l-1.47,1.46c-2.93-1.76-6.04-3.05-9.29-3.85v-2.07c0-4.46-3.63-8.08-8.1-8.08h0Z"/>
  </g>
  <g>
    <path class="cls-11" d="m441.05,597.83c-2.93,0-5.32-2.39-5.32-5.33v-1.22c-2.06-.52-4.02-1.34-5.85-2.44l-.86.87c-1.02,1.02-2.36,1.57-3.78,1.57s-2.76-.55-3.77-1.56c-1.01-1.01-1.56-2.35-1.56-3.77s.56-2.76,1.56-3.77l.88-.87c-1.1-1.84-1.92-3.8-2.44-5.85h-1.22c-2.94,0-5.33-2.39-5.33-5.32s2.39-5.33,5.33-5.33h1.22c.52-2.07,1.34-4.02,2.43-5.84l-.88-.88c-1.01-1.01-1.56-2.34-1.56-3.76s.56-2.76,1.56-3.76c.99-.98,2.36-1.54,3.77-1.54s2.77.55,3.77,1.54l.87.87c1.87-1.11,3.83-1.92,5.85-2.42v-1.24c0-2.93,2.39-5.32,5.32-5.32s5.33,2.39,5.33,5.32v1.24c2.04.51,4,1.33,5.84,2.42l.89-.88c.94-.96,2.32-1.54,3.75-1.54s2.81.58,3.79,1.58c.96.93,1.53,2.28,1.53,3.74s-.57,2.83-1.61,3.82l-.81.82c1.1,1.85,1.91,3.8,2.43,5.85h1.24c2.93,0,5.32,2.39,5.32,5.33s-2.39,5.32-5.32,5.32h-1.24c-.51,2.03-1.33,4-2.43,5.86l.86.85c1.01,1.02,1.57,2.36,1.57,3.79s-.55,2.76-1.55,3.76c-1.01,1.01-2.34,1.56-3.76,1.56s-2.76-.55-3.76-1.56l-.88-.88c-1.81,1.09-3.77,1.91-5.84,2.43v1.22c0,2.94-2.39,5.33-5.33,5.33Z"/>
    <path class="cls-2" d="m441.05,545.92c1.02,0,1.86.83,1.86,1.85v1.73c0,1.32.91,2.48,2.21,2.78,2.01.46,3.92,1.25,5.67,2.35.47.29.99.44,1.51.44.74,0,1.47-.29,2.02-.84l1.22-1.21c.35-.36.83-.53,1.31-.53s.96.18,1.31.53c.36.35.54.81.54,1.31s-.18.97-.54,1.31l-1.22,1.22c-.92.94-1.1,2.41-.38,3.53,1.1,1.75,1.89,3.66,2.35,5.67.3,1.3,1.45,2.21,2.78,2.21h1.73c1.03,0,1.85.84,1.85,1.86s-.83,1.85-1.85,1.85h-1.73c-1.32,0-2.48.92-2.78,2.22-.46,2.01-1.25,3.91-2.35,5.67-.71,1.12-.54,2.59.38,3.53l1.22,1.21c.36.36.54.82.54,1.32s-.18.96-.54,1.31c-.36.36-.84.55-1.31.55s-.95-.18-1.31-.55l-1.22-1.22c-.55-.55-1.28-.83-2.02-.83-.52,0-1.05.14-1.52.43-1.75,1.11-3.66,1.91-5.67,2.37-1.3.28-2.21,1.44-2.21,2.78v1.71c0,1.02-.84,1.86-1.86,1.86s-1.85-.84-1.85-1.86v-1.71c0-1.34-.92-2.49-2.22-2.78-2.01-.46-3.91-1.25-5.67-2.37-.47-.28-1-.43-1.51-.43-.75,0-1.47.28-2.03.82l-1.21,1.22c-.36.36-.84.55-1.32.55s-.95-.18-1.32-.55c-.73-.73-.73-1.91,0-2.64l1.22-1.21c.94-.94,1.1-2.41.4-3.53-1.11-1.77-1.91-3.66-2.37-5.67-.28-1.3-1.44-2.22-2.78-2.22h-1.71c-1.02,0-1.86-.83-1.86-1.85s.84-1.86,1.86-1.86h1.71c1.34,0,2.49-.91,2.78-2.21.46-2.01,1.25-3.92,2.37-5.67.7-1.12.54-2.59-.4-3.53l-1.22-1.22c-.73-.73-.73-1.89,0-2.62.35-.35.84-.53,1.32-.53s.96.17,1.31.53l1.21,1.21c.55.55,1.28.84,2.02.84.52,0,1.05-.14,1.51-.44,1.77-1.1,3.66-1.89,5.67-2.35,1.3-.3,2.22-1.45,2.22-2.78v-1.73c0-1.03.83-1.85,1.85-1.85m6.17,22.64c1.58,0,2.85-1.28,2.85-2.85,0-4.63-3.76-8.39-8.38-8.39-1.58,0-2.85,1.27-2.85,2.85s1.27,2.85,2.85,2.85c1.48,0,2.68,1.21,2.68,2.69,0,1.57,1.28,2.85,2.85,2.85m-12.18,7.75c1.56,0,2.85-1.26,2.85-2.85s-1.28-2.85-2.85-2.85c-1.48,0-2.69-1.21-2.69-2.69,0-1.57-1.28-2.85-2.85-2.85s-2.85,1.28-2.85,2.85c0,4.63,3.76,8.39,8.39,8.39m7.75,6.66c4.63,0,8.39-3.76,8.39-8.39,0-1.58-1.27-2.85-2.85-2.85s-2.85,1.27-2.85,2.85c0,1.48-1.21,2.69-2.69,2.69-1.57,0-2.85,1.27-2.85,2.85s1.28,2.85,2.85,2.85m-1.74-43.98c-4.39,0-8.03,3.23-8.69,7.44-.65.24-1.29.51-1.93.8-1.49-1.09-3.29-1.68-5.19-1.68-2.35,0-4.56.9-6.21,2.54-3.12,3.12-3.42,7.99-.9,11.42-.3.63-.56,1.28-.81,1.93-4.21.66-7.44,4.31-7.44,8.69s3.23,8.03,7.43,8.68c.24.66.51,1.3.81,1.94-2.52,3.46-2.22,8.31.88,11.41,1.67,1.66,3.88,2.58,6.22,2.58,1.89,0,3.69-.59,5.19-1.69.64.3,1.28.57,1.94.81.66,4.21,4.3,7.43,8.68,7.43s8.04-3.23,8.69-7.44c.65-.24,1.3-.51,1.93-.8,1.5,1.1,3.3,1.7,5.19,1.7,2.34,0,4.55-.92,6.21-2.58,1.66-1.66,2.57-3.87,2.57-6.22,0-1.9-.59-3.7-1.69-5.2.3-.64.56-1.28.8-1.94,4.21-.65,7.44-4.3,7.44-8.69s-3.23-8.04-7.44-8.7c-.24-.65-.51-1.3-.8-1.93,1.08-1.49,1.69-3.31,1.69-5.19,0-2.37-.92-4.58-2.58-6.23-1.62-1.62-3.88-2.56-6.2-2.56-1.87,0-3.7.6-5.19,1.69-.63-.29-1.28-.56-1.93-.8-.65-4.21-4.3-7.44-8.7-7.44h0Z"/>
  </g>
  <g>
    <path class="cls-11" d="m738.88,436.75c-2.9,0-5.25-2.36-5.25-5.27v-2.45c0-.69-.48-1.29-1.13-1.44-3.16-.72-6.17-1.97-8.95-3.73-.21-.13-.5-.21-.77-.21-.41,0-.79.15-1.09.45l-1.7,1.72c-1,1-2.33,1.55-3.74,1.55s-2.73-.55-3.73-1.54c-2.05-2.06-2.05-5.4,0-7.45l1.76-1.75c.47-.47.56-1.25.19-1.84-1.75-2.78-3-5.78-3.71-8.91-.15-.69-.74-1.15-1.44-1.15h-2.45c-2.91,0-5.27-2.36-5.27-5.25s2.36-5.27,5.27-5.27h2.45c.7,0,1.29-.46,1.44-1.12.72-3.19,1.98-6.2,3.73-8.96.35-.57.27-1.34-.22-1.83l-1.75-1.75c-2.05-2.05-2.05-5.38,0-7.43.98-.97,2.33-1.52,3.73-1.52s2.74.54,3.72,1.52l1.74,1.74c.28.28.66.44,1.06.44.27,0,.54-.08.77-.22,2.84-1.76,5.83-3,8.94-3.7.66-.15,1.15-.76,1.15-1.44v-2.47c0-2.9,2.36-5.25,5.25-5.25s5.27,2.36,5.27,5.25v2.47c0,.69.47,1.29,1.15,1.44,3.13.71,6.13,1.95,8.91,3.69.24.15.51.23.78.23.4,0,.77-.16,1.06-.44l1.76-1.75c.93-.95,2.29-1.52,3.71-1.52s2.78.56,3.74,1.55c.96.92,1.51,2.26,1.51,3.7s-.56,2.79-1.58,3.76l-1.71,1.71c-.47.48-.56,1.25-.19,1.83,1.74,2.79,2.99,5.79,3.7,8.93.15.67.75,1.14,1.44,1.14h2.47c2.9,0,5.25,2.36,5.25,5.27s-2.36,5.25-5.25,5.25h-2.47c-.68,0-1.29.49-1.44,1.17-.71,3.1-1.95,6.1-3.69,8.9-.38.59-.29,1.37.2,1.86l1.73,1.71c1,1,1.54,2.32,1.54,3.74s-.54,2.73-1.54,3.72c-1,1-2.31,1.54-3.71,1.54s-2.72-.55-3.72-1.54l-1.75-1.75c-.28-.28-.65-.43-1.05-.43-.28,0-.56.08-.8.23-2.74,1.74-5.74,2.99-8.91,3.71-.68.15-1.14.74-1.14,1.44v2.45c0,2.91-2.36,5.27-5.27,5.27Zm10.42-32.41c-.82,0-1.48.66-1.48,1.48,0,3.56-2.9,6.46-6.46,6.46-.81,0-1.48.66-1.48,1.48s.66,1.48,1.48,1.48c5.19,0,9.42-4.22,9.42-9.41,0-.83-.65-1.48-1.48-1.48Zm-26.96-9.53c-.82,0-1.48.66-1.48,1.48,0,5.19,4.22,9.41,9.42,9.41.82,0,1.48-.66,1.48-1.48s-.66-1.48-1.48-1.48c-3.56,0-6.46-2.9-6.46-6.46,0-.82-.66-1.48-1.48-1.48Zm17.46-11.09c-.83,0-1.48.65-1.48,1.48s.66,1.48,1.48,1.48c3.55,0,6.43,2.9,6.43,6.46,0,.82.66,1.48,1.48,1.48s1.48-.66,1.48-1.48c0-5.19-4.21-9.41-9.39-9.41Z"/>
    <path class="cls-2" d="m738.88,364.79c1.47,0,2.67,1.19,2.67,2.65v2.47c0,1.9,1.31,3.55,3.16,3.98,2.88.65,5.61,1.79,8.12,3.36.67.42,1.42.63,2.16.63,1.06,0,2.11-.41,2.9-1.2l1.75-1.74c.5-.51,1.19-.77,1.88-.77s1.38.25,1.88.77c.51.49.77,1.16.77,1.88s-.26,1.39-.77,1.88l-1.75,1.75c-1.32,1.35-1.57,3.45-.55,5.06,1.57,2.51,2.71,5.24,3.36,8.12.43,1.86,2.08,3.16,3.98,3.16h2.47c1.47,0,2.65,1.2,2.65,2.67s-1.19,2.65-2.65,2.65h-2.47c-1.9,0-3.55,1.32-3.98,3.18-.65,2.88-1.79,5.59-3.36,8.12-1.02,1.61-.77,3.71.55,5.06l1.75,1.74c.51.51.77,1.18.77,1.9s-.26,1.37-.77,1.88c-.52.52-1.2.78-1.88.78s-1.35-.26-1.88-.78l-1.75-1.75c-.79-.79-1.83-1.19-2.89-1.19-.75,0-1.5.2-2.17.62-2.51,1.59-5.24,2.73-8.12,3.39-1.86.41-3.16,2.06-3.16,3.98v2.45c0,1.47-1.2,2.67-2.67,2.67s-2.65-1.2-2.65-2.67v-2.45c0-1.91-1.32-3.57-3.18-3.98-2.88-.65-5.59-1.79-8.12-3.39-.67-.41-1.43-.61-2.16-.61-1.07,0-2.1.41-2.9,1.18l-1.74,1.75c-.52.52-1.21.78-1.89.78s-1.37-.26-1.89-.78c-1.04-1.04-1.04-2.73,0-3.78l1.75-1.74c1.35-1.35,1.57-3.45.57-5.06-1.59-2.53-2.73-5.24-3.39-8.12-.41-1.86-2.06-3.18-3.98-3.18h-2.45c-1.47,0-2.67-1.19-2.67-2.65s1.2-2.67,2.67-2.67h2.45c1.91,0,3.57-1.31,3.98-3.16.65-2.88,1.79-5.61,3.39-8.12,1-1.61.77-3.71-.57-5.06l-1.75-1.75c-1.04-1.04-1.04-2.71,0-3.75.51-.5,1.2-.76,1.89-.76s1.38.25,1.88.76l1.74,1.74c.79.79,1.84,1.2,2.9,1.2.75,0,1.5-.21,2.16-.63,2.53-1.57,5.24-2.71,8.12-3.36,1.86-.43,3.18-2.08,3.18-3.98v-2.47c0-1.47,1.19-2.65,2.65-2.65m8.83,32.41c2.26,0,4.08-1.83,4.08-4.08,0-6.63-5.39-12.02-11.99-12.02-2.26,0-4.08,1.82-4.08,4.08s1.82,4.08,4.08,4.08c2.12,0,3.83,1.74,3.83,3.86,0,2.25,1.83,4.08,4.08,4.08m-17.43,11.09c2.24,0,4.08-1.81,4.08-4.08s-1.83-4.08-4.08-4.08c-2.12,0-3.86-1.74-3.86-3.86,0-2.25-1.83-4.08-4.08-4.08s-4.08,1.83-4.08,4.08c0,6.63,5.39,12.02,12.02,12.02m11.09,9.53c6.63,0,12.02-5.39,12.02-12.02,0-2.26-1.82-4.08-4.08-4.08s-4.08,1.82-4.08,4.08c0,2.12-1.74,3.86-3.86,3.86-2.25,0-4.08,1.82-4.08,4.08s1.83,4.08,4.08,4.08m-2.49-58.24c-4.33,0-7.85,3.52-7.85,7.85v1.58c-2.79.72-5.51,1.85-8.09,3.36l-1.12-1.12c-1.47-1.47-3.44-2.28-5.56-2.28s-4.11.83-5.56,2.27c-1.5,1.5-2.32,3.47-2.32,5.57s.82,4.07,2.31,5.55l1.13,1.13c-1.51,2.53-2.64,5.25-3.37,8.08h-1.56c-4.34,0-7.87,3.53-7.87,7.87s3.53,7.85,7.87,7.85h1.56c.73,2.83,1.86,5.54,3.37,8.09l-1.11,1.1c-3.09,3.09-3.09,8.08-.02,11.15,1.49,1.49,3.46,2.31,5.57,2.31s4.08-.82,5.57-2.31l1.11-1.12c2.55,1.51,5.27,2.65,8.1,3.38v1.56c0,4.34,3.52,7.87,7.85,7.87s7.87-3.53,7.87-7.87v-1.57c2.86-.74,5.56-1.87,8.08-3.37l1.13,1.13c1.49,1.49,3.46,2.31,5.55,2.31s4.07-.82,5.55-2.31c1.48-1.48,2.3-3.45,2.3-5.56s-.82-4.09-2.3-5.57l-1.12-1.11c1.52-2.59,2.64-5.3,3.36-8.11h1.58c4.33,0,7.85-3.52,7.85-7.85s-3.52-7.87-7.85-7.87h-1.59c-.73-2.82-1.85-5.54-3.36-8.1l1.09-1.09c1.5-1.46,2.33-3.44,2.33-5.59s-.82-4.1-2.31-5.57c-1.44-1.45-3.46-2.28-5.55-2.28s-4.11.83-5.56,2.29l-1.13,1.12c-2.56-1.5-5.27-2.62-8.08-3.35v-1.59c0-4.33-3.53-7.85-7.87-7.85h0Z"/>
  </g>
  <g>
    <path class="cls-11" d="m730.13,261.3c-3.4,0-6.17-2.78-6.17-6.19v-3.29c0-1.34-.94-2.52-2.23-2.8-4.14-.94-8.09-2.59-11.74-4.89-.44-.26-.99-.42-1.51-.42-.78,0-1.52.3-2.09.85l-2.3,2.32c-1.18,1.18-2.73,1.82-4.39,1.82s-3.21-.64-4.38-1.81c-2.41-2.41-2.41-6.34,0-8.75l2.36-2.34c.93-.93,1.1-2.44.39-3.58-2.3-3.66-3.94-7.6-4.88-11.7-.29-1.33-1.44-2.25-2.81-2.25h-3.29c-3.41,0-6.19-2.77-6.19-6.17s2.78-6.19,6.19-6.19h3.29c1.37,0,2.52-.91,2.8-2.21.95-4.18,2.6-8.13,4.9-11.75.69-1.12.52-2.63-.42-3.57l-2.36-2.36c-2.4-2.4-2.4-6.32,0-8.72,1.14-1.13,2.74-1.78,4.39-1.78s3.22.63,4.37,1.78l2.33,2.33c.55.55,1.28.85,2.05.85.54,0,1.06-.15,1.52-.44,3.72-2.3,7.66-3.93,11.73-4.86,1.3-.3,2.25-1.48,2.25-2.81v-3.32c0-3.4,2.77-6.17,6.17-6.17s6.19,2.77,6.19,6.17v3.32c0,1.35.92,2.5,2.24,2.81,4.11.93,8.06,2.57,11.7,4.85.47.3.99.45,1.53.45.77,0,1.5-.3,2.05-.85l2.36-2.34c1.09-1.12,2.69-1.78,4.35-1.78s3.26.66,4.38,1.81c1.13,1.09,1.78,2.65,1.78,4.34s-.66,3.28-1.85,4.41l-2.31,2.31c-.92.94-1.09,2.45-.38,3.57,2.29,3.66,3.92,7.6,4.86,11.73.3,1.31,1.46,2.23,2.81,2.23h3.32c3.4,0,6.17,2.78,6.17,6.19s-2.77,6.17-6.17,6.17h-3.32c-1.33,0-2.51.95-2.81,2.26-.93,4.08-2.56,8.02-4.84,11.7-.72,1.14-.55,2.65.39,3.6l2.33,2.31c1.17,1.17,1.81,2.73,1.81,4.4s-.64,3.21-1.8,4.37c-1.17,1.17-2.72,1.81-4.36,1.81s-3.19-.64-4.36-1.81l-2.36-2.36c-.54-.54-1.27-.84-2.04-.84-.55,0-1.08.15-1.55.44-3.6,2.29-7.55,3.93-11.7,4.88-1.32.29-2.23,1.44-2.23,2.81v3.29c0,3.41-2.78,6.19-6.19,6.19Zm14.01-43.56c-1.59,0-2.88,1.29-2.88,2.88,0,4.29-3.49,7.78-7.78,7.78-1.59,0-2.88,1.29-2.88,2.88s1.29,2.88,2.88,2.88c7.47,0,13.55-6.08,13.55-13.55,0-1.62-1.27-2.88-2.88-2.88Zm-36.24-12.81c-1.59,0-2.88,1.29-2.88,2.88,0,7.47,6.08,13.55,13.55,13.55,1.59,0,2.88-1.29,2.88-2.88s-1.29-2.88-2.88-2.88c-4.29,0-7.78-3.49-7.78-7.78,0-1.59-1.29-2.88-2.88-2.88Zm23.46-14.91c-1.62,0-2.88,1.27-2.88,2.88s1.29,2.88,2.88,2.88c4.27,0,7.75,3.49,7.75,7.78,0,1.59,1.29,2.88,2.88,2.88s2.88-1.29,2.88-2.88c0-7.47-6.06-13.55-13.52-13.55Z"/>
    <path class="cls-2" d="m730.13,165.49c1.97,0,3.59,1.6,3.59,3.57v3.32c0,2.55,1.76,4.77,4.25,5.34,3.87.88,7.54,2.41,10.91,4.52.9.57,1.9.84,2.91.84,1.42,0,2.83-.55,3.89-1.61l2.36-2.33c.67-.69,1.6-1.03,2.52-1.03s1.85.34,2.52,1.03c.69.66,1.04,1.56,1.04,2.53s-.35,1.87-1.04,2.53l-2.36,2.36c-1.78,1.81-2.11,4.64-.74,6.8,2.11,3.37,3.64,7.05,4.52,10.91.58,2.5,2.79,4.25,5.34,4.25h3.32c1.98,0,3.57,1.62,3.57,3.59s-1.6,3.57-3.57,3.57h-3.32c-2.55,0-4.77,1.78-5.34,4.27-.88,3.87-2.41,7.52-4.52,10.91-1.37,2.16-1.04,4.99.74,6.8l2.36,2.33c.69.69,1.04,1.58,1.04,2.55s-.35,1.84-1.04,2.53c-.7.7-1.61,1.05-2.52,1.05s-1.82-.35-2.52-1.05l-2.36-2.36c-1.06-1.06-2.46-1.6-3.88-1.6-1.01,0-2.02.27-2.92.83-3.37,2.14-7.05,3.67-10.91,4.55-2.5.55-4.25,2.76-4.25,5.34v3.29c0,1.97-1.62,3.59-3.59,3.59s-3.57-1.62-3.57-3.59v-3.29c0-2.57-1.78-4.8-4.27-5.34-3.87-.88-7.52-2.41-10.91-4.55-.9-.55-1.92-.82-2.9-.82-1.43,0-2.83.55-3.9,1.58l-2.33,2.36c-.7.7-1.62,1.05-2.54,1.05s-1.84-.35-2.54-1.05c-1.4-1.4-1.4-3.67,0-5.08l2.36-2.33c1.81-1.81,2.11-4.64.77-6.8-2.14-3.41-3.67-7.05-4.55-10.91-.55-2.49-2.76-4.27-5.34-4.27h-3.29c-1.97,0-3.59-1.6-3.59-3.57s1.62-3.59,3.59-3.59h3.29c2.57,0,4.8-1.76,5.34-4.25.88-3.87,2.41-7.54,4.55-10.91,1.34-2.16,1.04-4.99-.77-6.8l-2.36-2.36c-1.4-1.4-1.4-3.64,0-5.04.68-.67,1.61-1.02,2.55-1.02s1.85.33,2.53,1.02l2.33,2.33c1.06,1.06,2.47,1.61,3.89,1.61,1,0,2.01-.28,2.91-.84,3.41-2.11,7.05-3.64,10.91-4.52,2.5-.58,4.27-2.79,4.27-5.34v-3.32c0-1.98,1.6-3.57,3.57-3.57m11.86,43.56c3.04,0,5.48-2.46,5.48-5.48,0-8.91-7.24-16.15-16.12-16.15-3.04,0-5.48,2.44-5.48,5.48s2.44,5.48,5.48,5.48c2.85,0,5.15,2.33,5.15,5.18,0,3.02,2.46,5.48,5.48,5.48m-23.43,14.91c3.01,0,5.48-2.43,5.48-5.48s-2.46-5.48-5.48-5.48c-2.85,0-5.18-2.33-5.18-5.18,0-3.02-2.46-5.48-5.48-5.48s-5.48,2.46-5.48,5.48c0,8.91,7.24,16.15,16.15,16.15m14.91,12.81c8.91,0,16.15-7.24,16.15-16.15,0-3.04-2.44-5.48-5.48-5.48s-5.48,2.44-5.48,5.48c0,2.85-2.33,5.18-5.18,5.18-3.02,0-5.48,2.44-5.48,5.48s2.46,5.48,5.48,5.48m-3.34-76.48c-4.83,0-8.77,3.93-8.77,8.77v3.32c0,.12-.11.24-.25.28-4.33.98-8.54,2.72-12.48,5.16h-.02s-.02.03-.02.03c-.02.02-.06.04-.12.04-.05,0-.14-.01-.21-.09l-2.33-2.33c-1.64-1.64-3.84-2.54-6.21-2.54s-4.59.92-6.21,2.53c-1.68,1.67-2.59,3.88-2.59,6.21s.91,4.54,2.58,6.2l2.36,2.36c.09.09.1.25.03.38-2.45,3.86-4.2,8.07-5.21,12.51-.03.13-.14.2-.27.2h-3.29c-4.85,0-8.79,3.94-8.79,8.79s3.94,8.77,8.79,8.77h3.29c.13,0,.24.07.26.18,1.01,4.43,2.76,8.65,5.23,12.57.06.09.05.26-.05.35l-2.34,2.32c-1.68,1.68-2.59,3.89-2.59,6.23s.91,4.56,2.58,6.22c1.66,1.66,3.87,2.58,6.22,2.58s4.55-.91,6.22-2.58l2.3-2.32c.08-.07.16-.1.26-.1.02,0,.1.01.19.06,3.89,2.44,8.09,4.19,12.48,5.19.14.03.22.14.22.27v3.29c0,4.85,3.93,8.79,8.77,8.79s8.79-3.94,8.79-8.79v-3.29c0-.1.04-.24.16-.26,4.47-1.02,8.68-2.77,12.55-5.21.05-.03.11-.04.17-.04.06,0,.14.01.2.08l2.36,2.36c1.66,1.66,3.86,2.58,6.2,2.58s4.54-.91,6.2-2.58c1.65-1.65,2.56-3.86,2.56-6.21s-.91-4.58-2.56-6.23l-2.33-2.31c-.09-.1-.11-.26-.05-.36,2.46-3.96,4.2-8.17,5.2-12.54.03-.12.15-.22.27-.22h3.32c4.83,0,8.77-3.93,8.77-8.77s-3.93-8.79-8.77-8.79h-3.32c-.13,0-.25-.09-.28-.22-1-4.39-2.74-8.6-5.18-12.5-.08-.13-.06-.3.04-.4l2.29-2.29c1.67-1.62,2.6-3.84,2.6-6.24s-.91-4.58-2.57-6.21c-1.61-1.62-3.86-2.54-6.19-2.54s-4.6.93-6.21,2.56l-2.33,2.31c-.1.1-.19.11-.23.11-.06,0-.1-.02-.12-.04-3.92-2.45-8.13-4.2-12.54-5.2-.11-.03-.2-.14-.2-.27v-3.32c0-4.83-3.94-8.77-8.79-8.77h0Zm11.86,43.56c-.15,0-.28-.13-.28-.28,0-5.73-4.64-10.38-10.35-10.38-.18,0-.28-.14-.28-.28,0-.17.11-.28.28-.28,6.02,0,10.91,4.91,10.91,10.95,0,.14-.11.28-.28.28h0Zm-23.43,14.91c-6.04,0-10.95-4.91-10.95-10.95,0-.15.13-.28.28-.28s.28.13.28.28c0,5.73,4.66,10.38,10.38,10.38.15,0,.28.13.28.28,0,.18-.14.28-.28.28h0Zm14.91,12.81c-.15,0-.28-.13-.28-.28,0-.18.14-.28.28-.28,5.73,0,10.38-4.66,10.38-10.38,0-.18.14-.28.28-.28.17,0,.28.11.28.28,0,6.04-4.91,10.95-10.95,10.95h0Z"/>
  </g>
  <g>
    <path class="cls-11" d="m745.98,746.64c-3.41,0-6.18-2.78-6.18-6.2v-3.3c0-1.35-.94-2.54-2.24-2.82-4.16-.94-8.11-2.59-11.78-4.91-.44-.27-.99-.43-1.52-.43-.78,0-1.53.3-2.1.86l-2.31,2.33c-1.18,1.18-2.74,1.83-4.39,1.83s-3.21-.65-4.38-1.82c-2.42-2.42-2.42-6.35,0-8.77l2.37-2.35c.94-.94,1.1-2.46.39-3.61-2.31-3.67-3.96-7.62-4.89-11.74-.29-1.34-1.45-2.26-2.82-2.26h-3.3c-3.42,0-6.2-2.77-6.2-6.18s2.78-6.2,6.2-6.2h3.3c1.37,0,2.53-.91,2.82-2.22.95-4.19,2.6-8.15,4.91-11.78.7-1.12.53-2.64-.42-3.59l-2.36-2.36c-2.41-2.41-2.41-6.33,0-8.74,1.14-1.13,2.74-1.78,4.39-1.78s3.23.63,4.38,1.78l2.34,2.34c.55.55,1.29.86,2.07.86.54,0,1.07-.15,1.52-.44,3.73-2.31,7.68-3.95,11.76-4.87,1.31-.3,2.26-1.49,2.26-2.82v-3.33c0-3.41,2.77-6.18,6.18-6.18s6.2,2.77,6.2,6.18v3.33c0,1.36.93,2.52,2.25,2.83,4.13.94,8.08,2.57,11.74,4.86.47.3,1,.45,1.54.45.78,0,1.51-.3,2.07-.86l2.37-2.35c1.1-1.12,2.7-1.78,4.36-1.78s3.26.66,4.39,1.81c1.13,1.09,1.78,2.66,1.78,4.35s-.66,3.28-1.85,4.42l-2.32,2.32c-.93.95-1.1,2.46-.38,3.59,2.3,3.67,3.93,7.62,4.87,11.76.3,1.31,1.47,2.24,2.82,2.24h3.33c3.41,0,6.18,2.78,6.18,6.2s-2.77,6.18-6.18,6.18h-3.33c-1.33,0-2.52.96-2.83,2.27-.93,4.09-2.56,8.04-4.86,11.73-.73,1.15-.56,2.66.39,3.63l2.34,2.32c1.17,1.17,1.81,2.73,1.81,4.4s-.64,3.21-1.8,4.37c-1.17,1.17-2.72,1.82-4.37,1.82s-3.2-.65-4.37-1.82l-2.36-2.36c-.54-.54-1.27-.84-2.05-.84-.55,0-1.09.15-1.56.44-3.61,2.29-7.57,3.94-11.74,4.89-1.33.29-2.24,1.45-2.24,2.82v3.3c0,3.42-2.78,6.2-6.2,6.2Zm14.05-43.7c-1.6,0-2.9,1.3-2.9,2.9,0,4.3-3.5,7.8-7.8,7.8-1.6,0-2.9,1.3-2.9,2.9s1.3,2.9,2.9,2.9c7.5,0,13.6-6.1,13.6-13.6,0-1.63-1.27-2.9-2.9-2.9Zm-36.35-12.85c-1.6,0-2.9,1.3-2.9,2.9,0,7.5,6.1,13.6,13.6,13.6,1.6,0,2.9-1.3,2.9-2.9s-1.3-2.9-2.9-2.9c-4.3,0-7.8-3.5-7.8-7.8,0-1.6-1.3-2.9-2.9-2.9Zm23.54-14.95c-1.63,0-2.9,1.27-2.9,2.9s1.3,2.9,2.9,2.9c4.28,0,7.77,3.5,7.77,7.8,0,1.6,1.3,2.9,2.9,2.9s2.9-1.3,2.9-2.9c0-7.5-6.09-13.6-13.57-13.6Z"/>
    <path class="cls-2" d="m745.98,650.53c1.98,0,3.6,1.6,3.6,3.58v3.33c0,2.56,1.76,4.78,4.26,5.36,3.88.88,7.56,2.42,10.95,4.53.9.57,1.91.85,2.92.85,1.43,0,2.84-.56,3.9-1.62l2.36-2.34c.67-.69,1.6-1.03,2.53-1.03s1.86.34,2.53,1.03c.69.67,1.04,1.57,1.04,2.54s-.35,1.88-1.04,2.54l-2.36,2.36c-1.78,1.82-2.12,4.65-.74,6.82,2.12,3.38,3.65,7.07,4.53,10.95.58,2.5,2.8,4.27,5.36,4.27h3.33c1.99,0,3.58,1.62,3.58,3.6s-1.6,3.58-3.58,3.58h-3.33c-2.56,0-4.78,1.78-5.36,4.29-.88,3.88-2.42,7.54-4.53,10.95-1.38,2.17-1.04,5.01.74,6.82l2.36,2.34c.69.69,1.04,1.59,1.04,2.56s-.35,1.85-1.04,2.54-1.62,1.06-2.53,1.06-1.83-.35-2.53-1.06l-2.36-2.36c-1.06-1.06-2.47-1.6-3.89-1.6-1.01,0-2.03.27-2.93.83-3.38,2.15-7.07,3.69-10.95,4.57-2.5.55-4.26,2.77-4.26,5.36v3.3c0,1.98-1.62,3.6-3.6,3.6s-3.58-1.62-3.58-3.6v-3.3c0-2.58-1.78-4.81-4.29-5.36-3.88-.88-7.54-2.42-10.95-4.57-.9-.55-1.92-.83-2.91-.83-1.44,0-2.84.55-3.91,1.59l-2.34,2.36c-.7.7-1.62,1.06-2.55,1.06s-1.84-.35-2.55-1.06c-1.41-1.41-1.41-3.68,0-5.09l2.36-2.34c1.82-1.82,2.12-4.65.77-6.82-2.15-3.42-3.68-7.07-4.57-10.95-.55-2.5-2.77-4.29-5.36-4.29h-3.3c-1.98,0-3.6-1.6-3.6-3.58s1.62-3.6,3.6-3.6h3.3c2.58,0,4.81-1.76,5.36-4.26.88-3.88,2.42-7.56,4.57-10.95,1.34-2.17,1.04-5.01-.77-6.82l-2.36-2.36c-1.41-1.41-1.41-3.65,0-5.06.68-.68,1.62-1.02,2.55-1.02s1.85.34,2.54,1.02l2.34,2.34c1.06,1.06,2.48,1.62,3.9,1.62,1.01,0,2.02-.28,2.92-.85,3.42-2.12,7.07-3.65,10.95-4.53,2.5-.58,4.29-2.8,4.29-5.36v-3.33c0-1.99,1.6-3.58,3.58-3.58m11.9,43.7c3.05,0,5.5-2.47,5.5-5.5,0-8.94-7.26-16.2-16.17-16.2-3.05,0-5.5,2.45-5.5,5.5s2.45,5.5,5.5,5.5c2.86,0,5.17,2.34,5.17,5.2,0,3.03,2.47,5.5,5.5,5.5m-23.5,14.95c3.02,0,5.5-2.44,5.5-5.5s-2.47-5.5-5.5-5.5c-2.86,0-5.2-2.34-5.2-5.2,0-3.03-2.47-5.5-5.5-5.5s-5.5,2.47-5.5,5.5c0,8.94,7.26,16.2,16.2,16.2m14.95,12.85c8.94,0,16.2-7.26,16.2-16.2,0-3.05-2.45-5.5-5.5-5.5s-5.5,2.45-5.5,5.5c0,2.86-2.34,5.2-5.2,5.2-3.03,0-5.5,2.45-5.5,5.5s2.47,5.5,5.5,5.5m-3.35-76.7c-4.84,0-8.78,3.94-8.78,8.78v3.33c0,.13-.11.26-.26.29-4.34.99-8.56,2.73-12.51,5.18h-.02s-.02.03-.02.03c-.03.02-.07.04-.13.04-.05,0-.14-.01-.23-.1l-2.34-2.34c-1.64-1.64-3.85-2.54-6.22-2.54s-4.6.92-6.22,2.53c-1.68,1.68-2.59,3.88-2.59,6.22s.92,4.54,2.58,6.21l2.36,2.36c.09.09.11.27.03.4-2.45,3.88-4.21,8.09-5.22,12.54-.03.14-.15.22-.29.22h-3.3c-4.85,0-8.8,3.95-8.8,8.8s3.95,8.78,8.8,8.78h3.3c.14,0,.25.08.28.2,1.01,4.44,2.77,8.67,5.24,12.6.06.1.05.28-.05.37l-2.35,2.33c-1.68,1.68-2.6,3.89-2.6,6.24s.92,4.56,2.58,6.22,3.87,2.58,6.22,2.58,4.56-.92,6.22-2.58l2.3-2.32c.08-.07.17-.1.27-.1.02,0,.1.01.19.06,3.9,2.45,8.11,4.2,12.51,5.2.15.03.24.15.24.29v3.3c0,4.85,3.94,8.8,8.78,8.8s8.8-3.95,8.8-8.8v-3.3c0-.11.05-.25.17-.28,4.49-1.02,8.71-2.78,12.58-5.23.05-.03.12-.05.18-.05.06,0,.15.01.22.08l2.36,2.36c1.66,1.66,3.87,2.58,6.21,2.58s4.54-.92,6.21-2.58c1.65-1.65,2.57-3.86,2.57-6.21s-.91-4.58-2.57-6.23l-2.34-2.32c-.1-.11-.12-.27-.05-.38,2.47-3.98,4.22-8.2,5.21-12.58.03-.13.16-.24.29-.24h3.33c4.84,0,8.78-3.94,8.78-8.78s-3.94-8.8-8.78-8.8h-3.33c-.14,0-.26-.1-.29-.24-1-4.4-2.75-8.62-5.19-12.53-.09-.14-.06-.31.04-.42l2.3-2.29c1.68-1.63,2.6-3.84,2.6-6.25s-.91-4.59-2.57-6.22c-1.61-1.62-3.86-2.55-6.2-2.55s-4.6.93-6.21,2.56l-2.34,2.32c-.1.1-.19.11-.24.11-.06,0-.1-.02-.13-.04-3.93-2.46-8.16-4.21-12.58-5.21-.12-.03-.22-.15-.22-.29v-3.33c0-4.84-3.95-8.78-8.8-8.78h0Zm11.9,43.7c-.16,0-.3-.14-.3-.3,0-5.73-4.65-10.4-10.37-10.4-.19,0-.3-.15-.3-.3,0-.18.12-.3.3-.3,6.05,0,10.97,4.93,10.97,11,0,.15-.11.3-.3.3h0Zm-23.5,14.95c-6.06,0-11-4.93-11-11,0-.16.14-.3.3-.3s.3.14.3.3c0,5.73,4.67,10.4,10.4,10.4.16,0,.3.14.3.3,0,.19-.15.3-.3.3h0Zm14.95,12.85c-.16,0-.3-.14-.3-.3,0-.19.15-.3.3-.3,5.74,0,10.4-4.67,10.4-10.4,0-.19.15-.3.3-.3.18,0,.3.12.3.3,0,6.06-4.93,11-11,11h0Z"/>
  </g>
  <path class="cls-10" d="m692.79,707.92c1.13-1.91,1.71-4.04,1.71-6.25,0-4.39-2.25-8.33-5.96-10.58,1.04-1.86,1.59-3.93,1.59-6.06,0-3.12-1.14-6.03-3.24-8.32,2.1-2.3,3.24-5.21,3.24-8.32,0-1.94-.46-3.84-1.33-5.57,4.15-2.1,6.86-6.4,6.86-11.08,0-2.42-.71-4.75-2.07-6.79,3.09-2.35,4.9-5.95,4.9-9.85s-1.87-7.64-5.06-9.98c1.96-4.65.96-10-2.63-13.59-3.06-3.06-7.62-4.28-11.82-3.23-2.04-4.3-6.42-7.12-11.21-7.12-3.98,0-7.73,1.96-10.05,5.2-2.08-1.45-4.53-2.23-7.03-2.23-4.35,0-8.29,2.23-10.54,5.9-1.98-1.25-4.22-1.91-6.54-1.91-4.05,0-7.84,2.02-10.16,5.34-4.7-3.22-11.34-2.64-15.47,1.31-3.84-3.67-9.89-4.46-14.5-1.93-2.07-4.22-6.39-6.96-11.12-6.96-2.25,0-4.42.62-6.37,1.79-2.22-3.78-6.29-6.16-10.72-6.16-2.58,0-5.09.83-7.2,2.35-2.35-3.12-5.95-4.95-9.88-4.95-5.3,0-10.04,3.45-11.74,8.47-1.44.62-2.72,1.5-3.8,2.59-4.41,4.41-4.82,11.34-1.12,16.25-1.4,1.57-2.35,4.36-2.47,7.45-.17,4.59,1.49,8.74,4.61,11.59-2.93,2.37-4.64,6.11-4.74,10.5-.08,3.46.86,6.79,2.33,8.52-3.41,5.54-3.82,11.29-1.16,16.28,2.84,5.31,8.17,8.19,11.75,8.19h11.14c3.9,0,8.75-4.37,10.82-9.74,2.09-5.44,1.04-10.8-2.88-14.9,1.5-1.77,2.76-5.04,2.68-8.62-.09-4.3-2.07-7.98-5.59-10.5,2.96-4.96,2.77-8.83,1.92-11.49,3.61,1.76,8.14,1.59,11.72-.57,2.22,3.78,6.29,6.15,10.72,6.15,2.09,0,4.13-.53,5.95-1.54,2.07,4.22,6.39,6.96,11.12,6.96,3.18,0,6.23-1.24,8.54-3.46,2.32,2.22,5.36,3.46,8.54,3.46,4.06,0,7.85-2.02,10.16-5.34,2.07,1.41,4.44,2.15,6.92,2.15,4.36,0,8.29-2.22,10.54-5.9,1.98,1.25,4.22,1.9,6.54,1.9,3.99,0,7.73-1.96,10.06-5.2,1.37.94,2.93,1.59,4.59,1.93-.04.36-.05.7-.05,1.04,0,2.42.71,4.75,2.07,6.79-3.09,2.35-4.9,5.95-4.9,9.85,0,1.94.46,3.84,1.33,5.57-4.15,2.1-6.86,6.4-6.86,11.08,0,3.12,1.14,6.03,3.24,8.32-2.1,2.3-3.24,5.22-3.24,8.32,0,4.38,2.25,8.32,5.96,10.58-1.04,1.86-1.59,3.93-1.59,6.06,0,4.04,1.97,7.76,5.23,10.09-.85.38-1.65.84-2.39,1.39-.96-.23-1.83-.33-2.68-.33-3.04,0-5.98,1.14-8.25,3.2-2.23-3.7-6.25-6.02-10.65-6.02-3.2,0-6.27,1.26-8.58,3.5-3.2-2.91-6.7-4.43-10.19-4.43-5.68,0-10.84,4.21-12.52,10.22-.06.23-6.52,22.35-4.45,42.59.38,3.68,2.87,10.82,6.49,11.96,3.22,1.01,3.5,2.77,3.5,4.48,0,1.25.54,4.16,5.56,4.16,1.38,0,5.59,0,5.59-4.16,0-2.94.19-3.77,1.95-4.51,1.12-.48,6.76-3.25,8.22-11.1,1.41-7.57-.03-16.01-1.3-21.27,1.64,1.19,3.52,1.77,5.74,1.77,3.04,0,5.98-1.14,8.25-3.19,2.23,3.7,6.25,6.02,10.65,6.02s8.29-2.24,10.55-5.92c1.71.84,3.59,1.28,5.51,1.28,3.31,0,6.42-1.29,8.76-3.63,2.05-2.05,3.3-4.73,3.57-7.62,5.12-1.65,8.61-6.39,8.61-11.81,0-4.24-2.14-8.12-5.68-10.4h0Z"/>
  <g>
    <path class="cls-11" d="m491.98,757.57c-3.18,0-5.77-2.6-5.77-5.79v-3.09c0-1.28-.89-2.4-2.12-2.67-3.89-.88-7.6-2.43-11.04-4.6-.42-.25-.94-.4-1.44-.4-.74,0-1.45.29-1.98.81l-2.16,2.18c-1.1,1.1-2.56,1.7-4.1,1.7s-3-.6-4.09-1.7c-1.09-1.09-1.7-2.55-1.7-4.09s.6-3,1.7-4.09l2.22-2.2c.89-.89,1.04-2.32.37-3.41-2.16-3.44-3.71-7.14-4.58-11-.28-1.27-1.37-2.14-2.67-2.14h-3.09c-3.19,0-5.79-2.59-5.79-5.77s2.6-5.79,5.79-5.79h3.09c1.3,0,2.4-.86,2.67-2.1.89-3.93,2.44-7.64,4.6-11.04.66-1.06.5-2.5-.39-3.39l-2.22-2.22c-1.09-1.09-1.7-2.54-1.7-4.08s.6-2.99,1.7-4.08c1.07-1.06,2.56-1.66,4.1-1.66s3.01.59,4.09,1.66l2.2,2.2c.52.52,1.22.81,1.95.81.51,0,1.01-.14,1.44-.42,3.49-2.16,7.2-3.7,11.02-4.57,1.23-.29,2.14-1.41,2.14-2.67v-3.12c0-3.18,2.59-5.77,5.77-5.77s5.79,2.59,5.79,5.77v3.12c0,1.28.88,2.38,2.13,2.67,3.87.88,7.57,2.41,11,4.56.44.28.94.43,1.45.43.74,0,1.43-.29,1.95-.81l2.22-2.2c1.02-1.05,2.52-1.67,4.07-1.67s3.05.62,4.1,1.69c1.06,1.02,1.66,2.48,1.66,4.06s-.61,3.06-1.73,4.12l-2.17,2.18c-.88.9-1.04,2.33-.36,3.4,2.15,3.44,3.68,7.14,4.56,11.02.29,1.24,1.39,2.12,2.67,2.12h3.12c3.18,0,5.77,2.6,5.77,5.79s-2.59,5.77-5.77,5.77h-3.12c-1.26,0-2.39.9-2.67,2.15-.87,3.83-2.4,7.53-4.55,10.99-.69,1.08-.53,2.52.37,3.43l2.19,2.17c1.09,1.09,1.69,2.55,1.69,4.11s-.6,3-1.68,4.08c-1.09,1.09-2.54,1.7-4.08,1.7s-2.99-.6-4.08-1.7l-2.22-2.22c-.51-.51-1.21-.8-1.94-.8-.52,0-1.03.14-1.47.42-3.38,2.15-7.09,3.69-11,4.58-1.25.27-2.12,1.37-2.12,2.67v3.09c0,3.19-2.6,5.79-5.79,5.79Zm13.17-40.97c-1.51,0-2.74,1.23-2.74,2.74,0,4.02-3.27,7.29-7.29,7.29-1.51,0-2.74,1.23-2.74,2.74s1.23,2.74,2.74,2.74c7.04,0,12.77-5.73,12.77-12.77,0-1.54-1.2-2.74-2.74-2.74Zm-34.08-12.05c-1.51,0-2.74,1.23-2.74,2.74,0,7.04,5.73,12.77,12.77,12.77,1.51,0,2.74-1.23,2.74-2.74s-1.23-2.74-2.74-2.74c-4.02,0-7.29-3.27-7.29-7.29,0-1.51-1.23-2.74-2.74-2.74Zm22.07-14.02c-1.54,0-2.74,1.2-2.74,2.74s1.23,2.74,2.74,2.74c4,0,7.26,3.27,7.26,7.29,0,1.51,1.23,2.74,2.74,2.74s2.74-1.23,2.74-2.74c0-7.04-5.72-12.77-12.74-12.77Z"/>
    <path class="cls-2" d="m491.98,667.49c1.85,0,3.37,1.5,3.37,3.35v3.12c0,2.4,1.65,4.48,4,5.03,3.64.83,7.09,2.27,10.26,4.25.84.53,1.79.79,2.73.79,1.34,0,2.66-.52,3.66-1.52l2.22-2.2c.63-.64,1.5-.97,2.37-.97s1.74.32,2.37.97c.64.62.98,1.47.98,2.38s-.33,1.76-.98,2.38l-2.22,2.22c-1.67,1.7-1.98,4.36-.7,6.4,1.98,3.17,3.42,6.63,4.25,10.26.54,2.35,2.63,4,5.03,4h3.12c1.86,0,3.35,1.52,3.35,3.37s-1.5,3.35-3.35,3.35h-3.12c-2.4,0-4.48,1.67-5.03,4.02-.83,3.64-2.27,7.07-4.25,10.26-1.29,2.03-.98,4.69.7,6.4l2.22,2.2c.64.64.98,1.49.98,2.4s-.33,1.73-.98,2.38-1.52.99-2.37.99-1.71-.33-2.37-.99l-2.22-2.22c-1-1-2.32-1.5-3.65-1.5-.95,0-1.9.26-2.74.78-3.17,2.01-6.63,3.45-10.26,4.28-2.35.51-4,2.6-4,5.03v3.09c0,1.85-1.52,3.37-3.37,3.37s-3.35-1.52-3.35-3.37v-3.09c0-2.42-1.67-4.51-4.02-5.03-3.64-.83-7.07-2.27-10.26-4.28-.85-.51-1.8-.78-2.73-.78-1.35,0-2.66.51-3.67,1.49l-2.2,2.22c-.66.66-1.52.99-2.39.99s-1.73-.33-2.39-.99c-1.32-1.32-1.32-3.46,0-4.77l2.22-2.2c1.7-1.7,1.98-4.36.73-6.4-2.01-3.2-3.45-6.63-4.28-10.26-.51-2.35-2.6-4.02-5.03-4.02h-3.09c-1.85,0-3.37-1.5-3.37-3.35s1.52-3.37,3.37-3.37h3.09c2.42,0,4.51-1.65,5.03-4,.83-3.64,2.27-7.09,4.28-10.26,1.26-2.03.98-4.69-.73-6.4l-2.22-2.22c-1.32-1.32-1.32-3.42,0-4.74.64-.63,1.52-.96,2.4-.96s1.74.31,2.38.96l2.2,2.2c1,1,2.32,1.52,3.66,1.52.94,0,1.89-.26,2.73-.79,3.2-1.98,6.63-3.42,10.26-4.25,2.35-.54,4.02-2.63,4.02-5.03v-3.12c0-1.86,1.5-3.35,3.35-3.35m11.16,40.97c2.86,0,5.16-2.32,5.16-5.16,0-8.38-6.81-15.19-15.16-15.19-2.86,0-5.16,2.3-5.16,5.16s2.3,5.16,5.16,5.16c2.68,0,4.84,2.2,4.84,4.88,0,2.84,2.32,5.16,5.16,5.16m-22.04,14.02c2.83,0,5.16-2.29,5.16-5.16s-2.32-5.16-5.16-5.16c-2.68,0-4.88-2.2-4.88-4.87,0-2.84-2.32-5.16-5.16-5.16s-5.16,2.32-5.16,5.16c0,8.38,6.81,15.19,15.19,15.19m14.02,12.05c8.38,0,15.19-6.81,15.19-15.19,0-2.86-2.3-5.16-5.16-5.16s-5.16,2.3-5.16,5.16c0,2.68-2.2,4.87-4.87,4.87-2.84,0-5.16,2.3-5.16,5.16s2.32,5.16,5.16,5.16m-3.14-71.87c-4.51,0-8.18,3.67-8.18,8.18v3.12c0,.15-.12.28-.28.32-4.07.92-8.02,2.56-11.72,4.85-.07.04-.12.07-.19.07-.05,0-.16-.01-.25-.1l-2.2-2.2c-1.53-1.53-3.59-2.37-5.79-2.37s-4.29.86-5.8,2.36c-1.56,1.56-2.42,3.62-2.42,5.8s.85,4.24,2.4,5.79l2.22,2.22c.1.1.12.29.04.43-2.3,3.63-3.94,7.58-4.89,11.74-.03.16-.16.24-.32.24h-3.09c-4.52,0-8.2,3.68-8.2,8.2s3.68,8.18,8.2,8.18h3.09c.16,0,.28.09.31.22.95,4.16,2.59,8.12,4.91,11.8.07.11.05.3-.05.41l-2.2,2.18c-3.21,3.21-3.21,8.42-.02,11.62,1.55,1.55,3.61,2.4,5.8,2.4s4.25-.85,5.8-2.4l2.16-2.18c.08-.08.18-.11.29-.11.03,0,.12.01.21.06,3.65,2.3,7.59,3.94,11.72,4.87.16.04.26.17.26.32v3.09c0,4.52,3.67,8.2,8.18,8.2s8.2-3.68,8.2-8.2v-3.09c0-.16.08-.28.2-.31,4.2-.95,8.15-2.6,11.78-4.9.06-.03.12-.05.19-.05s.16.02.24.09l2.22,2.22c1.55,1.55,3.6,2.4,5.79,2.4s4.24-.85,5.79-2.4,2.39-3.6,2.39-5.79-.85-4.27-2.39-5.81l-2.19-2.17c-.11-.12-.13-.3-.05-.42,2.31-3.72,3.95-7.67,4.88-11.78.03-.14.17-.26.32-.26h3.12c4.51,0,8.18-3.67,8.18-8.18s-3.67-8.2-8.18-8.2h-3.12c-.15,0-.29-.11-.32-.26-.94-4.12-2.57-8.07-4.86-11.73-.09-.15-.07-.34.05-.45l2.15-2.15c1.56-1.52,2.42-3.58,2.42-5.82s-.85-4.28-2.4-5.8c-1.5-1.51-3.6-2.37-5.78-2.37s-4.29.87-5.79,2.39l-2.19,2.17c-.11.11-.21.12-.26.12-.07,0-.12-.02-.15-.04-3.68-2.3-7.63-3.94-11.78-4.88-.13-.03-.24-.16-.24-.32v-3.12c0-4.51-3.68-8.18-8.2-8.18h0Zm11.16,40.97c-.17,0-.33-.15-.33-.33,0-5.35-4.34-9.7-9.67-9.7-.18,0-.33-.14-.33-.33s.13-.33.33-.33c5.7,0,10.33,4.65,10.33,10.36,0,.18-.14.33-.33.33h0Zm-22.04,14.02c-5.71,0-10.36-4.65-10.36-10.36,0-.17.15-.33.33-.33s.33.15.33.33c0,5.35,4.35,9.7,9.7,9.7.17,0,.33.15.33.33,0,.21-.17.33-.33.33h0Zm14.02,12.05c-.17,0-.33-.15-.33-.33,0-.18.14-.33.33-.33,5.35,0,9.7-4.35,9.7-9.7,0-.21.17-.33.33-.33.19,0,.33.14.33.33,0,5.71-4.65,10.36-10.36,10.36h0Z"/>
  </g>
</svg>